<svg xmlns="http://www.w3.org/2000/svg" width="164" height="35" viewBox="0 0 164 35"><path fill="#ea345a" d="M50.222 14.003a20.11 20.11 0 0 1-1.53 5.323c-.369.44-.541.972-.701 1.51l.01-.012c-.265.145-.276.424-.353.669l.014-.008c-.348.337-.487.79-.68 1.216-1.055 1.851-2.34 3.516-3.972 4.902-.987.85-1.986 1.685-2.984 2.52l.013-.01c-1.352.873-2.807 1.567-4.178 2.406l-.169.045c-1.106.364-2.226.69-3.288 1.177-3.337.995-6.722 1.25-10.162.66-.472-.168-.95-.304-1.46-.22-.583-.082-1.16-.188-1.701-.432-.26-.298-.596-.295-.945-.244C9.259 30.746 2.228 22.63 1.113 13.165c.12-.8-.095-1.59-.063-2.39.02-.525.218-.767.745-.74.22.011.441 0 .662 0h46.597c.248 0 .497.006.745.003.457-.005.627.23.642.667.022.66-.201 1.313-.038 1.974.026.239.034.474-.117.682-.187.198-.076.425-.064.642z"/><path d="M89.063 10.91c1.424-.946 2.869-1.55 4.528-1.556 4.04-.016 7.049 2.706 7.195 6.74.122 3.387.037 6.783.067 10.175.004.469-.183.535-.583.53-1.49-.018-2.98-.034-4.47.008-.555.015-.617-.203-.615-.672a441.82 441.82 0 0 0-.013-8.44c-.017-1.243-.407-2.358-1.655-2.915-1.752-.781-3.318.028-4.366 1.207-.212.238-.125.525-.126.791-.006 3.062-.028 6.124.015 9.185.01.713-.211.868-.879.844-1.405-.052-2.814-.032-4.22-.006-.473.008-.678-.074-.675-.622.021-5.24.018-10.481.003-15.722-.002-.473.14-.608.605-.599 1.407.028 2.815.01 4.222.01.903 0 .903.001.967 1.043zM74.546 25.663c-2.16 1.557-4.34 1.97-6.694 1.43-2.802-.64-4.854-3.041-5.149-6.076-.259-2.668-.066-5.348-.113-8.022-.015-.828.026-1.657-.013-2.483-.024-.5.113-.67.638-.656 1.462.036 2.926.037 4.387 0 .54-.014.703.13.696.682-.03 2.455-.013 4.91-.013 7.366v.662c-.004 1.42.255 2.746 1.714 3.38 1.52.662 2.834.159 4.019-.897.375-.333.473-.684.47-1.154-.014-3.09.011-6.18-.023-9.27-.007-.616.142-.795.768-.773 1.406.051 2.815.034 4.222.007.498-.01.714.07.711.655-.025 5.214-.021 10.429-.003 15.643.001.505-.126.66-.643.646a60.823 60.823 0 0 0-4.056.003c-.733.03-1.21-.056-.918-1.143zM103.684 16.745c0-3.008-.018-6.015.005-9.022.039-5.145 3.616-8.318 8.726-7.745.902.1 1.791.31 2.691.438.44.063.538.275.467.677-.215 1.22-.442 2.44-.601 3.669-.065.498-.28.474-.656.41-.922-.158-1.846-.336-2.79-.133-1.277.275-2.012 1.088-2.136 2.383-.234 2.446-.234 2.446 2.17 2.446 1.077 0 2.154.018 3.23-.008.428-.01.576.114.566.555a79.254 79.254 0 0 0 .002 3.724c.013.5-.19.596-.632.59-1.518-.02-3.037.023-4.554-.022-.647-.02-.84.16-.834.822.033 3.476-.005 6.953.03 10.429.007.696-.195.879-.876.85a49.105 49.105 0 0 0-4.056 0c-.649.026-.77-.195-.765-.793.03-3.09.013-6.18.013-9.27zM142.563 14.423c0 3.866-.014 7.73.014 11.596.004.599-.114.814-.76.788a48.574 48.574 0 0 0-4.059 0c-.71.031-.92-.137-.916-.889.037-5.659.02-11.319.02-16.978 0-2.043.023-4.087-.013-6.129-.01-.598.117-.819.764-.793a57.11 57.11 0 0 0 4.142.002c.637-.022.83.142.825.809-.035 3.864-.017 7.73-.017 11.594z"/><path fill="#d33158" d="M50.403 12.679c-.274-.579-.116-1.193-.113-1.787.002-.551-.194-.76-.726-.694-.108.013-.22.001-.33.001H2.282c-1.059 0-1.039.002-1.066 1.088-.017.626.138 1.264-.103 1.878l-.179-1.981c.198-.398-.227-.935.283-1.262.275-.013.55-.038.824-.038 15.86-.002 31.72.005 47.58-.02.804 0 1.103.2.968 1.008-.1.596-.127 1.204-.186 1.807z"/><path fill="#cd385f" d="M35.86 32.519c.016-.052.015-.134.05-.152 1.388-.728 2.674-1.646 4.128-2.254-1.26 1.032-2.686 1.775-4.177 2.406z"/><path fill="#ce375e" d="M40.026 30.124c.869-.99 1.875-1.816 2.984-2.521"/><path fill="#d1355d" d="M32.404 33.741c-.099-.358.22-.27.376-.337a2.64 2.64 0 0 1 .543-.156c.812-.154 1.492-.76 2.37-.684-1.039.554-2.144.92-3.289 1.177z"/><path fill="#c2315b" d="M20.782 34.18c.573-.319 1.1.028 1.646.115-.012.02-.018.05-.035.057-.048.021-.1.033-.15.049-.505.04-.987-.065-1.461-.22z"/><path fill="#d03b62" d="M47.99 20.836c.03-.599.125-1.166.702-1.51"/><path fill="#d44068" d="M46.983 22.7c.066-.494.185-.96.68-1.215"/><path fill="#b3315a" d="M1.217 9.922c-.324.37-.002.883-.283 1.262"/><path fill="#d1365d" d="M18.136 33.505c.366-.115.754-.319.945.244"/><path fill="#be305a" d="M50.222 14.004c-.085-.225-.316-.465.064-.643"/><path fill="#ce375f" d="M47.648 21.493c-.042-.308-.027-.585.353-.67"/><path d="M154.38 22.595c-2.278-.019-4.03-1.868-4.025-4.25.004-2.387 1.753-4.178 4.072-4.17 2.389.009 4.056 1.723 4.045 4.16-.01 2.455-1.762 4.279-4.091 4.26zm9.155-1.715c0-6.013-.01-12.027.015-18.04.003-.647-.161-.845-.817-.822a72.475 72.475 0 0 1-4.222.005c-.512-.011-.661.153-.65.658.033 1.295.011 2.592.011 3.889v4.237c-2.086-1.154-4.189-1.53-6.4-1.073-2.28.472-3.995 1.799-5.267 3.705-2.165 3.246-1.837 7.847.713 10.854 2.46 2.902 6.687 3.958 10.882 1.735.124.76.124.762.859.762 1.352.002 2.706-.047 4.055.02.733.036.854-.228.836-.883-.045-1.68-.015-3.364-.015-5.047zM125.281 22.446c-2.21-.063-3.792-1.841-3.74-4.204.05-2.233 1.721-3.896 3.896-3.874 2.192.021 3.806 1.767 3.762 4.07-.045 2.378-1.7 4.07-3.918 4.008zm7.763-9.158c-1.972-2.9-4.896-3.914-8.33-3.773-5.584.23-9.459 5.045-8.417 10.533.843 4.441 4.286 7.215 9.017 7.262 3.66.036 6.665-1.58 8.185-4.61 1.597-3.185 1.579-6.42-.455-9.412z"/></svg>