<svg xmlns="http://www.w3.org/2000/svg" width="183" height="35" viewBox="0 0 183 35"><path fill="#fff" d="M97.71 27.335l4.228-13.12h3.334l-2.241 6.924h.617l3.911-3.041h4.367l-5.84 4.327 3.385 4.91h-4.238l-2.356-3.692h-.656l-1.204 3.692zm-10.7-4.242l.284-.882c1.14-3.504 3.046-4.259 5.475-4.259h3.728c2.455 0 3.664.934 2.973 3.067l-.262.832h-3.222c.305-.95-.055-1.294-1.507-1.294h-1.28c-1.39 0-2.174.403-2.498 1.414l-.408 1.234c-.377 1.19.227 1.56 1.272 1.56l1.694-.009c.933.008 1.854-.206 2.129-1.063l.076-.223h3.222l-.266.823c-.805 2.477-3.016 3.189-4.91 3.189h-3.397c-2.197 0-4.38-.438-3.102-4.388m2.51-8.878l-.878 2.725H85.31l.88-2.725zm-1.264 3.873l-2.982 9.246H81.95l2.983-9.246zM73.69 24.25l1.182-3.65H73.21l.805-2.51h1.663l.702-2.167h3.338l-.715 2.167 5.162.009-.81 2.501h-5.153l-1.154 3.548c-.218.686.219.83 1.017.83 1.07 0 1.444-.255 1.726-1.095l.197-.625h2.91l-.36 1.122c-.561 1.766-2.108 3.103-4.765 3.103h-1.315c-2.045 0-3.59-.678-2.768-3.232m35.558-1.148l.274-.891c1.135-3.504 3.047-4.259 5.471-4.259h.995l7.476-.01.648-2.02h3.328l-.672 2.108h5.15l-.832 2.57h-5.162l-1.148 3.547c-.219.686.213.83 1.02.83 1.062 0 1.434-.255 1.717-1.095l.192-.625h2.918l-.363 1.122c-.574 1.766-2.117 3.103-4.766 3.103h-1.306c-2.043 0-3.595-.678-2.776-3.232l1.187-3.65h-1.268c-.048.385-.16.831-.318 1.337l-.505 1.56h-8.077l-.175.565c-.313.976.26 1.242 1.645 1.242h1.016c1.807 0 2.047-.506 2.222-1.054h3.12l-.124.403c-.754 2.322-2.892 2.829-5.3 2.829h-2.489c-2.203 0-4.384-.438-3.098-4.38m3.865-1.671h4.837c.351-1.105-.056-1.302-1.997-1.302-2.168 0-2.489.197-2.84 1.302"/><path fill="#fff" d="M80.58 9.931c.193 0 .412.044.412.31 0 .298-.245.315-.498.315h-.313v-.625zm-.399 1.74v-.857h.313l.515.857h.313l-.537-.882c.283-.044.502-.19.502-.549 0-.369-.21-.557-.668-.557h-.725v1.988zm-1.006-1.003c0-.822.586-1.439 1.345-1.439.758 0 1.337.617 1.337 1.439 0 .832-.579 1.449-1.337 1.449-.759 0-1.345-.617-1.345-1.45m-.292 0c0 .978.75 1.707 1.637 1.707s1.633-.73 1.633-1.706c0-.968-.746-1.705-1.633-1.705-.878 0-1.637.737-1.637 1.705M49.877 22.683c0 6.502 5.034 11.765 11.251 11.765 6.209 0 11.234-5.263 11.234-11.765 0-1.749-.356-3.394-1.002-4.885-3.145 1.877-6.474 4.637-8.985 8.672 5.377-10.214 16.508-13.805 16.508-13.805L69.97 0s-3.127 2.348-6.161 6.564c2.674-3.316 5.429-4.885 5.429-4.885l6.546 9.572s-10.03 4.534-15.107 16.076c-.283.634-.69 2.151-.69 2.151s-1.063-3.566-1.5-5.176c-.24-1.054-.372-2.142-.342-3.094.103-3.993 1.259-7.447 2.768-10.29-6.11.11-11.037 5.338-11.037 11.765M25.819 27.275l2.99-9.228h3.321l-.485 1.483c1.047-1.295 2.314-1.629 4.097-1.629 1.482 0 6.007-.008 6.007-.008l.651-2.023h3.316l-.66 2.023h5.16l-.849 2.655h-5.159l-1.144 3.55c-.23.683.206.83.999.83 1.08 0 1.456-.257 1.73-1.097l.21-.625h2.9l-.363 1.122c-.566 1.766-2.104 3.103-4.76 3.103h-1.307c-2.052 0-3.598-.669-2.776-3.224l1.187-3.659h-1.222a6.342 6.342 0 0 1-.3 1.422l-1.714 5.305h-3.333l1.727-5.305c.286-.899-.26-1.353-1.718-1.353h-.754c-1.431 0-2.498.687-2.922 2.005l-1.508 4.653zm2.527-9.228l-2.99 9.228h-3.312l.475-1.474c-1.036 1.277-2.314 1.63-4.096 1.63-2.065 0-4.902-.095-3.607-4.071l1.7-5.313 3.33-.009-1.719 5.322c-.29.9.258 1.354 1.706 1.354h.767c1.427 0 2.494-.694 2.926-2.014l1.5-4.653zM0 30.497l4.031-12.45h3.21l-.442 1.38c.707-.823 1.701-1.526 3.638-1.526h.96c4.211 0 4.22 1.577 3.444 3.934l-.531 1.662c-.758 2.356-1.791 3.934-5.998 3.934H7.64c-1.89 0-2.455-.275-2.722-1.749l-1.593 4.816zm5.994-8.285l-.287.9c-.446 1.404.142 1.713 1.457 1.713h1.743c1.602 0 1.938-.591 2.284-1.619l.343-1.081c.347-1.037.364-1.61-1.22-1.61H8.555c-1.315 0-2.1.308-2.562 1.697M153.924 22.228c.442-1.337 1.329-1.74 2.857-1.74h.807c2.146 0 2.467.292 2.073 1.534l-.433 1.277c-.394 1.234-.917 1.534-3.072 1.526h-.805c-1.53 0-2.139-.403-1.706-1.732l.28-.865m-3.845 1.543c-1.002 3.05.768 3.674 2.464 3.667h4.992c1.71 0 3.873-.616 4.88-3.667l.728-2.229c1.003-3.05-.754-3.676-2.46-3.676h-4.991c-1.697 0-3.877.626-4.885 3.676l-.728 2.23m-11.77-.73c-1.31 3.967.871 4.396 3.086 4.403l3.405-.007c1.92.007 4.14-.71 4.95-3.197l.27-.813h-3.227l-.072.206c-.288.865-1.209 1.088-2.148 1.088h-1.705c-1.04 0-1.657-.37-1.255-1.578l.407-1.225c.343-1.028 1.127-1.431 2.515-1.431h1.29c1.465 0 1.816.352 1.509 1.294h3.235l.27-.839c.706-2.125-.499-3.077-2.97-3.077h-3.753c-2.434 0-4.362.763-5.515 4.276l-.292.9m-3.132 4.26l1.226-3.72h-3.655l-1.229 3.72zm29.856 0l1.598-4.894c.48-1.448 1.278-1.809 2.712-1.809 2.019 0 2.323.292 1.94 1.44l-1.737 5.262h3.336l1.688-5.117c.408-1.224 1.178-1.585 2.785-1.585 1.954 0 2.121.437 1.698 1.715l-1.642 4.987h3.342l1.718-5.219c.879-2.665.292-4.216-2.751-4.216h-1.032c-1.893 0-2.773.49-3.874 2.169-.154-1.457-1.002-2.169-2.574-2.169h-1.274c-1.639 0-2.985.635-3.597 1.971.594-1.817.555-1.817.555-1.817h-3.17l-3.068 9.281z"/></svg>