<svg id="f03dbd59-85f2-4c1a-94e7-f09239e9d7a4" data-name="Capa 1" xmlns="http://www.w3.org/2000/svg" width="273.62" height="58.31" viewBox="0 0 273.62 58.31"><defs><style>.ee613197-feb4-4056-acf8-73b2c7464a32{fill:#ec7320;}.b837bdc9-533b-49b3-8c1b-d19a964d8468{fill:#fff;}</style></defs><title>playlogo_2</title><path class="ee613197-feb4-4056-acf8-73b2c7464a32" d="M165.6,53.6h-8.9c-.4,0-.5-.2-.4-.6l14.1-40.1c.2-.4.4-.6.8-.6h8.9c.5,0,.6.2.4.6l-.9,2.4h.1a11.49,11.49,0,0,1,8.8-3.7c5.7,0,7.9,3.3,6.8,9.9a52.45,52.45,0,0,1-2.3,7.8,46.62,46.62,0,0,1-3.6,7.4c-3,4.5-7,6.7-11.9,6.7-3.6,0-5.6-1.2-6.2-3.7h-.1L166.3,53a.73.73,0,0,1-.7.6M176.7,35a5.57,5.57,0,0,0,4.6-2.7,21.91,21.91,0,0,0,1.9-4.2,26,26,0,0,0,1.4-4.5c.4-2.5-.4-3.7-2.5-3.7a5.57,5.57,0,0,0-4.6,2.7,21.91,21.91,0,0,0-1.9,4.2,26,26,0,0,0-1.4,4.5c-.4,2.4.4,3.7,2.5,3.7" transform="translate(-1.3 -0.3)"/><path class="ee613197-feb4-4056-acf8-73b2c7464a32" d="M204.1,42.8h-3.6c-3.7,0-6-.8-7-2.4s-.7-4.3.5-8L205.3.9c.2-.4.4-.6.7-.6h8.9c.5,0,.6.2.4.6l-11,30.6a3.58,3.58,0,0,0-.2,2.2c.2.5.8.7,1.6.7h1.2c.4,0,.5.2.4.6l-2.5,7.2a.66.66,0,0,1-.7.6" transform="translate(-1.3 -0.3)"/><path class="ee613197-feb4-4056-acf8-73b2c7464a32" d="M232.9,42.5h-8.3c-.5,0-.6-.2-.4-.6l.6-1.9h-.1a12.66,12.66,0,0,1-8.9,3.2,6.93,6.93,0,0,1-5.3-2,6,6,0,0,1-1.3-5.5,13.07,13.07,0,0,1,5.2-8.6q4.2-3,11.1-3h4.7a.72.72,0,0,0,.6-.4l.4-1.1c.5-1.2.4-2-.2-2.5s-2-.7-4.3-.7a13.56,13.56,0,0,0-6.9,1.7c-.4.2-.6.1-.7-.2l-1.2-5.5a.76.76,0,0,1,.5-.9,24.61,24.61,0,0,1,12.5-3c4.7,0,7.9.8,9.5,2.5s1.7,4.6.3,8.7l-6.8,19.1c-.4.5-.6.7-1,.7M221.7,36c3.1,0,5-1.1,5.7-3.4l.7-2c.1-.2,0-.4-.2-.4h-3.5c-3.1,0-4.9,1.2-5.3,3.5-.3,1.6.5,2.3,2.6,2.3" transform="translate(-1.3 -0.3)"/><path class="ee613197-feb4-4056-acf8-73b2c7464a32" d="M237.1,53.6h-2.2c-.4,0-.5-.2-.4-.6l2.5-7a.87.87,0,0,1,.9-.6h1.5a4.87,4.87,0,0,0,2.5-.6,6.93,6.93,0,0,0,2.1-2.1l1.3-2-1.2-27.8a.53.53,0,0,1,.6-.6h9c.4,0,.5.2.5.6l-.3,15.7h.1l10.3-15.7a1.1,1.1,0,0,1,1-.6h9.2c.5,0,.5.2.3.7L250.4,45.9c-2.2,3-4.2,5-6.2,6.1a13.58,13.58,0,0,1-7.1,1.6" transform="translate(-1.3 -0.3)"/><path class="b837bdc9-533b-49b3-8c1b-d19a964d8468" d="M13.8,30.7l-.6,1.9c-.9,2.9.3,3.6,3,3.6h3.6c3.3,0,4-1.2,4.7-3.4l.7-2.2c.7-2.1.8-3.3-2.5-3.3H19.1c-2.8-.2-4.4.5-5.3,3.4M1.3,47.8,9.7,22h6.7l-.9,2.9A9,9,0,0,1,23,21.7h2c8.7,0,8.7,3.3,7.1,8.2L31,33.3c-1.6,4.9-3.7,8.2-12.4,8.2H17.2c-3.9,0-5.1-.6-5.6-3.6l-3.3,10h-7ZM60.1,22,53.9,41.1H47L48,38c-2.1,2.6-4.8,3.4-8.5,3.4-4.3,0-10.2-.2-7.5-8.4l3.5-11h6.9L38.8,33c-.6,1.9.5,2.8,3.5,2.8H44c3,0,5.2-1.4,6.1-4.2L53.2,22ZM54.8,41.2,61,22h6.9l-1,3.1c2.2-2.7,4.8-3.4,8.5-3.4H87.8l1.3-4.2H96l-1.4,4.2h10.7l-1.8,5.5H92.9l-2.4,7.4c-.5,1.4.4,1.7,2.1,1.7,2.2,0,3-.5,3.6-2.3l.4-1.3h6l-.8,2.3c-1.2,3.7-4.4,6.4-9.9,6.4H89.2c-4.3,0-7.5-1.4-5.8-6.7l2.5-7.6H83.4a21.51,21.51,0,0,1-.6,2.9L79.2,41H72.3l3.6-11c.6-1.9-.5-2.8-3.6-2.8H70.7c-3,0-5.2,1.4-6.1,4.2L61.5,41H54.8Z" transform="translate(-1.3 -0.3)"/><path class="b837bdc9-533b-49b3-8c1b-d19a964d8468" d="M102.6,33.9l1.5-4.6c2.1-6.3,6.6-7.6,10.1-7.6h10.3c3.5,0,7.2,1.3,5.1,7.6l-1.5,4.6c-2.1,6.3-6.6,7.6-10.1,7.6H107.7c-3.5,0-7.1-1.3-5.1-7.6m8-3.2-.6,1.8c-.9,2.8.4,3.6,3.5,3.6h1.7c4.5,0,5.6-.6,6.4-3.2l.9-2.6c.8-2.6.2-3.2-4.3-3.2h-1.7c-3.1,0-5,.8-5.9,3.6" transform="translate(-1.3 -0.3)"/><path class="ee613197-feb4-4056-acf8-73b2c7464a32" d="M154.3,27.2,126.7,3a4.11,4.11,0,0,0-6.8,3.1v10h8.9c5.5,0,11.1,2,7.9,11.8L134.4,35c-3,9.1-9.2,11.4-14.5,11.7v7.8a4.12,4.12,0,0,0,6.8,3.1l27.6-24.2A4.08,4.08,0,0,0,154.3,27.2Z" transform="translate(-1.3 -0.3)"/></svg>