<svg xmlns="http://www.w3.org/2000/svg" width="425" height="613" viewBox="0 0 425 613"><path d="M5.47 319.527c0-42.022-.126-76.372.075-110.722.064-10.72 1.488-21.376 2.887-32.03 1.25-9.518 4.127-18.545 6.91-27.603 2.602-8.477 6.131-16.635 9.727-24.77 4.028-9.109 8.704-17.842 13.878-26.294C44.692 88.718 51 79.7 58.078 71.21c3.634-4.359 7.36-8.627 11.337-12.639 2.057-2.077 4.669-3.878 6.636-5.918 3.668-3.798 7.825-6.865 11.86-10.14 5.6-4.546 11.67-8.377 17.833-12.11a154.164 154.164 0 0 1 30.329-14.144 200.432 200.432 0 0 1 33.51-8.252c14.492-2.269 29.077-2.57 43.64-1.962 10.153.425 20.284 1.708 30.363 3.374 7.82 1.293 15.52 3.025 23.134 5.07 6.923 1.862 13.75 4.098 20.44 6.843 6.067 2.492 12.259 4.67 18.138 7.623 9.69 4.87 19.077 10.299 27.81 16.696 8.156 5.975 15.963 12.403 23.222 19.533 10.25 10.07 19.343 21.055 27.379 32.91 3.88 5.723 7.477 11.634 10.87 17.699 6.051 10.822 11.549 21.92 15.3 33.66 2.788 8.722 5.64 17.519 6.804 26.776 1.023 8.148 1.72 16.26 1.435 24.446-.071 2.03.701 3.918.23 6.055-.868 3.93-3.205 5.96-6.904 6.867-5.587 1.372-5.48 1.394-5.612 7.144-.128 5.6-.115 11.212-.235 16.807-.102 4.749.19 9.59.238 14.388.091 8.973.026 17.95.026 26.923v91.748c0 8.083-.003 16.166.002 24.247.002 4.104 1.01 5.219 5.027 5.604 4.633.443 8.319 4.739 7.6 9.285-.466 2.95-.355 5.873-.277 8.79.25 9.303-1.441 18.382-2.822 27.507-1.76 11.644-5.164 22.881-9.292 33.814-3.783 10.019-8.366 19.764-14.676 28.586-2.2 3.076-3.677 6.62-5.965 9.726-7.218 9.805-14.548 19.51-22.834 28.444-4.65 5.014-9.868 9.452-14.807 14.17-10.068 9.62-21.687 16.95-33.873 23.321-8.197 4.284-16.873 7.617-25.79 10.442-7.99 2.533-16.141 4.214-24.205 6.297-5.203 1.346-10.651 1.791-16.009 2.483-7.29.94-14.59 1.803-21.902 2.559-3.706.384-7.442.583-11.168.645-6.154.103-12.313-.035-18.467.042-10.71.135-21.203-1.567-31.716-3.353a148.078 148.078 0 0 1-24.954-6.536c-9.861-3.519-19.503-7.663-28.705-12.79-6.451-3.593-12.888-7.288-18.71-11.723-6.886-5.246-14.035-10.183-20.368-16.231-3.607-3.446-7.304-6.885-10.867-10.382-4.73-4.639-9.295-9.506-13.341-14.797-6.367-8.325-12.594-16.762-17.875-25.826-5.4-9.266-10.234-18.8-13.83-28.968-2.789-7.89-5.725-15.732-6.987-24.017-1.08-7.088-2.122-14.183-2.558-21.374-2.406-39.558-.117-79.152-1.022-111.046zm377.358-233.84c-7.36-9.505-15.224-18.564-23.938-26.854-2.637-2.509-5.508-4.77-8.2-7.222-6.127-5.582-12.816-10.462-19.686-15.025-9.12-6.057-18.757-11.248-28.712-15.859-8.331-3.86-16.873-7.215-25.635-9.826-12.327-3.674-24.85-6.639-37.653-8.322C228.702 1.224 218.38.154 207.995.077c-8.18-.06-16.36-.268-24.55.412-5.835.482-11.618 1.281-17.417 1.995-6.326.78-12.497 2.313-18.683 3.875-8.444 2.13-16.555 5.106-24.634 8.277-4.227 1.66-8.077 4.07-12.276 5.76-.956 1.256-2.346 1.74-3.787 2.132l-5.364 3.188c-1.214 1.232-2.758 1.938-4.282 2.674l-1.044.554c-1.058.805-2.072 1.678-3.181 2.405-14.881 9.746-27.51 22.042-39.031 35.42-10.351 12.02-19.032 25.31-26.55 39.281-10.028 18.637-17.692 38.22-22.712 58.818-2.426 9.953-4.251 20.103-4.238 30.257.1 79.625-.832 159.254.393 238.877.087 5.612 1.04 11.132 1.881 16.654 1.302 8.536 3.722 16.784 6.427 24.988 2.437 7.39 5.522 14.495 9.058 21.354 6.778 13.148 14.898 25.473 24.21 36.999 7.393 9.15 15.239 17.853 24.093 25.635 1.98 1.74 4.117 3.404 5.563 5.697 1.54.365 2.588 1.522 3.726 2.464 12.103 10.023 25.149 18.623 39.186 25.66 9.152 4.59 18.6 8.595 28.45 11.399 8.688 2.472 17.392 5.024 26.442 6.002 5.9.64 11.783 1.957 17.681 2.016 16.005.16 32.011.492 47.998-1.359 9.6-1.111 19.19-2.1 28.706-3.869 15.605-2.9 30.706-7.448 45.258-13.71 8.727-3.754 17.016-8.413 24.847-13.838 14.395-9.975 27.327-21.526 38.692-34.904 9.228-10.86 17.786-22.173 25.5-34.147 6.888-10.69 12.085-22.188 16.115-34.187 3.501-10.428 6.159-21.114 7.85-31.998 1.17-7.538 2.24-15.115 2.244-22.76.04-72.525.03-145.05.034-217.574.128-11.652-.369-23.223-2.581-34.736-3.149-16.374-8.934-31.81-16.137-46.713-6.39-13.221-14.362-25.546-23.054-37.389z"/><path fill="#31313e" d="M362.787 409.015c-3.901-.27-7.787-.744-11.68-1.117-1.727-.165-2.84-.79-2.548-2.835.15-1.049.03-2.137.03-3.206.004-4.943.009-5.006 4.805-4.56 3.892.36 7.76 1.062 11.657 1.294 2.412.143 3.075 1.166 2.768 3.332-.098.698-.014 1.423-.014 2.136-.003 5.236-.007 5.304-5.018 4.956zm-209.582-233.53c0 6.679-.014 12.705.01 18.73.006 1.099-.374 1.617-1.538 1.614-7.875-.024-15.752-.012-24.469-.012 8.898-6.96 17.173-13.432 25.996-20.331zm142.857 20.335zm0 0c-7.726 0-15.453-.02-23.18.018-1.3.006-1.948-.306-1.935-1.776.059-5.954.025-11.908.025-18.549L296.33 195.3zm-102.857 1.688c2.672.002 5.347.073 8.016-.024 1.654-.06 2.495.372 2.392 2.217a57.287 57.287 0 0 0 0 6.41c.103 1.839-.727 2.306-2.386 2.225-2.044-.099-4.104.08-6.144-.056-1.994-.131-2.901.374-2.812 2.627.082 2.073 1.099 5.037-.54 6.071-2.134 1.347-5.187.372-7.842.423-1.094.02-1.28-.747-1.28-1.63.001-5.523.026-11.045-.015-16.569-.01-1.526.845-1.718 2.06-1.705 2.85.033 5.7.011 8.551.011zm38.012.002c2.673-.002 5.347.072 8.017-.029 1.674-.063 2.406.41 2.37 2.234a418.383 418.383 0 0 0 .003 15.5c.033 1.812-.69 2.225-2.362 2.256-7.23.135-7.3.182-7.36-6.812-.016-1.934-.696-2.477-2.502-2.377-2.22.12-4.456-.046-6.679.054-1.663.076-2.198-.618-2.133-2.201.088-2.135.112-4.28-.006-6.413-.1-1.816.69-2.3 2.37-2.24 2.758.101 5.521.028 8.282.028zm136.246 50.909c0 2.578-.037 5.157.014 7.735.03 1.357-.51 1.907-1.88 1.896a813.2 813.2 0 0 0-15.202.005c-1.427.015-1.833-.582-1.822-1.913.044-5.335.043-10.67-.003-16.004-.012-1.342.419-1.919 1.834-1.904a817.35 817.35 0 0 0 15.201.004c1.382-.01 1.896.566 1.872 1.913-.048 2.755-.014 5.512-.014 8.268zm-136.335-52.496c-2.765.002-5.53-.048-8.293.023-1.51.038-2.298-.332-2.272-2.07.08-5.439.063-10.88.009-16.32-.015-1.514.575-2.026 2.052-2.012 5.617.05 11.236.046 16.853 0 1.408-.012 2.141.34 2.123 1.933a881.96 881.96 0 0 0-.012 16.588c.011 1.39-.534 1.902-1.9 1.875-2.853-.057-5.707-.017-8.56-.017zm-38.006.002c-2.764 0-5.53-.054-8.293.022-1.526.042-2.279-.35-2.253-2.077.08-5.44.06-10.882.002-16.321-.017-1.519.575-2.02 2.051-2.007a755.91 755.91 0 0 0 16.853-.005c1.673-.023 2.146.642 2.127 2.215a618.008 618.008 0 0 0 .004 16.053c.023 1.654-.603 2.194-2.2 2.144-2.76-.087-5.526-.024-8.291-.024zm155.47 105.452c-.006-3.025.045-6.051-.029-9.076-.033-1.43.348-2.104 1.93-2.082 5.07.072 10.143.065 15.212.005 1.683-.019 2.125.76 2.114 2.284a1125.3 1125.3 0 0 0 .001 17.882c.014 1.587-.551 2.232-2.18 2.211a685.398 685.398 0 0 0-15.212-.003c-1.39.014-1.885-.507-1.857-1.88.065-3.113.02-6.227.02-9.341zm-180.73-83.85c-3.47-.002-6.94-.05-10.408.022-1.454.03-2.056-.389-2.034-1.955.076-5.426.062-10.852.007-16.28-.013-1.355.404-1.895 1.817-1.885 7.027.049 14.054.036 21.082.012 1.153-.005 1.832.251 1.826 1.608a957.284 957.284 0 0 0 .064 17.079c.023 1.6-.989 1.392-1.949 1.394-3.468.01-6.938.004-10.406.004zm88.437 0c-3.47 0-6.94-.022-10.408.011-1.207.01-1.965-.079-1.928-1.696.121-5.424.114-10.853.045-16.278-.02-1.619.496-2.162 2.13-2.145 6.85.072 13.699.078 20.547-.002 1.692-.02 2.098.615 2.074 2.185-.077 5.247-.103 10.498.01 15.744.04 1.839-.662 2.26-2.332 2.21-3.377-.1-6.76-.03-10.138-.03zm112.665 186.798c.002-5.517-.022-5.327 5.56-4.632 8.817 1.1 17.671 1.935 26.511 2.845 4.158.428 8.32.81 12.486 1.137 1.505.119 1.98.86 1.943 2.26-.054 2.051-.121 4.111.016 6.154.133 1.983-.7 2.463-2.522 2.26-7.514-.842-15.037-1.602-22.554-2.4-5.838-.622-11.666-1.337-17.513-1.86-3.92-.35-3.93-.231-3.927-4.158v-1.606zM256.605 175.572c3.384-.002 6.769.058 10.15-.03 1.508-.039 2.007.46 1.984 1.983a624.962 624.962 0 0 0-.012 16.294c.017 1.493-.47 2.037-1.987 2.024-6.945-.055-13.889-.05-20.833-.003-1.4.008-1.86-.52-1.848-1.883.047-5.52.05-11.041-.006-16.562-.015-1.398.496-1.87 1.87-1.844 3.559.064 7.122.02 10.682.02zm-78.573-.022c1.385-.025 2.123.26 2.1 1.89-.08 5.519-.062 11.04-.012 16.56.012 1.406-.535 1.847-1.892 1.839-6.945-.043-13.89-.054-20.834.005-1.563.013-1.957-.621-1.941-2.068.057-5.431.068-10.863-.017-16.294-.025-1.58.578-1.969 2.031-1.937 3.47.076 6.943.025 10.416.025 3.383 0 6.766.04 10.15-.02zm78.4 108.628c-3.474-.002-6.948-.057-10.418.024-1.525.035-2.02-.532-2.003-2.022.058-5.432.072-10.866-.005-16.297-.025-1.688.658-2.11 2.219-2.096 6.767.06 13.536.086 20.303-.013 1.827-.027 2.258.636 2.23 2.325-.082 5.254-.111 10.511.02 15.763.05 1.958-.668 2.415-2.464 2.35-3.29-.12-6.588-.034-9.883-.034zm-88.665 0c-3.385 0-6.77-.057-10.152.025-1.536.037-2.242-.316-2.21-2.054a456.38 456.38 0 0 0 .01-16.297c-.03-1.73.678-2.077 2.213-2.065 6.768.06 13.536.058 20.304.002 1.537-.013 2.265.364 2.24 2.073a536.647 536.647 0 0 0 .003 16.298c.029 1.746-.746 2.075-2.257 2.04-3.381-.075-6.768-.023-10.151-.023zm-.111-64.607c3.38 0 6.764.058 10.143-.025 1.585-.039 2.227.457 2.202 2.123-.076 5.34-.07 10.68-.002 16.02.022 1.602-.502 2.194-2.146 2.178-6.763-.068-13.526-.065-20.29-.002-1.59.015-2.21-.464-2.186-2.125.08-5.34.074-10.681.001-16.02-.023-1.602.476-2.226 2.133-2.179 3.378.097 6.762.03 10.145.03zm88.855 0c3.383 0 6.767.065 10.145-.028 1.643-.046 2.167.55 2.144 2.166a561.528 561.528 0 0 0 0 16.02c.024 1.648-.57 2.152-2.175 2.137-6.762-.065-13.526-.066-20.29 0-1.631.016-2.18-.55-2.158-2.166.071-5.34.075-10.68 0-16.02-.024-1.652.592-2.175 2.189-2.134 3.38.085 6.763.025 10.145.025zM151.03 197.414c1.78-.057 2.28.577 2.248 2.298a458.29 458.29 0 0 0-.005 15.48c.025 1.64-.332 2.393-2.186 2.37-7.294-.09-14.59-.082-21.884-.001-1.692.018-2.119-.616-2.098-2.18.068-5.249.093-10.5-.014-15.747-.036-1.816.627-2.27 2.323-2.218 3.555.108 7.117.033 10.676.033 3.646 0 7.296.082 10.94-.035zm132.865 20.112c-3.647 0-7.296-.048-10.944.023-1.459.028-2.06-.414-2.041-1.966.07-5.427.06-10.855.005-16.282-.014-1.38.454-1.879 1.845-1.87 7.474.043 14.948.046 22.422-.012 1.383-.01 1.899.423 1.887 1.818a925.714 925.714 0 0 0-.002 16.55c.014 1.472-.664 1.779-1.962 1.76-3.735-.057-7.473-.02-11.21-.02zm-27.404 44.742c-3.47 0-6.94-.057-10.408.024-1.727.039-2.375-.62-2.355-2.345a700.7 700.7 0 0 0 .001-16.014c-.017-1.648.469-2.445 2.27-2.427 6.85.06 13.702.057 20.55.002 1.769-.015 2.312.724 2.292 2.406a597.165 597.165 0 0 0 .007 16.28c.025 1.696-.66 2.134-2.216 2.099-3.38-.08-6.76-.025-10.141-.025zm-98.966.026c-1.585.038-2.216-.455-2.192-2.123.079-5.426.074-10.854.006-16.28-.022-1.704.57-2.397 2.314-2.383 6.85.055 13.7.047 20.55.004 1.572-.01 2.257.552 2.243 2.177-.05 5.427-.06 10.855.005 16.28.02 1.746-.67 2.361-2.377 2.323-3.467-.08-6.938-.024-10.408-.024-3.38 0-6.762-.06-10.14.026zm137.15 1.488c1.627-.04 2.442.295 2.407 2.176a437.292 437.292 0 0 0-.001 16.046c.032 1.819-.685 2.259-2.37 2.24-7.22-.082-14.44-.097-21.66-.035-1.652.014-2.149-.541-2.125-2.156a477.74 477.74 0 0 0-.003-16.047c-.033-1.825.674-2.27 2.359-2.224 3.562.103 7.13.031 10.696.031 3.565-.003 7.133.058 10.696-.03zm-154.486 20.433c-3.565 0-7.132-.064-10.696.028-1.655.041-2.429-.364-2.395-2.214.097-5.348.1-10.699 0-16.046-.034-1.853.73-2.219 2.384-2.203 7.13.07 14.263.07 21.393.007 1.637-.016 2.422.322 2.385 2.193-.108 5.348-.11 10.7.003 16.047.04 1.881-.743 2.221-2.376 2.18-3.565-.092-7.132-.029-10.698-.029v.037zm-11.026-44.343c-1.655.042-2.17-.578-2.147-2.177.066-5.253.06-10.508.004-15.761-.018-1.697.603-2.4 2.346-2.387 7.212.054 14.425.057 21.635 0 1.572-.013 2.23.428 2.205 2.11a569.508 569.508 0 0 0-.004 16.029c.02 1.597-.48 2.224-2.137 2.18-3.648-.093-7.301-.028-10.95-.028-3.652.004-7.305-.06-10.952.034zm154.913-.029c-3.651-.005-7.303-.067-10.95.023-1.642.041-2.171-.562-2.149-2.172.072-5.342.077-10.686-.003-16.028-.025-1.67.614-2.133 2.197-2.12 7.211.059 14.425.055 21.636.001 1.735-.013 2.37.674 2.353 2.378-.057 5.253-.086 10.508.014 15.76.035 1.875-.791 2.223-2.414 2.184-3.56-.084-7.123-.026-10.684-.026zm-143.99 1.686c3.558 0 7.118.067 10.674-.03 1.751-.047 2.575.358 2.531 2.345-.118 5.424-.083 10.853-.013 16.279.02 1.613-.524 2.186-2.155 2.172-7.294-.063-14.588-.05-21.882-.01-1.587.009-2.238-.59-2.223-2.2.05-5.427.062-10.854-.007-16.28-.022-1.778.727-2.33 2.401-2.297 3.557.07 7.117.02 10.674.02zm143.667 20.74c-3.558 0-7.118-.059-10.675.025-1.61.037-2.198-.516-2.176-2.152a604.45 604.45 0 0 0-.003-16.547c-.025-1.706.695-2.101 2.235-2.09 7.205.053 14.412.068 21.616-.006 1.917-.019 2.448.771 2.422 2.555-.075 5.248-.08 10.5.002 15.748.028 1.844-.619 2.544-2.479 2.495-3.646-.097-7.294-.029-10.942-.029zm49.804 32.146c-3.834.005-7.672-.057-11.506.034-1.645.038-2.412-.328-2.37-2.193.11-5.172.076-10.347.012-15.52-.018-1.482.45-2.047 1.983-2.036 7.849.056 15.698.048 23.547.007 1.58-.009 2.253.55 2.236 2.183a625.313 625.313 0 0 0 .007 15.253c.024 1.77-.707 2.333-2.403 2.297-3.834-.08-7.67-.025-11.506-.025zm15.035-20.352c0-4.189.064-8.38-.033-12.567-.04-1.685.398-2.401 2.22-2.364 4.9.101 9.803.08 14.704.011 1.733-.024 2.355.63 2.345 2.356-.054 8.467-.045 16.934-.006 25.401.007 1.596-.598 2.234-2.208 2.217-4.99-.055-9.982-.076-14.972.012-1.713.03-2.102-.69-2.075-2.232.072-4.277.025-8.556.025-12.834zm37.196-35.77c4.813 0 9.628.066 14.441-.035 1.794-.038 2.546.403 2.499 2.36-.12 5.08-.085 10.164-.013 15.245.022 1.6-.478 2.183-2.135 2.173a2602.98 2602.98 0 0 0-29.42-.01c-1.544.006-2.256-.357-2.227-2.076a489.1 489.1 0 0 0 .004-15.512c-.022-1.61.487-2.196 2.141-2.168 4.902.086 9.806.031 14.71.031v-.008zm-200.406 1.664c-2.27.031-2.884-.704-2.822-2.891.145-5.074.102-10.156.014-15.234-.03-1.713.49-2.312 2.265-2.351 7.502-.168 7.502-.222 7.5 7.253 0 5.135 0 5.135 5.035 5.135 10.602 0 21.204-.055 31.805.047 2.144.02 2.828-.649 2.7-2.745-.16-2.575-.003-5.166-.055-7.75-.028-1.35.478-2.019 1.87-1.898.177.016.357.003.535-.002 7.343-.185 7.343-.185 7.343 7.09 0 3.296-.162 6.603.052 9.886.17 2.612-.475 3.552-3.328 3.484-8.726-.208-17.46-.076-26.19-.076-8.909.003-17.818-.07-26.724.052zm163.21 92.522c-.001-5.43.057-10.863-.035-16.292-.03-1.778.39-2.547 2.35-2.496 4.803.124 9.613.098 14.42.01 1.835-.034 2.515.59 2.504 2.46-.058 10.95-.056 21.902.001 32.852.011 1.723-.523 2.354-2.292 2.32a388.069 388.069 0 0 0-14.687 0c-1.744.033-2.322-.547-2.294-2.295.088-5.518.033-11.04.033-16.56zm54.12 66.488c.046 1.691-.643 2.215-2.22 2.046-7.825-.836-15.65-1.638-23.475-2.466-2.031-.215-4.052-.631-6.084-.687-1.756-.048-2.004-.9-1.99-2.365.052-5.79.084-11.581-.013-17.37-.029-1.81.648-2.249 2.337-2.24 9.709.06 19.416.059 29.126-.01 1.706-.012 2.388.452 2.329 2.25-.116 3.47-.034 6.946-.034 10.42-.004 3.474-.069 6.95.024 10.422zM386.077 259.24c4.72-.006 9.441.066 14.16-.043 1.768-.04 2.553.315 2.521 2.305-.109 6.678-.083 13.36-.013 20.039.018 1.684-.44 2.36-2.247 2.347-9.794-.074-19.59-.065-29.387-.013-1.62.009-2.172-.529-2.156-2.155a916.32 916.32 0 0 0-.008-20.306c-.024-1.878.831-2.216 2.436-2.196 4.898.062 9.796.022 14.694.022zm-18.273 116.07c0 6.5-.07 13.002.04 19.502.034 2.02-.598 2.727-2.604 2.491a553.233 553.233 0 0 0-15.096-1.574c-1.807-.161-1.547-1.354-1.55-2.485-.008-7.036-.006-14.07-.006-21.107 0-5.699.054-11.399-.03-17.097-.025-1.72.489-2.352 2.265-2.315 4.807.097 9.618.117 14.424-.009 1.978-.051 2.633.535 2.599 2.557-.112 6.678-.042 13.358-.042 20.037zm17.975-26.172c4.811 0 9.623.062 14.434-.033 1.769-.035 2.546.365 2.516 2.344-.105 7.038-.076 14.078-.017 21.117.014 1.595-.477 2.193-2.133 2.182-9.8-.06-19.602-.054-29.403-.011-1.523.007-2.26-.337-2.242-2.065.074-7.129.068-14.257 0-21.386-.014-1.618.5-2.19 2.144-2.162 4.899.084 9.8.03 14.701.03v-.016zm.071-1.178c-4.903-.004-9.808-.052-14.712.024-1.576.025-2.206-.408-2.19-2.098.078-7.4.069-14.803.008-22.204-.013-1.553.576-1.97 2.043-1.964 9.897.042 19.794.039 29.693-.01 1.465-.007 2.06.424 2.049 1.968-.057 7.4-.065 14.803.005 22.204.016 1.666-.58 2.137-2.183 2.11-4.901-.083-9.807-.03-14.713-.03zm-38.412 41.978c.004 5.08-.045 10.158.032 15.236.026 1.74-.434 2.342-2.305 2.117a856.684 856.684 0 0 0-23.044-2.48c-1.762-.165-2.463-.582-2.446-2.484.09-9.266.083-18.533.005-27.799-.017-1.861.546-2.451 2.425-2.429a956.09 956.09 0 0 0 22.718.006c1.959-.022 2.69.595 2.65 2.597-.103 5.077-.035 10.157-.035 15.236zm-.338-134.066c0 5.17-.043 10.34.025 15.51.02 1.587-.473 2.21-2.131 2.198-7.754-.063-15.508-.056-23.262-.005-1.476.01-2.046-.452-2.04-1.983a3024.16 3024.16 0 0 0-.006-31.288c-.01-1.717.704-2.086 2.237-2.075 7.666.05 15.33.073 22.996-.009 1.866-.02 2.227.782 2.205 2.41-.068 5.08-.024 10.162-.024 15.242zm-27.384 96.388c0-5.345.046-10.69-.028-16.034-.022-1.61.49-2.177 2.14-2.162 7.748.069 15.497.067 23.245.004 1.997-.016 2.31.888 2.245 2.65-.392 10.678-.352 21.362-.012 32.04.053 1.681-.363 2.27-1.989 2.265-7.839-.029-15.677-.05-23.515.015-1.68.014-2.13-.636-2.111-2.21.066-5.521.025-11.045.025-16.568zm49.23-64.221c-.034-1.86.38-2.731 2.494-2.71 9.72.09 19.443.067 29.163.004 1.65-.011 2.148.557 2.14 2.166-.053 10.167-.059 20.335.004 30.503.011 1.754-.553 2.277-2.308 2.262-9.63-.079-19.263-.087-28.894.001-1.952.018-2.667-.465-2.609-2.527.142-4.99.046-9.989.046-14.983-.006-4.905.055-9.812-.036-14.716zm-156.797-25.77c-9.01.001-18.019-.051-27.029.04-1.997.022-2.63-.585-2.583-2.589a363.7 363.7 0 0 0 .007-15.79c-.037-1.882.593-2.441 2.455-2.435 18.02.056 36.039.062 54.059-.006 2-.007 2.628.588 2.582 2.589a362.153 362.153 0 0 0-.006 15.789c.038 1.885-.596 2.453-2.456 2.437-9.008-.077-18.018-.035-27.029-.035zm173.811-25.155c-4.816 0-9.632-.075-14.445.037-2.023.045-2.601-.717-2.586-2.66.075-9.185.078-18.372-.003-27.557-.016-1.839.57-2.342 2.398-2.53 13.971-1.437 27.93-3 41.888-4.571 1.682-.19 2.284.435 2.249 2.044-.05 2.228-.017 4.459-.008 6.688.003.948-.045 1.88-1.33 1.843-3.018-.087-5.813 1.59-8.9 1.044-1.957-.346-2.62.558-2.587 2.563.111 6.865-.022 13.735.094 20.6.035 2.025-.603 2.608-2.591 2.552-4.724-.132-9.452-.042-14.179-.042zm-42.469.051c-7.13 0-14.26-.058-21.389.037-1.891.026-2.443-.598-2.422-2.451.087-7.575.07-15.153.008-22.728-.013-1.555.431-2.151 2.064-2.309 9.73-.943 19.45-1.987 29.17-3.038 4.328-.47 8.645-1.03 12.967-1.555 3.364-.41 3.526-.28 3.528 3.017.002 8.825-.053 17.649.04 26.471.023 1.99-.574 2.626-2.578 2.597-7.128-.104-14.258-.04-21.388-.04zm71.917-41.752c.404 2.836-1.324 3.586-3.502 3.652-12.841.391-25.502 2.549-38.254 3.808-17.1 1.69-34.18 3.61-51.257 5.537-2.1.237-2.744-.167-2.74-2.36.012-6.24-.436-12.465-1.423-18.633-.26-1.63.157-2.305 1.803-2.805 29.141-8.862 58.27-17.766 87.366-26.776 2.093-.648 2.244.45 2.607 1.738 2.882 10.242 4.65 20.671 5.362 31.304 0 1.514-.174 3.052.038 4.535zm-203.183-61.068c16.06 0 32.117.044 48.176-.047 2.37-.014 3.246.529 3.203 3.085-.156 9.008-.12 18.022-.02 27.032.023 2.11-.61 2.741-2.725 2.728-13.203-.082-26.407.02-39.609-.08-2.454-.018-3.237.7-3.217 3.183.112 12.579.103 25.159.02 37.739-.015 2.237.72 3.044 2.928 2.886 2.04-.146 4.104.037 6.152-.044 1.581-.063 2.242.482 2.217 2.145a475.637 475.637 0 0 0 0 14.72c.028 1.717-.755 2.09-2.274 2.085-9.99-.039-19.983-.04-29.975 0-1.523.006-2.295-.373-2.268-2.087.077-4.906.074-9.815 0-14.721-.025-1.66.637-2.199 2.219-2.143 2.316.08 4.64-.024 6.958.024 1.472.03 2.087-.59 2.084-2.07-.02-13.204-.025-26.408.008-39.613.004-2.209-1.442-2.058-2.913-2.056-12.846.003-25.693.011-38.538-.015-4.48-.01-3.994.45-4.01-4.026-.03-8.476.121-16.954-.082-25.426-.066-2.839.89-3.373 3.493-3.355 16.057.11 32.116.056 48.173.056zm203.203 285.078c-.688 16.68-3.52 32.588-8.277 48.167-3.867 12.669-8.983 24.775-15.904 36.104-1.172 1.919-2.07 2.065-3.959.886a20230.923 20230.923 0 0 0-76.556-47.505c-1.622-1.002-1.962-1.866-1.217-3.616 5.408-12.717 8.649-25.997 10.002-39.737.175-1.772.256-3.567.177-5.343-.08-1.84.663-2.288 2.39-2.09 5.75.66 11.513 1.199 17.268 1.802 11.512 1.206 23.02 2.436 34.534 3.632 12.662 1.315 25.331 2.577 37.99 3.919 3.585.38 3.575.472 3.552 3.781zM203.053 8.991c26.514.228 54.537 4.386 81.575 14.439 2.25.837 1.588 1.676 1.055 3.037-6.616 16.837-13.174 33.697-19.868 50.503-.846 2.13-.696 3.265 1.406 4.421 3.822 2.105 7.435 4.588 11.23 6.748 1.462.834 1.5 1.476.71 2.856-4.914 8.588-9.789 17.2-14.528 25.886-.93 1.708-1.71 1.431-3.118.826-30.565-13.129-61.604-13.341-92.943-3.143-2.325.757-3.28.631-4.36-1.686a456.193 456.193 0 0 0-10.36-20.825c-1.146-2.167-.542-2.994 1.297-4.053 3.628-2.09 7.104-4.442 10.696-6.6 1.338-.804 1.79-1.545 1.177-3.19-7.254-19.454-14.416-38.943-21.623-58.417-1.17-3.157-1.221-3.16 2.258-4.052 12.042-3.083 24.192-5.393 36.65-6.143 5.517-.332 11.023-.495 18.746-.607zm205.541 146.04c.241 1.691-1.118 1.504-1.912 1.751-9.277 2.874-18.572 5.693-27.86 8.536-19.597 5.997-39.202 11.973-58.777 18.046-1.792.555-2.343.256-2.945-1.527-9.03-26.74-25.122-47.76-50.198-61.372-1.755-.952-2.217-1.594-1.115-3.498 5.045-8.716 9.88-17.554 14.893-26.29.852-1.485.773-2.157-.759-3.038-4.015-2.31-7.876-4.891-11.888-7.21-1.51-.873-1.582-1.689-.987-3.2 6.7-16.995 13.35-34.008 19.937-51.046.583-1.507 1.159-1.54 2.498-1.003 33.815 13.57 61.816 34.819 84.01 63.688 14.725 19.155 26.385 40 34.104 62.964.369 1.097.691 2.21 1 3.2zm-300.35 93.73c0-12.312-.148-24.627.048-36.935.155-9.577.754-19.139 2.573-28.591 1.546-8.031 4.676-15.433 8.605-22.524 5.37-9.693 11.846-18.575 20.242-25.882 6.048-5.264 12.828-9.431 19.953-13.18 6.585-3.462 13.548-5.793 20.638-7.415 9.136-2.089 18.438-3.326 27.928-3.54 12.167-.275 24.09 1.079 35.785 3.968 13.78 3.404 26.156 9.788 37.236 18.878 8.224 6.746 14.888 14.74 20.714 23.447 4.438 6.63 7.78 13.886 10.837 21.323 3.114 7.574 3.407 15.372 3.612 23.237.233 8.955.055 17.919.055 26.878V365.5c0 11.022-.003 22.044.003 33.066.002 3.616.26 7.214.192 10.853-.165 8.919-2.317 17.394-4.256 25.955-1.474 6.51-3.868 12.75-6.184 18.964-1.662 4.46-4.948 8.186-8.395 11.555-2.024 1.98-3.702 4.361-6.335 5.685-1.608.808-2.903.776-4.348-.546-4.261-3.897-8.671-7.63-12.99-11.466-3.274-2.908-3.3-4.55-.26-7.706 6.745-7 11.792-15.03 15.27-24.143 2.715-7.12 3.888-14.491 4.894-21.972.659-4.903.428-9.782.436-14.667.049-33.189.04-66.378-.01-99.567-.003-2.22.464-4.084 2.26-5.414 2.991-2.214 3.425-5.472 3.635-8.784.14-2.22.334-4.51-.032-6.678-1.007-5.965-.032-11.884.074-17.818.059-3.3-.177-6.57-.541-9.842-.366-3.303.387-6.557.55-9.838.234-4.732-.47-9.414-.56-14.124-.088-4.63.676-9.212.593-13.857-.123-6.876-2.756-12.214-8.093-16.604-5.351-4.405-10.666-8.841-16.48-12.61-3.073-1.993-6.634-2.887-10.224-3.572-1.113-.212-2.51-.206-3.026-1.375-.613-1.386.779-2.081 1.586-2.776 2.6-2.233 2.262-5.381 2.374-8.182.264-6.59.15-13.2.066-19.802-.082-6.403-2.843-8.608-9.194-9.195-4.337-.4-8.66-.016-12.942-.088-3.79-.064-7.737-.094-11.586.004-4.446.113-8.984.04-13.46-.027-3.828-.057-7.736-.423-11.587.122-.528.074-1.094.219-1.592.107-4.284-.963-8.652-.18-12.931-.217-3.81-.034-7.745-.036-11.586.003-4.464.044-8.97.175-13.47-.031-6.085-.277-10.738 1.47-10.77 9.001-.03 8.185-.558 16.386.438 24.564.229 1.884 1.337 3.019 2.498 4.257.637.679 1.906 1.2 1.53 2.295-.386 1.117-1.753 1.188-2.757 1.297-3.415.372-6.607 1.397-9.643 2.943-5.995 3.054-10.82 7.725-16.087 11.778-2.877 2.216-5.617 4.616-7.419 7.917-3.184 5.83-2.498 12.112-2.116 18.298.202 3.294.339 6.52-.022 9.816-.477 4.342-.46 8.743-.024 13.08.341 3.388.35 6.688 0 10.075-.404 3.887-.44 7.831.073 11.735a36.056 36.056 0 0 1-.002 9.299c-.52 4.078-.395 8.19-.085 12.27.218 2.853 1.649 5.185 3.935 7.003 1.786 1.423 2.838 3.135 1.877 5.598-.304.778-.088 1.765-.09 2.657-.002 33.812-.131 67.627.054 101.439.09 16.337 3.579 31.86 12.65 45.826 3.022 4.654 2.637 4.336-.86 7.614-4.311 4.041-8.378 8.366-12.953 12.135-2.785 2.292-3.96 2.333-6.195-.367-7.485-9.048-11.92-19.344-13.13-31.115-.459-4.461-.298-8.887-.437-13.328-.774-24.688-.504-49.383-.55-74.077-.009-5.198-2.576-7.708-8-7.764-6.42-.066-12.845-.01-19.268-.02-3.346-.004-4.822-1.465-4.831-4.893-.027-9.011-.028-18.022-.001-27.033.011-4.145.917-5.009 4.994-5.01 5.264-.001 10.529.057 15.79-.031 1.851-.03 3.738-.239 5.534-.67 4.249-1.02 5.78-3.291 5.785-8.326.016-13.471.005-26.944.005-40.415zm-1.124-64.134c-.5 6.021-1.397 12.04-1.432 18.064-.172 29.43-.115 58.864-.138 88.296-.002 3.46-.004 3.467-3.462 3.468-8.74.002-17.48.06-26.218-.046-2.14-.026-2.94.464-2.921 2.784.109 12.753.094 25.508.01 38.261-.014 2.229.712 2.927 2.917 2.902 8.918-.097 17.838.044 26.755-.097 2.375-.039 2.978.635 2.974 2.99-.06 27.113-.07 54.227.072 81.339.03 5.769.83 11.523 1.656 17.247 2.362 5.178 3.919 10.703 7.007 15.578 2.73 4.31 5.778 8.351 9.052 12.25 1.164 1.385 1.923 1.267 3.177.096a2242.14 2242.14 0 0 1 21.658-19.925c1.028-.936 1.04-1.539.188-2.614-10.609-13.398-15.346-28.872-15.417-45.755-.152-36.75-.042-73.502-.113-110.254-.003-2.153.662-2.687 2.742-2.686 51.107.052 102.216.049 153.325.005 1.826-.001 2.453.456 2.45 2.371-.063 37.287.184 74.576-.173 111.859-.201 21.013-7.813 39.147-23.753 53.344-1.327 1.18-1.634 1.852-.08 3.244 6.843 6.129 13.577 12.379 20.261 18.678 1.296 1.22 2.1 1.317 3.505.161 6.166-5.064 12.01-10.425 16.078-17.383 1.288-2.203 2.384-1.044 3.624-.276 10.536 6.528 21.061 13.075 31.594 19.607 14.853 9.208 29.697 18.431 44.586 27.581 1.714 1.053 2.26 1.917 1.008 3.742-13.106 19.118-27.459 37.124-45.316 52.126-20.284 17.04-43.517 28.066-69.187 34.03-32.75 7.61-65.921 10.08-99.335 6.12-26.909-3.192-51.603-12.98-74.2-27.886-33.593-22.158-59.502-51.115-76.692-87.641-2.843-6.04-5.454-12.21-6.839-18.803-2.217-3.456-2.683-7.47-3.534-11.344-2.352-10.71-3.354-21.572-3.9-32.52-.276-5.526-.305-11.035-.308-16.548-.034-67.137-.197-134.274.102-201.409.074-16.441 1.79-32.861 7.396-48.572-.318-2.147.53-4.153 1.201-6.028 2.658-7.448 5.426-14.869 8.516-22.146 3.164-7.45 6.736-14.712 10.818-21.737 4.756-8.183 9.68-16.24 15.297-23.855 8.693-11.788 18.358-22.66 29.502-32.249 10.638-9.154 22.133-16.944 34.64-23.24 7.912-3.983 16.122-7.272 24.574-9.982 2.033-.652 2.667-.042 3.276 1.626 3.11 8.536 6.266 17.057 9.411 25.58 3.944 10.7 7.82 21.424 11.9 32.07.82 2.142.395 3.12-1.48 4.203-3.626 2.092-7.06 4.513-10.674 6.627-1.636.959-1.943 1.725-1.014 3.506 3.96 7.579 7.71 15.267 11.602 22.883.665 1.3.622 1.86-.862 2.527-29.512 13.235-47.476 36.071-55.572 67.07-.068.259-.169.508-.254.76zm218.255 148.02c-5.662.695-5.662.695-5.662-4.948v-28.554c0-3.587 0-3.593 3.566-3.543.708.01 1.415.09 2.123.138 6.681-.055 13.362-.088 20.043-.176 1.536-.02 2.007.704 2.003 2.125-.022 11.053-.017 22.106-.004 33.16.001 1.247-.335 2.104-1.778 2.07-6.764-.16-13.534.348-20.291-.271zM201.677 284.09c-5.701.028-11.404.022-17.104.113-1.489.024-2.036-.442-2.016-1.977.072-5.524.043-11.05.019-16.574-.006-1.14.214-1.887 1.59-1.845 5.873.179 11.755-.28 17.62.259.168-1.151.975-1.292 1.939-1.29 6.272.015 12.545.009 18.818.009.802 0 1.65-.078 1.802 1.044 4.993-.005 9.989.054 14.98-.048 1.733-.035 2.334.49 2.302 2.258a475.394 475.394 0 0 0-.001 16.051c.025 1.654-.54 2.14-2.155 2.12-4.99-.058-9.982.028-14.974.057-.696.957-1.654 1.146-2.79 1.138-5.837-.04-11.675-.017-17.513-.022-1.053 0-2.207.165-2.517-1.293zM5.47 319.527c.906 31.894-1.384 71.488 1.022 111.046.436 7.19 1.478 14.286 2.558 21.374 1.262 8.285 4.198 16.127 6.987 24.017 3.595 10.167 8.43 19.702 13.83 28.968 5.281 9.064 11.508 17.5 17.874 25.826 4.047 5.29 8.611 10.158 13.341 14.797 3.565 3.496 7.261 6.936 10.868 10.382 6.333 6.048 13.482 10.985 20.369 16.23 5.821 4.436 12.259 8.13 18.708 11.724 9.203 5.126 18.844 9.271 28.707 12.79a148.048 148.048 0 0 0 24.953 6.536c10.512 1.786 21.006 3.488 31.717 3.353 6.153-.077 12.312.061 18.465-.042 3.726-.062 7.462-.262 11.169-.645a868.986 868.986 0 0 0 21.902-2.56c5.358-.691 10.805-1.137 16.008-2.482 8.065-2.083 16.216-3.765 24.207-6.296 8.916-2.826 17.591-6.159 25.788-10.443 12.188-6.37 23.805-13.702 33.874-23.32 4.939-4.719 10.156-9.158 14.806-14.17 8.287-8.936 15.617-18.64 22.834-28.445 2.289-3.107 3.767-6.65 5.966-9.726 6.31-8.822 10.893-18.567 14.675-28.586 4.128-10.933 7.533-22.17 9.293-33.814 1.38-9.125 3.072-18.204 2.822-27.506-.078-2.918-.189-5.842.278-8.79.717-4.548-2.968-8.842-7.602-9.286-4.017-.385-5.023-1.5-5.026-5.604-.005-8.081-.002-16.164-.002-24.247v-91.747c0-8.975.065-17.95-.025-26.925-.05-4.797-.342-9.638-.239-14.387.12-5.595.107-11.206.234-16.807.133-5.75.026-5.772 5.612-7.144 3.699-.908 6.037-2.937 6.904-6.867.472-2.137-.3-4.025-.23-6.055.286-8.186-.41-16.298-1.434-24.446-1.163-9.257-4.017-18.054-6.804-26.777-3.752-11.738-9.249-22.837-15.301-33.66-3.392-6.065-6.99-11.975-10.87-17.698-8.035-11.855-17.127-22.839-27.379-32.91-7.258-7.13-15.066-13.558-23.222-19.533-8.733-6.397-18.12-11.826-27.81-16.696-5.878-2.953-12.07-5.131-18.138-7.623-6.69-2.745-13.517-4.982-20.44-6.843-7.612-2.045-15.314-3.777-23.133-5.07-10.08-1.666-20.21-2.95-30.363-3.374-14.563-.608-29.148-.307-43.64 1.962a200.448 200.448 0 0 0-33.51 8.251 154.171 154.171 0 0 0-30.328 14.145c-6.165 3.733-12.234 7.565-17.833 12.11-4.037 3.275-8.193 6.342-11.86 10.14-1.969 2.04-4.58 3.841-6.638 5.918-3.975 4.012-7.703 8.28-11.336 12.64C51 79.7 44.692 88.717 38.947 98.107c-5.174 8.452-9.85 17.186-13.877 26.294-3.597 8.135-7.126 16.293-9.729 24.77-2.782 9.058-5.659 18.085-6.91 27.603-1.399 10.654-2.822 21.31-2.886 32.03-.202 34.35-.075 68.7-.075 110.722z"/><path fill="#4775e4" d="M214.745 486.71c0-3.567.074-7.137-.033-10.702-.052-1.735.324-2.523 2.292-2.592 13.032-.45 25.345-3.713 36.878-9.817 1.05-.556 1.714-.471 2.572.325 6.929 6.425 13.863 12.848 20.875 19.185 1.903 1.718.326 2.081-.798 2.684-12.152 6.512-25.146 10.449-38.72 12.577-6.788 1.064-13.62 1.62-20.493 1.783-1.942.045-2.713-.38-2.618-2.475.164-3.65.045-7.31.045-10.967zm-12.283-.11c0 3.746-.05 7.493.025 11.237.03 1.516-.257 2.488-2.04 2.117-1.967-.41-2.607.57-2.983 2.368-1.384 6.63-2.924 13.226-4.398 19.838-.261 1.173-.373 2.262-2.177 1.72-10.67-3.198-21.39-6.216-31.621-10.734-2.435-1.076-2.947-2.014-1.54-4.43 2.42-4.154 4.387-8.567 6.7-12.788.893-1.633.587-2.247-1.116-2.812-9.713-3.217-18.744-7.765-27.04-13.805-1.958-1.425-1.867-2.143-.167-3.672 6.892-6.202 13.689-12.51 20.448-18.855 1.229-1.152 2.003-1.183 3.34-.132 11.799 9.293 25.343 14.337 40.153 16.152 1.867.23 2.562.86 2.466 2.83-.175 3.648-.05 7.31-.05 10.966zm-95.128-46.765zm0 0c-13.34 4.117-26.67 8.258-40.017 12.345-15.814 4.843-31.642 9.645-47.469 14.447-1.097.333-2.24.52-3.363.776 1.383 6.594 3.995 12.764 6.837 18.803 17.19 36.526 43.099 65.484 76.692 87.642 22.598 14.906 47.291 24.694 74.2 27.885 33.414 3.961 66.585 1.49 99.335-6.119 25.671-5.964 48.904-16.99 69.187-34.03 17.858-15.002 32.21-33.008 45.315-52.126 1.253-1.826.706-2.69-1.006-3.742-14.89-9.15-29.734-18.374-44.586-27.582-10.534-6.53-21.059-13.077-31.595-19.606-1.24-.768-2.336-1.927-3.624.276-4.068 6.958-9.913 12.318-16.078 17.383-1.406 1.156-2.21 1.06-3.504-.161-6.686-6.3-13.419-12.549-20.26-18.678-1.556-1.392-1.248-2.064.078-3.244 15.94-14.198 23.552-32.331 23.754-53.344.357-37.283.109-74.572.172-111.859.003-1.915-.625-2.372-2.451-2.372-51.108.045-102.216.048-153.324-.003-2.08-.003-2.745.532-2.741 2.685.07 36.752-.04 73.504.112 110.254.071 16.883 4.808 32.357 15.417 45.755.852 1.075.84 1.678-.189 2.614a2246.296 2246.296 0 0 0-21.657 19.925c-1.254 1.17-2.012 1.29-3.177-.096-3.274-3.9-6.321-7.94-9.052-12.25-3.088-4.875-4.645-10.4-7.006-15.578z"/><path fill="#f40e48" d="M107.333 439.835c-13.339 4.118-26.67 8.258-40.017 12.346-15.815 4.842-31.642 9.644-47.468 14.446-1.098.333-2.241.521-3.364.777-2.22-3.456-2.684-7.47-3.536-11.343-2.351-10.711-3.354-21.572-3.9-32.522-.275-5.525-.303-11.034-.307-16.547-.034-67.136-.197-134.273.102-201.408.074-16.442 1.789-32.862 7.396-48.572l90.88 27.615c-.5 6.022-1.397 12.041-1.432 18.064-.17 29.43-.114 58.864-.137 88.296-.003 3.461-.005 3.467-3.463 3.468-8.74.002-17.48.06-26.217-.046-2.14-.026-2.94.464-2.922 2.785.11 12.752.095 25.507.011 38.26-.015 2.229.712 2.927 2.917 2.903 8.917-.098 17.838.043 26.754-.098 2.376-.038 2.978.635 2.975 2.99-.061 27.113-.07 54.227.07 81.34.031 5.768.831 11.522 1.658 17.246z"/><path fill="#0b010c" d="M108.245 248.76c0-12.31-.148-24.625.048-36.934.154-9.577.754-19.139 2.573-28.59 1.544-8.032 4.676-15.434 8.605-22.525 5.37-9.693 11.846-18.575 20.242-25.882 6.047-5.265 12.827-9.43 19.952-13.18 6.585-3.462 13.548-5.793 20.638-7.414 9.136-2.09 18.438-3.327 27.928-3.542 12.167-.274 24.09 1.08 35.785 3.969 13.78 3.404 26.156 9.788 37.235 18.878 8.226 6.746 14.889 14.741 20.716 23.447 4.437 6.63 7.78 13.886 10.836 21.323 3.114 7.574 3.408 15.372 3.612 23.237.232 8.955.054 17.919.054 26.878.003 13.074.003 26.147.003 39.22V365.5c0 11.022-.005 22.044.001 33.066.002 3.617.26 7.214.193 10.853-.166 8.919-2.318 17.395-4.257 25.955-1.475 6.51-3.868 12.75-6.183 18.964-1.663 4.46-4.948 8.186-8.395 11.555-2.024 1.98-3.702 4.361-6.336 5.685-1.608.808-2.902.776-4.348-.546-4.261-3.897-8.672-7.63-12.99-11.466-3.274-2.908-3.3-4.55-.26-7.705 6.746-7 11.792-15.032 15.27-24.144 2.715-7.12 3.889-14.491 4.894-21.972.66-4.903.428-9.782.435-14.667.05-33.19.042-66.378-.008-99.567-.003-2.22.463-4.084 2.26-5.414 2.99-2.214 3.424-5.472 3.634-8.784.14-2.22.335-4.51-.032-6.679-1.007-5.964-.032-11.883.074-17.817.06-3.3-.176-6.57-.54-9.842-.366-3.302.386-6.557.548-9.838.236-4.732-.47-9.414-.56-14.124-.087-4.63.677-9.212.593-13.857-.122-6.876-2.756-12.214-8.09-16.605-5.354-4.404-10.668-8.84-16.482-12.61-3.073-1.992-6.634-2.887-10.225-3.57-1.111-.213-2.509-.207-3.025-1.375-.613-1.387.78-2.082 1.587-2.777 2.598-2.233 2.261-5.381 2.373-8.181.265-6.592.15-13.202.067-19.802-.082-6.404-2.843-8.61-9.195-9.196-4.336-.4-8.659-.016-12.942-.088-3.79-.064-7.737-.093-11.585.004-4.448.113-8.984.04-13.462-.027-3.827-.057-7.734-.423-11.587.122-.527.074-1.092.219-1.59.107-4.285-.963-8.653-.18-12.932-.217a621.215 621.215 0 0 0-11.585.003c-4.464.044-8.97.174-13.47-.031-6.086-.276-10.74 1.47-10.77 9.001-.032 8.184-.559 16.386.438 24.564.229 1.884 1.336 3.019 2.498 4.257.637.679 1.905 1.199 1.53 2.294-.387 1.119-1.754 1.19-2.757 1.298-3.415.372-6.608 1.397-9.645 2.943-5.995 3.054-10.819 7.725-16.085 11.778-2.878 2.216-5.617 4.616-7.42 7.917-3.184 5.83-2.497 12.112-2.116 18.298.203 3.294.338 6.52-.022 9.816-.476 4.342-.46 8.743-.023 13.081.341 3.387.35 6.687-.001 10.074-.403 3.887-.44 7.832.073 11.735a36.015 36.015 0 0 1-.002 9.299c-.52 4.078-.394 8.19-.084 12.27.217 2.853 1.649 5.186 3.934 7.004 1.786 1.421 2.839 3.134 1.876 5.597-.303.778-.087 1.765-.089 2.657-.002 33.812-.13 67.627.055 101.439.089 16.336 3.578 31.86 12.65 45.826 3.022 4.654 2.636 4.336-.86 7.614-4.313 4.041-8.379 8.366-12.954 12.135-2.784 2.292-3.96 2.333-6.194-.366-7.486-9.049-11.92-19.346-13.131-31.116-.46-4.461-.298-8.887-.438-13.328-.774-24.688-.502-49.384-.547-74.077-.011-5.197-2.579-7.707-8-7.764-6.423-.066-12.847-.01-19.27-.02-3.345-.004-4.822-1.465-4.83-4.893a4535.44 4535.44 0 0 1-.003-27.034c.013-4.143.917-5.008 4.996-5.01 5.264 0 10.528.058 15.789-.03 1.851-.03 3.738-.239 5.535-.67 4.248-1.02 5.778-3.291 5.784-8.326.016-13.471.006-26.943.006-40.416z"/><path fill="#121212" d="M107.119 184.627l-90.88-27.615c-.317-2.148.53-4.155 1.2-6.03 2.658-7.447 5.426-14.868 8.517-22.146 3.163-7.448 6.736-14.71 10.818-21.737 4.755-8.182 9.68-16.239 15.296-23.855 8.694-11.787 18.36-22.658 29.504-32.248 10.636-9.154 22.132-16.945 34.637-23.24 7.913-3.983 16.124-7.272 24.576-9.982 2.033-.651 2.666-.042 3.276 1.626 3.11 8.536 6.266 17.056 9.41 25.58 3.945 10.699 7.821 21.423 11.902 32.07.82 2.142.395 3.12-1.482 4.203-3.626 2.092-7.06 4.513-10.673 6.627-1.637.958-1.942 1.725-1.014 3.506 3.96 7.578 7.71 15.267 11.602 22.883.664 1.3.622 1.86-.863 2.527-29.512 13.235-47.475 36.071-55.571 67.07-.068.259-.17.508-.255.76zM408.594 155.031c.24 1.69-1.118 1.504-1.913 1.75-9.276 2.875-18.572 5.694-27.86 8.537-19.598 5.997-39.202 11.972-58.777 18.045-1.79.556-2.342.256-2.945-1.525-9.028-26.741-25.12-47.76-50.198-61.373-1.754-.952-2.216-1.594-1.114-3.498 5.045-8.716 9.88-17.554 14.892-26.29.852-1.485.774-2.157-.758-3.038-4.016-2.31-7.876-4.891-11.888-7.21-1.511-.873-1.582-1.689-.987-3.2 6.7-16.994 13.35-34.008 19.936-51.046.584-1.508 1.16-1.541 2.5-1.003 33.812 13.57 61.814 34.82 84.009 63.69 14.724 19.154 26.384 39.999 34.102 62.963.37 1.097.692 2.21 1 3.2z"/><path fill="#121212" d="M203.053 8.99c26.514.229 54.537 4.387 81.575 14.44 2.25.837 1.588 1.676 1.053 3.037-6.616 16.837-13.173 33.697-19.865 50.504-.848 2.128-.697 3.264 1.404 4.42 3.823 2.105 7.435 4.588 11.23 6.748 1.462.835 1.5 1.476.71 2.856-4.913 8.588-9.789 17.2-14.527 25.886-.931 1.708-1.71 1.432-3.118.827-30.565-13.13-61.604-13.342-92.944-3.144-2.325.758-3.28.631-4.36-1.686a456.45 456.45 0 0 0-10.359-20.825c-1.147-2.167-.542-2.994 1.296-4.053 3.629-2.09 7.105-4.442 10.697-6.6 1.338-.804 1.79-1.545 1.177-3.19-7.254-19.454-14.416-38.943-21.623-58.416-1.17-3.158-1.222-3.162 2.257-4.052 12.042-3.084 24.192-5.394 36.65-6.144 5.518-.332 11.024-.495 18.747-.607z"/><path fill="#603dbf" d="M415.428 419.422c-.689 16.68-3.52 32.589-8.276 48.167-3.869 12.669-8.984 24.775-15.905 36.104-1.172 1.92-2.07 2.065-3.959.886a20294.83 20294.83 0 0 0-76.555-47.505c-1.623-1.002-1.963-1.866-1.219-3.616 5.41-12.716 8.65-25.996 10.003-39.737.175-1.771.256-3.567.178-5.343-.08-1.84.663-2.288 2.39-2.09 5.748.66 11.511 1.2 17.268 1.803 11.511 1.205 23.02 2.435 34.532 3.632 12.663 1.314 25.332 2.576 37.991 3.918 3.584.38 3.576.472 3.552 3.781z"/><path fill="#020202" d="M201.678 145.11c1.07-.002 2.139-.01 3.208.001.614.006 1.313-.1 1.344.846.025.837-.495 1.149-1.195 1.031-2.4-.404-2.277 1.132-2.227 2.73.056 1.78.05 3.566-.005 5.346-.024.78.473 1.926-1.016 1.99-1.523.068-1.1-1.08-1.115-1.877-.039-2.05-.09-4.103.012-6.147.07-1.437-.279-2.213-1.884-2.04-.688.073-1.552.12-1.56-.938-.01-1.341 1.072-.874 1.767-.927.885-.067 1.78-.016 2.671-.016zm-8.231-.134c.395.056 1.03.075 1.62.247.572.165.852.586.57 1.229-.188.427-.345.763-.952.624-.685-.156-1.404-.262-2.102-.239-.637.023-1.232.334-1.389 1.042-.148.674.104 1.243.725 1.572.706.373 1.44.692 2.158 1.04 1.476.714 2.509 1.772 2.306 3.53-.213 1.856-1.484 2.773-3.207 3.08-.773.137-1.611.216-2.367.058-.77-.16-2.105.038-1.99-1.235.136-1.521 1.315-.62 2.08-.587 1.226.055 2.701.461 3.083-1.218.345-1.514-1.028-1.857-2.088-2.295-1.835-.758-3.485-1.747-2.976-4.088.484-2.235 2.28-2.75 4.529-2.76zm22.205 11.062c.168.917-.282.967-.742 1.022-.968.115-1.505-.342-1.705-1.264-.276-1.274-.616-2.26-2.368-2.155-1.43.086-2.385.246-2.597 1.877-.139 1.074-.738 1.937-1.977 1.466-1.224-.467-.294-1.371-.11-1.986.857-2.893 1.778-5.77 2.764-8.622.495-1.437 2.776-1.926 3.256-.683 1.34 3.474 2.396 7.059 3.479 10.345zm13.393-5.1v-.8c0-5.46 0-5.459 5.456-5.03.678.054 1.548-.16 1.485.97-.048.855-.706.889-1.359.88-.445-.005-.89.014-1.334-.003-1.132-.046-2.057-.073-2.042 1.594.017 1.796 1.172 1.311 2.156 1.47.815.132 2.287-.72 2.26.932-.023 1.371-1.36.81-2.122.814-1.357.01-2.368-.037-2.308 1.9.057 1.852 1.115 1.675 2.287 1.649.355-.007.712-.023 1.066.003.654.048 1.595-.282 1.634.809.046 1.342-1.067.885-1.76.92-1.243.063-2.495-.053-3.734.037-1.238.09-1.791-.28-1.708-1.61.095-1.507.023-3.024.023-4.536zm-2.195 2.823c-.313.89.833 2.488-1.152 3.123-2.609.835-6.21.142-7.702-1.616-1.658-1.952-1.766-5.623-.227-7.739 1.543-2.123 5.438-3.267 7.733-2.275.509.22.989.463.774 1.147-.184.587-.564.833-1.21.673-1.047-.26-2.107-.32-3.165-.03-2.214.606-3.3 2.457-2.87 4.992.39 2.29 1.837 3.335 4.104 3.36.75.008 1.514-.027 1.526-1.019.008-.746.387-1.699-.573-2.125-.586-.26-1.635.048-1.398-1.07.244-1.148 1.308-.675 2.013-.667.776.011 1.929-.515 2.13.874.1.695.017 1.419.017 2.372zm-14.624-19.417c-16.057 0-32.116.054-48.174-.056-2.603-.018-3.56.516-3.492 3.355.203 8.472.051 16.95.081 25.426.016 4.476-.47 4.017 4.01 4.026 12.845.026 25.692.018 38.539.014 1.47 0 2.917-.152 2.913 2.057-.034 13.205-.03 26.41-.009 39.614.002 1.479-.611 2.099-2.084 2.069-2.318-.047-4.641.056-6.958-.024-1.582-.056-2.243.482-2.218 2.143a485.09 485.09 0 0 1 0 14.721c-.027 1.714.744 2.093 2.268 2.087 9.992-.04 19.984-.039 29.974 0 1.519.005 2.302-.368 2.275-2.085a474.075 474.075 0 0 1 0-14.72c.025-1.663-.636-2.208-2.218-2.145-2.048.082-4.11-.102-6.15.044-2.21.157-2.945-.649-2.93-2.886.083-12.58.092-25.16-.02-37.74-.02-2.482.763-3.2 3.218-3.182 13.202.101 26.406-.002 39.608.08 2.115.013 2.749-.618 2.725-2.728-.1-9.01-.136-18.023.02-27.032.044-2.557-.832-3.1-3.203-3.085-16.058.09-32.117.047-48.175.047z"/><path fill="#121212" d="M415.37 190.877c0 1.514-.174 3.053.038 4.535.404 2.836-1.324 3.586-3.502 3.652-12.841.39-25.502 2.549-38.254 3.808-17.101 1.69-34.18 3.611-51.257 5.537-2.1.237-2.744-.167-2.741-2.36.013-6.24-.435-12.465-1.422-18.633-.261-1.63.156-2.305 1.802-2.805 29.142-8.861 58.27-17.766 87.367-26.776 2.093-.648 2.244.45 2.607 1.738 2.882 10.243 4.65 20.671 5.362 31.304z"/><path fill="#41bca9" d="M343.49 237.163c-7.13 0-14.26-.057-21.388.038-1.89.025-2.444-.598-2.422-2.451.087-7.575.07-15.153.008-22.728-.013-1.554.43-2.15 2.064-2.309 9.73-.943 19.45-1.987 29.17-3.038 4.327-.47 8.646-1.03 12.967-1.556 3.364-.41 3.526-.279 3.528 3.018.002 8.825-.053 17.649.04 26.471.023 1.99-.575 2.626-2.578 2.597-7.128-.104-14.258-.04-21.389-.042z"/><path fill="#e24493" d="M385.96 237.113c-4.815 0-9.632-.075-14.446.037-2.022.045-2.6-.717-2.585-2.66.076-9.185.078-18.372-.003-27.557-.016-1.839.57-2.342 2.397-2.53 13.972-1.437 27.93-3 41.888-4.571 1.684-.19 2.286.436 2.25 2.045-.05 2.228-.018 4.458-.009 6.688.004.948-.044 1.88-1.328 1.843-3.018-.088-5.814 1.59-8.9 1.044-1.956-.346-2.621.558-2.588 2.562.111 6.865-.022 13.736.094 20.6.035 2.025-.604 2.608-2.59 2.553-4.724-.133-9.453-.043-14.18-.043z"/><path fill="#b13eb5" d="M212.15 262.27c-9.01 0-18.02-.053-27.03.039-1.997.021-2.63-.586-2.583-2.59.125-5.26.111-10.527.007-15.789-.037-1.882.593-2.442 2.455-2.436 18.02.057 36.039.062 54.059-.005 2-.008 2.628.587 2.582 2.588a361.37 361.37 0 0 0-.006 15.79c.038 1.885-.596 2.452-2.456 2.436-9.008-.077-18.018-.035-27.029-.033z"/><path fill="#ff9327" d="M368.98 302.754c-.003-4.905.059-9.812-.034-14.716-.034-1.859.38-2.73 2.495-2.71 9.72.09 19.442.067 29.162.004 1.65-.011 2.148.558 2.14 2.166-.053 10.168-.058 20.335.006 30.503.01 1.754-.555 2.278-2.31 2.263-9.63-.08-19.263-.088-28.894 0-1.952.018-2.667-.465-2.608-2.527.141-4.99.046-9.988.043-14.983z"/><path fill="#41bca9" d="M319.717 352.259c0-5.345.045-10.69-.029-16.034-.022-1.61.49-2.176 2.139-2.162 7.748.069 15.499.068 23.246.005 1.997-.017 2.31.887 2.246 2.65-.393 10.677-.352 21.361-.013 32.04.054 1.68-.362 2.27-1.989 2.264-7.838-.029-15.677-.05-23.515.015-1.68.014-2.13-.636-2.111-2.209.066-5.522.026-11.046.026-16.569zM347.1 255.871c0 5.17-.043 10.34.026 15.51.02 1.587-.474 2.211-2.132 2.198-7.754-.063-15.508-.055-23.262-.005-1.476.01-2.046-.452-2.039-1.983.045-10.43.055-20.859-.007-31.288-.009-1.716.704-2.086 2.237-2.075 7.666.051 15.33.073 22.996-.008 1.865-.021 2.227.781 2.206 2.41-.069 5.079-.025 10.161-.025 15.241zM347.44 389.937c.002 5.08-.048 10.158.03 15.236.025 1.74-.435 2.342-2.306 2.118a856.479 856.479 0 0 0-23.044-2.482c-1.762-.163-2.463-.58-2.444-2.483.088-9.266.082-18.533.004-27.799-.017-1.86.545-2.451 2.424-2.429a955.79 955.79 0 0 0 22.718.007c1.959-.023 2.69.594 2.65 2.596-.103 5.078-.035 10.158-.033 15.236z"/><path fill="#ff9327" d="M385.852 347.958c-4.905-.003-9.81-.051-14.713.026-1.577.024-2.207-.409-2.19-2.098.077-7.401.068-14.804.009-22.205-.014-1.552.574-1.97 2.04-1.964 9.898.042 19.796.04 29.694-.01 1.465-.006 2.06.424 2.049 1.968-.056 7.4-.064 14.803.006 22.204.015 1.666-.582 2.137-2.184 2.111-4.902-.083-9.807-.03-14.711-.032z"/><path fill="#e24493" d="M385.78 349.137c4.81 0 9.623.062 14.433-.033 1.77-.035 2.547.365 2.517 2.344-.105 7.038-.077 14.079-.017 21.117.014 1.595-.478 2.193-2.134 2.182-9.801-.06-19.601-.054-29.402-.011-1.524.007-2.261-.336-2.243-2.065.075-7.129.068-14.257.002-21.386-.016-1.618.5-2.19 2.143-2.162 4.898.084 9.8.03 14.701.03z"/><path fill="#41bca9" d="M367.804 375.309c0 6.5-.068 13.003.041 19.501.033 2.02-.598 2.728-2.606 2.492a551.383 551.383 0 0 0-15.094-1.574c-1.807-.161-1.549-1.354-1.552-2.485-.007-7.036-.005-14.07-.005-21.107 0-5.699.055-11.399-.03-17.097-.025-1.72.49-2.352 2.265-2.315 4.807.097 9.619.117 14.424-.01 1.978-.05 2.634.536 2.6 2.558-.113 6.678-.043 13.358-.043 20.037z"/><path fill="#ff9327" d="M386.077 259.238c4.72-.003 9.442.068 14.16-.041 1.768-.04 2.554.315 2.522 2.305-.11 6.678-.084 13.36-.013 20.039.017 1.684-.441 2.36-2.247 2.347-9.795-.074-19.592-.065-29.388-.013-1.62.009-2.172-.529-2.155-2.155.065-6.769.076-13.539-.01-20.307-.023-1.877.832-2.215 2.437-2.195 4.899.063 9.796.023 14.694.02z"/><path fill="#41bca9" d="M325.401 295.74c6.681-.054 13.362-.087 20.044-.175 1.536-.02 2.007.703 2.002 2.124-.021 11.054-.017 22.107-.004 33.16.002 1.247-.334 2.104-1.778 2.07-6.763-.16-13.534.348-20.29-.27.275-12.302.218-24.606.026-36.909z"/><path fill="#e24493" d="M402.685 388.545c-.002 3.474-.067 6.95.026 10.422.045 1.691-.643 2.215-2.22 2.046-7.824-.835-15.651-1.637-23.474-2.466-2.031-.216-4.052-.631-6.086-.687-1.756-.048-2.003-.9-1.99-2.365.052-5.79.086-11.581-.012-17.369-.03-1.81.647-2.25 2.337-2.24 9.708.059 19.416.058 29.125-.011 1.706-.012 2.389.452 2.33 2.25-.115 3.469-.034 6.947-.036 10.42z"/><path fill="#41bca9" d="M348.59 332.478c0-5.43.058-10.862-.034-16.291-.03-1.778.39-2.547 2.348-2.496 4.806.124 9.615.098 14.42.01 1.837-.034 2.516.59 2.506 2.46-.058 10.95-.056 21.902.002 32.852.01 1.723-.525 2.354-2.292 2.32a388.598 388.598 0 0 0-14.687 0c-1.745.033-2.323-.547-2.296-2.295.088-5.518.033-11.04.033-16.56z"/><path fill="#59defd" d="M212.105 239.907c-8.909 0-17.819-.07-26.725.05-2.27.031-2.883-.704-2.821-2.891.144-5.074.1-10.156.013-15.234-.029-1.713.492-2.312 2.266-2.351 7.503-.167 7.502-.222 7.5 7.253 0 5.135 0 5.135 5.036 5.135 10.6 0 21.203-.055 31.803.046 2.145.022 2.83-.648 2.7-2.745-.158-2.574-.001-5.165-.053-7.748-.029-1.35.478-2.02 1.87-1.898.176.015.356.002.534-.003 7.344-.185 7.344-.185 7.344 7.09 0 3.297-.164 6.603.051 9.886.172 2.612-.475 3.552-3.328 3.484-8.726-.208-17.46-.075-26.19-.074z"/><path fill="#e24493" d="M385.786 238.293c4.814 0 9.63.066 14.442-.035 1.794-.037 2.545.403 2.499 2.36-.12 5.08-.086 10.164-.013 15.245.022 1.6-.478 2.184-2.136 2.173-9.807-.063-19.613-.059-29.42-.01-1.543.006-2.255-.357-2.227-2.076a489.1 489.1 0 0 0 .005-15.512c-.023-1.61.487-2.196 2.14-2.167 4.903.085 9.808.03 14.71.03z"/><path fill="#41bca9" d="M348.591 274.064c0-4.19.064-8.38-.033-12.568-.04-1.684.398-2.4 2.22-2.363 4.9.1 9.803.079 14.705.01 1.733-.024 2.355.63 2.344 2.356-.053 8.467-.045 16.934-.006 25.401.007 1.596-.599 2.234-2.207 2.218-4.99-.055-9.983-.077-14.972.011-1.714.03-2.103-.69-2.076-2.232.072-4.277.025-8.556.025-12.833zM333.556 294.418c-3.835.002-7.672-.06-11.506.03-1.646.04-2.411-.327-2.371-2.192.11-5.171.077-10.347.012-15.52-.018-1.482.451-2.046 1.984-2.036 7.85.056 15.698.049 23.547.007 1.58-.009 2.254.55 2.237 2.183a620.43 620.43 0 0 0 .006 15.253c.024 1.77-.707 2.333-2.402 2.297-3.834-.08-7.67-.025-11.507-.022z"/><path fill="#b13eb5" d="M283.752 262.268c-3.559 0-7.118-.058-10.676.026-1.609.037-2.197-.516-2.176-2.152.071-5.514.076-11.033-.002-16.547-.026-1.706.694-2.101 2.234-2.09 7.206.053 14.412.068 21.617-.006 1.916-.02 2.447.771 2.421 2.555a526.5 526.5 0 0 0 .002 15.747c.029 1.845-.618 2.545-2.478 2.496-3.646-.097-7.295-.03-10.942-.03zM140.085 241.529c3.557 0 7.118.067 10.674-.03 1.75-.047 2.574.358 2.531 2.345-.118 5.424-.084 10.853-.013 16.279.02 1.613-.524 2.186-2.154 2.172-7.296-.063-14.59-.05-21.884-.01-1.587.009-2.237-.59-2.222-2.2.05-5.427.061-10.854-.007-16.28-.023-1.778.728-2.33 2.4-2.297 3.557.07 7.117.02 10.675.02z"/><path fill="#59defd" d="M284.075 239.84c-3.65-.002-7.302-.064-10.95.026-1.642.04-2.17-.562-2.149-2.172a558.45 558.45 0 0 0-.003-16.028c-.024-1.669.615-2.133 2.198-2.12 7.212.06 14.425.055 21.635.001 1.736-.013 2.37.674 2.354 2.378-.057 5.253-.086 10.509.014 15.76.035 1.875-.791 2.223-2.414 2.185-3.56-.085-7.123-.026-10.685-.03zM140.113 239.84c-3.65.002-7.303-.063-10.951.032-1.655.042-2.17-.578-2.148-2.177.068-5.253.06-10.509.006-15.761-.019-1.697.603-2.4 2.345-2.387 7.212.054 14.425.057 21.636 0 1.571-.013 2.23.429 2.204 2.11a571.331 571.331 0 0 0-.003 16.029c.02 1.598-.48 2.224-2.138 2.181-3.648-.094-7.301-.029-10.951-.027z"/><path fill="#ff777b" d="M140.189 284.215c-3.566 0-7.134-.064-10.697.027-1.655.042-2.429-.363-2.396-2.213.098-5.348.101-10.699.001-16.046-.034-1.853.73-2.219 2.383-2.203 7.131.069 14.264.069 21.394.007 1.637-.016 2.422.322 2.384 2.193-.107 5.348-.11 10.7.004 16.047.04 1.881-.744 2.221-2.377 2.179-3.564-.09-7.13-.028-10.696-.028zM283.976 263.812c3.565-.002 7.133.059 10.696-.03 1.628-.04 2.443.296 2.408 2.176a435.129 435.129 0 0 0 0 16.047c.032 1.818-.687 2.258-2.37 2.239-7.22-.082-14.441-.097-21.662-.034-1.65.013-2.147-.542-2.125-2.157a477.71 477.71 0 0 0-.002-16.047c-.034-1.824.674-2.271 2.359-2.224 3.562.103 7.13.031 10.696.03z"/><path fill="#b13eb5" d="M167.666 262.268c-3.38 0-6.762-.06-10.141.026-1.585.038-2.217-.456-2.193-2.123.08-5.426.073-10.854.006-16.281-.021-1.704.57-2.397 2.314-2.382 6.85.055 13.7.047 20.55.004 1.573-.011 2.258.552 2.243 2.177a779.983 779.983 0 0 0 .005 16.28c.02 1.746-.671 2.36-2.378 2.322-3.466-.079-6.937-.023-10.406-.023zM256.49 262.268c-3.47 0-6.94-.057-10.408.023-1.727.04-2.375-.62-2.355-2.344a700.7 700.7 0 0 0 .001-16.014c-.017-1.648.47-2.445 2.27-2.428 6.85.062 13.701.058 20.55.002 1.768-.014 2.311.724 2.292 2.407a593.236 593.236 0 0 0 .006 16.28c.026 1.696-.658 2.134-2.215 2.099-3.38-.08-6.76-.025-10.141-.025z"/><path fill="#ecf863" d="M283.893 217.525c-3.647 0-7.297-.047-10.943.024-1.46.028-2.062-.413-2.041-1.966.07-5.427.06-10.855.004-16.282-.014-1.38.454-1.879 1.846-1.87 7.473.043 14.948.046 22.42-.012 1.385-.01 1.9.423 1.888 1.818a916.606 916.606 0 0 0-.002 16.55c.015 1.472-.664 1.78-1.962 1.76-3.735-.057-7.473-.02-11.21-.022zM140.088 197.45c3.646 0 7.296.082 10.94-.036 1.78-.057 2.28.577 2.248 2.298a458.248 458.248 0 0 0-.003 15.48c.024 1.64-.333 2.393-2.188 2.37-7.293-.09-14.59-.082-21.884-.001-1.692.018-2.117-.616-2.096-2.18.066-5.249.092-10.5-.015-15.747-.037-1.816.626-2.27 2.322-2.218 3.556.108 7.117.033 10.676.033z"/><path fill="#59defd" d="M256.511 219.572c3.383-.001 6.767.064 10.145-.03 1.642-.045 2.167.552 2.144 2.167-.075 5.34-.078 10.68-.001 16.02.024 1.648-.568 2.152-2.174 2.137-6.762-.065-13.527-.066-20.29 0-1.632.016-2.18-.55-2.158-2.166.071-5.34.074-10.68-.001-16.02-.024-1.652.593-2.175 2.19-2.134 3.38.085 6.764.026 10.145.026zM167.655 219.571c3.382 0 6.764.058 10.144-.025 1.584-.039 2.227.457 2.202 2.123-.077 5.34-.07 10.68-.002 16.02.02 1.602-.502 2.194-2.146 2.178a1044.78 1044.78 0 0 0-20.29-.002c-1.592.015-2.21-.465-2.186-2.126.08-5.339.073-10.68 0-16.02-.022-1.601.478-2.225 2.133-2.177 3.378.096 6.763.028 10.145.03z"/><path fill="#ff777b" d="M167.767 284.177c-3.385 0-6.77-.057-10.153.026-1.534.037-2.24-.316-2.21-2.054.103-5.432.103-10.866.011-16.297-.03-1.73.677-2.077 2.214-2.064 6.767.058 13.536.057 20.304 0 1.536-.012 2.264.365 2.24 2.074a530.22 530.22 0 0 0 .003 16.298c.027 1.746-.747 2.075-2.257 2.04-3.382-.074-6.768-.023-10.152-.023zM256.431 284.177c-3.473 0-6.947-.056-10.418.025-1.524.036-2.02-.532-2.002-2.022.058-5.432.072-10.865-.005-16.297-.024-1.687.657-2.11 2.218-2.095 6.768.06 13.537.085 20.303-.014 1.828-.027 2.26.636 2.232 2.325-.083 5.254-.112 10.512.02 15.764.048 1.957-.668 2.414-2.464 2.349-3.291-.119-6.59-.034-9.884-.035z"/><path fill="#ecf863" d="M167.882 175.57c3.382 0 6.766.04 10.149-.02 1.386-.025 2.123.261 2.1 1.89-.08 5.519-.062 11.04-.012 16.56.013 1.406-.535 1.847-1.892 1.838-6.944-.042-13.888-.053-20.834.006-1.563.013-1.957-.621-1.942-2.068.059-5.431.07-10.863-.015-16.293-.027-1.581.577-1.97 2.03-1.938 3.47.076 6.943.025 10.416.025zM256.604 175.57c3.385 0 6.77.06 10.15-.028 1.508-.039 2.006.46 1.984 1.983a633.735 633.735 0 0 0-.012 16.294c.017 1.493-.47 2.037-1.987 2.024a1432.41 1432.41 0 0 0-20.833-.004c-1.399.01-1.86-.519-1.848-1.882.046-5.52.05-11.041-.005-16.561-.015-1.4.495-1.871 1.869-1.846 3.56.065 7.122.022 10.682.02z"/><path fill="#e24493" d="M368.964 404.325c.002-5.517-.022-5.327 5.559-4.632 8.818 1.1 17.672 1.934 26.512 2.845 4.157.428 8.32.81 12.486 1.137 1.505.119 1.98.86 1.944 2.26-.056 2.05-.122 4.112.015 6.154.132 1.983-.7 2.464-2.522 2.26-7.515-.842-15.038-1.602-22.556-2.401-5.837-.62-11.666-1.336-17.512-1.859-3.92-.35-3.93-.231-3.926-4.158v-1.606z"/><path fill="#ecf863" d="M256.299 217.527c-3.47 0-6.939-.022-10.408.011-1.206.01-1.965-.08-1.928-1.696.122-5.424.115-10.853.046-16.278-.02-1.619.496-2.162 2.13-2.145a934.18 934.18 0 0 0 20.546-.002c1.693-.02 2.097.615 2.074 2.185-.077 5.247-.103 10.498.011 15.744.04 1.839-.663 2.26-2.333 2.21-3.376-.1-6.759-.03-10.138-.03zM167.86 217.526c-3.47 0-6.94-.048-10.407.023-1.453.03-2.057-.388-2.033-1.954.076-5.426.06-10.853.006-16.28-.013-1.356.404-1.895 1.817-1.886 7.026.05 14.055.036 21.082.012 1.152-.004 1.832.252 1.826 1.609a957.324 957.324 0 0 0 .064 17.078c.023 1.6-.988 1.393-1.948 1.394-3.468.011-6.938.005-10.407.004z"/><path fill="#020202" d="M210.7 273.58c-1.522.364-1.16 1.644-1.86 2.635-.883-1.803-.589-3.526-.308-5.13.134-.769 1.156-.494 1.986-.238-.07.978-1.188.702-1.55 1.574.873.409 1.563 1.561 2.279-.41.428-1.182 4.141-1.81 4.536-.782 1.367 3.558 1.446-.24 2.363-.316.396 1.66.356 3.31-.051 5.26-.826-.535-.535-1.236-.76-1.7-.393-.812-1.072-.835-1.23.003-.205 1.093-.865.864-1.517 1.233-2.81 1.592-3.186-.374-3.888-2.129zm13.796 10.686c-.59-1.187-.122-2.498-.425-3.719-.052-.144-.12-.285-.145-.434-.01-.057.079-.132.123-.199v-13.207c-.038-.151-.094-.301-.105-.454-.004-.06.093-.128.143-.192l.259-2.233c-.153-1.122-1.001-1.044-1.804-1.044-6.272 0-12.545.006-18.816-.008-.965-.003-1.772.138-1.94 1.29.086 6.674.263 13.349-.11 20.023.31 1.458 1.465 1.292 2.517 1.293 5.839.005 11.677-.019 17.515.022 1.135.008 2.093-.18 2.788-1.138z"/><path fill="#41bca9" d="M348.588 301.377c-.003-3.025.048-6.052-.025-9.076-.034-1.43.348-2.104 1.93-2.082 5.07.072 10.142.065 15.213.005 1.683-.02 2.124.76 2.114 2.284a1133.94 1133.94 0 0 0 0 17.882c.014 1.587-.55 2.232-2.18 2.211a685.442 685.442 0 0 0-15.212-.003c-1.389.014-1.885-.507-1.857-1.88.065-3.113.02-6.227.017-9.341z"/><path fill="#59defd" d="M193.122 195.926c-2.764 0-5.531-.055-8.292.021-1.527.042-2.28-.349-2.255-2.078.08-5.44.06-10.88.002-16.32-.016-1.519.576-2.02 2.052-2.006a757.42 757.42 0 0 0 16.853-.006c1.672-.023 2.146.643 2.126 2.215-.063 5.351-.07 10.703.004 16.053.024 1.655-.603 2.195-2.199 2.144-2.76-.087-5.528-.023-8.29-.023zM231.127 195.925c-2.764 0-5.53-.05-8.292.02-1.511.04-2.298-.33-2.272-2.07.08-5.438.063-10.879.009-16.319-.015-1.514.575-2.025 2.051-2.012 5.618.05 11.236.046 16.855 0 1.406-.011 2.14.34 2.121 1.933a886.161 886.161 0 0 0-.011 16.588c.01 1.39-.534 1.903-1.9 1.875-2.853-.057-5.708-.017-8.56-.015z"/><path fill="#ff777b" d="M201.786 264.065c.086 6.675.262 13.35-.11 20.024-5.7.028-11.404.022-17.104.113-1.488.023-2.036-.441-2.015-1.977.071-5.524.043-11.05.018-16.574-.005-1.14.215-1.887 1.592-1.845 5.872.179 11.753-.28 17.619.259z"/><path fill="#41bca9" d="M367.464 248.419c0 2.579-.038 5.157.014 7.735.028 1.358-.51 1.907-1.882 1.896a819.303 819.303 0 0 0-15.2.005c-1.427.015-1.834-.582-1.823-1.913.045-5.335.043-10.67-.003-16.004-.012-1.342.42-1.919 1.835-1.904 5.066.054 10.134.045 15.2.004 1.382-.01 1.897.567 1.873 1.913-.05 2.755-.014 5.512-.014 8.268z"/><path fill="#ff777b" d="M224.049 279.915v-13.207c.052-.063.153-.131.15-.19-.013-.155-.072-.305-.112-.457l.258-2.233c4.994-.005 9.988.054 14.98-.048 1.733-.035 2.333.49 2.303 2.258a474.108 474.108 0 0 0-.003 16.051c.026 1.655-.54 2.14-2.154 2.12-4.99-.058-9.982.028-14.975.057-.59-1.188-.122-2.498-.426-3.718.049-.066.147-.14.137-.197-.029-.15-.102-.292-.158-.436z"/><path fill="#59defd" d="M231.216 197.51c2.674-.002 5.348.072 8.017-.029 1.674-.063 2.407.41 2.372 2.234a420.514 420.514 0 0 0 .001 15.5c.034 1.813-.69 2.225-2.362 2.256-7.228.135-7.299.182-7.36-6.812-.016-1.934-.695-2.477-2.502-2.377-2.219.121-4.455-.046-6.677.055-1.664.075-2.2-.618-2.135-2.202.09-2.134.113-4.28-.005-6.412-.1-1.818.69-2.302 2.37-2.24 2.757.1 5.521.027 8.28.026zM193.205 197.51c2.673 0 5.348.071 8.016-.026 1.655-.06 2.496.373 2.391 2.218a57.522 57.522 0 0 0 0 6.41c.105 1.838-.726 2.305-2.385 2.225-2.043-.1-4.103.08-6.143-.056-1.995-.131-2.901.374-2.813 2.627.082 2.072 1.1 5.036-.54 6.07-2.133 1.348-5.187.372-7.842.423-1.093.02-1.28-.747-1.28-1.63.001-5.523.027-11.045-.014-16.569-.011-1.525.845-1.718 2.06-1.704 2.85.033 5.7.01 8.55.012z"/><path fill="#ecf863" d="M296.062 195.82c-7.727 0-15.453-.02-23.18.018-1.301.006-1.95-.305-1.935-1.775.058-5.955.023-11.908.023-18.55l25.36 19.787zM153.205 175.485c0 6.679-.014 12.705.01 18.729.005 1.1-.374 1.618-1.538 1.615-7.875-.024-15.752-.012-24.468-.012 8.897-6.96 17.172-13.431 25.996-20.332zM325.401 295.74c.192 12.303.249 24.606-.027 36.908-5.662.694-5.662.694-5.662-4.949v-28.554c0-3.587.001-3.594 3.566-3.543.708.01 1.415.09 2.123.138z"/><path fill="#41bca9" d="M367.803 404.06c-.001 5.235-.005 5.303-5.018 4.955-3.899-.27-7.785-.744-11.677-1.117-1.729-.164-2.841-.79-2.55-2.835.15-1.049.031-2.137.031-3.206.004-4.943.009-5.006 4.806-4.56 3.891.36 7.758 1.062 11.656 1.294 2.412.144 3.075 1.166 2.768 3.332-.1.698-.015 1.423-.016 2.137z"/><path fill="#2a2738" d="M199.242 486.393c0 1.693-.15 3.402.033 5.075.303 2.778-.628 5.123-2.321 7.157-2.81 3.374-3.656 7.37-4.182 11.563-.26 2.091-.785 4.19-1.491 6.177-1.042 2.935-2.896 3.643-5.936 2.653-6.494-2.112-12.999-4.19-19.49-6.303-4.128-1.341-4.857-3.34-3.067-7.308 1.51-3.35 4.13-6.28 3.841-10.356-.146-2.087-.882-3.551-2.796-4.444-5.553-2.588-11.105-5.178-16.622-7.838-1.595-.769-3.112-1.718-4.595-2.69-2.714-1.78-2.863-3.94-.45-6.063 4.2-3.699 8.394-7.402 12.327-11.395 2.603-2.643 4.387-2.822 7.527-.76 7.84 5.152 16.269 9.025 25.287 11.568 2.456.693 5.019 1.018 7.543 1.439 2.654.443 4.367 2.375 4.388 5.11.016 2.137.004 4.277.004 6.415zm3.22.208c0-3.656-.125-7.318.05-10.966.095-1.971-.6-2.602-2.466-2.831-14.81-1.815-28.355-6.859-40.155-16.151-1.335-1.052-2.11-1.02-3.338.131-6.76 6.346-13.557 12.653-20.449 18.855-1.7 1.53-1.79 2.247.167 3.673 8.297 6.04 17.327 10.587 27.04 13.805 1.703.564 2.01 1.179 1.116 2.812-2.312 4.22-4.28 8.634-6.7 12.787-1.407 2.417-.894 3.354 1.54 4.431 10.232 4.518 20.951 7.535 31.621 10.734 1.805.542 1.916-.547 2.177-1.72 1.475-6.612 3.015-13.209 4.398-19.838.376-1.8 1.016-2.78 2.984-2.37 1.782.373 2.07-.6 2.039-2.116-.073-3.743-.024-7.49-.024-11.236zM217.978 486.57c0-2.141.037-4.282-.012-6.423-.048-2.113.904-3.298 2.987-3.733 4.947-1.032 9.934-1.866 14.89-2.82 5.338-1.029 10.112-3.367 15.068-5.259 2.792-1.065 4.862-.886 7.042 1.057 4.5 4.01 9.285 7.695 13.226 12.315 1.122 1.315.8 2.17-.285 3.146-.596.537-1.193 1-1.96 1.332-10.148 4.4-20.664 7.494-31.629 9.019-4.913.683-9.82 1.51-14.792 1.589-3.618.058-4.53-.95-4.535-4.604-.004-1.873 0-3.745 0-5.618zm-3.279 11.108c-.094 2.095.677 2.52 2.618 2.475 6.874-.162 13.705-.718 20.493-1.783 13.575-2.128 26.568-6.064 38.72-12.577 1.124-.603 2.7-.966.799-2.683-7.012-6.338-13.947-12.76-20.876-19.186-.857-.796-1.521-.88-2.57-.325-11.533 6.105-23.848 9.367-36.88 9.818-1.967.068-2.344.856-2.291 2.592.107 3.565.032 7.134.032 10.702 0 3.657.12 7.318-.045 10.967z"/><path fill="#edecec" d="M226.85 153.761c-.314.89.832 2.488-1.152 3.123-2.61.835-6.21.142-7.702-1.616-1.658-1.952-1.766-5.623-.227-7.74 1.543-2.122 5.438-3.266 7.733-2.274.509.22.989.464.773 1.148-.184.586-.564.833-1.21.672-1.046-.26-2.106-.319-3.164-.03-2.214.606-3.302 2.458-2.87 4.992.389 2.29 1.836 3.336 4.104 3.36.75.008 1.514-.027 1.525-1.019.009-.745.388-1.7-.573-2.124-.585-.26-1.634.047-1.397-1.07.244-1.15 1.308-.676 2.012-.667.776.01 1.929-.516 2.13.873.1.695.017 1.418.017 2.372zM229.044 150.938v-.8c0-5.46 0-5.458 5.456-5.03.678.054 1.548-.16 1.485.969-.048.855-.706.89-1.359.881-.445-.005-.89.014-1.334-.003-1.132-.046-2.057-.073-2.042 1.593.017 1.796 1.172 1.312 2.156 1.472.816.131 2.287-.722 2.26.932-.023 1.37-1.359.81-2.122.813-1.357.009-2.368-.037-2.308 1.9.057 1.851 1.115 1.675 2.287 1.649.355-.007.713-.023 1.066.003.654.049 1.596-.281 1.634.809.047 1.341-1.067.885-1.76.92-1.243.063-2.495-.053-3.734.037-1.237.09-1.791-.28-1.707-1.61.095-1.507.022-3.023.022-4.535zM211.792 150.718c.154.473.534 1.086-.214 1.298-.567.16-1.242.126-1.827-.008-.533-.12-.47-.684-.344-1.104.314-1.065.672-2.117 1.193-3.735.538 1.597.87 2.57 1.192 3.549zm3.86 5.32c-1.085-3.286-2.139-6.87-3.48-10.345-.48-1.243-2.76-.754-3.255.683a202.98 202.98 0 0 0-2.765 8.622c-.183.615-1.113 1.52.11 1.986 1.24.47 1.84-.393 1.978-1.467.213-1.63 1.167-1.79 2.595-1.876 1.753-.105 2.094.88 2.37 2.155.2.922.736 1.379 1.705 1.263.46-.054.91-.104.741-1.021zM193.447 144.976c.395.056 1.028.076 1.619.247.573.165.853.587.571 1.23-.188.426-.346.762-.953.623-.685-.156-1.403-.262-2.101-.239-.637.023-1.232.335-1.388 1.042-.15.674.102 1.244.724 1.573.705.372 1.439.691 2.158 1.04 1.476.713 2.509 1.772 2.306 3.53-.214 1.856-1.485 2.772-3.208 3.08-.772.137-1.61.215-2.365.058-.77-.16-2.106.038-1.992-1.235.136-1.522 1.316-.62 2.08-.587 1.226.055 2.702.46 3.084-1.22.345-1.513-1.028-1.856-2.089-2.294-1.834-.758-3.484-1.747-2.976-4.088.484-2.235 2.28-2.75 4.53-2.76zM201.677 145.11c1.07-.002 2.14-.01 3.209.001.612.006 1.313-.1 1.342.846.026.838-.495 1.149-1.194 1.031-2.4-.403-2.277 1.132-2.226 2.73a86.66 86.66 0 0 1-.005 5.347c-.024.78.472 1.925-1.017 1.99-1.523.066-1.1-1.08-1.116-1.878-.037-2.05-.089-4.103.013-6.148.07-1.436-.279-2.212-1.884-2.04-.687.074-1.552.12-1.56-.936-.011-1.342 1.072-.874 1.767-.928.886-.067 1.78-.016 2.671-.016z"/><path fill="#ec8689" d="M211.98 273.508c.116-.67-.06-1.684.772-1.748 1.09-.086.968.998.985 1.727.015.682-.019 1.633-.879 1.64-.902.008-.78-.962-.878-1.619zm-1.28.072c.702 1.754 1.078 3.721 3.888 2.129.652-.37 1.312-.14 1.518-1.233.156-.838.836-.814 1.229-.003.224.464-.066 1.165.76 1.7.407-1.95.447-3.6.051-5.26-.916.076-.995 3.874-2.362.316-.396-1.028-4.109-.4-4.537.781-.716 1.972-1.405.82-2.278.41.362-.871 1.479-.595 1.549-1.572-.83-.256-1.853-.532-1.987.237-.279 1.603-.574 3.327.31 5.13.7-.991.337-2.27 1.86-2.635z"/><path fill="#642723" d="M224.088 266.061c.04.152.098.302.11.456.004.06-.097.128-.148.191-.038-.152-.095-.302-.106-.455-.004-.06.094-.128.144-.192zM224.05 279.914c.056.145.13.287.158.438.01.055-.088.13-.138.196-.05-.144-.118-.285-.144-.435-.01-.057.079-.132.123-.199z"/><path fill="#0b010c" d="M199.241 486.393c0 1.693-.149 3.402.034 5.075.303 2.777-.628 5.123-2.321 7.158-2.81 3.373-3.657 7.369-4.182 11.562-.26 2.091-.785 4.19-1.492 6.178-1.04 2.933-2.894 3.641-5.936 2.652-6.493-2.113-12.997-4.19-19.49-6.303-4.126-1.342-4.856-3.34-3.067-7.308 1.51-3.35 4.13-6.28 3.842-10.356-.147-2.087-.882-3.551-2.797-4.444-5.552-2.588-11.104-5.178-16.622-7.838-1.594-.768-3.111-1.717-4.594-2.69-2.714-1.78-2.863-3.94-.451-6.062 4.201-3.7 8.395-7.402 12.328-11.396 2.603-2.644 4.387-2.823 7.527-.76 7.84 5.152 16.269 9.025 25.287 11.569 2.456.692 5.02 1.017 7.544 1.438 2.654.443 4.367 2.375 4.387 5.11.016 2.137.003 4.277.003 6.415zM217.976 486.57c0-2.141.038-4.282-.01-6.422-.05-2.114.904-3.3 2.986-3.734 4.946-1.033 9.934-1.866 14.89-2.82 5.338-1.029 10.112-3.368 15.069-5.259 2.791-1.065 4.861-.886 7.043 1.057 4.498 4.01 9.285 7.695 13.225 12.315 1.122 1.315.8 2.17-.285 3.146-.596.537-1.193 1-1.96 1.332-10.149 4.4-20.665 7.494-31.63 9.018-4.913.684-9.818 1.51-14.79 1.59-3.62.058-4.532-.95-4.538-4.604-.003-1.873 0-3.746 0-5.619z"/><path fill="#642723" d="M210.6 147.17c.538 1.596.87 2.57 1.192 3.548.155.472.534 1.086-.214 1.298-.568.16-1.242.126-1.827-.007-.534-.122-.47-.685-.344-1.106.315-1.064.672-2.116 1.193-3.734z"/><path fill="#020202" d="M211.98 273.509c.116-.67-.06-1.685.772-1.749 1.09-.085.968.998.985 1.727.015.683-.018 1.634-.88 1.64-.901.008-.78-.962-.878-1.618z"/></svg>