<svg xmlns="http://www.w3.org/2000/svg" viewBox="-94.2 94 613 425"><path d="M199.3 99.7c42 0 76.4-.1 110.7.1 10.7.1 21.4 1.5 32 2.9 9.5 1.3 18.5 4.1 27.6 6.9 8.5 2.6 16.6 6.1 24.8 9.7 9.1 4 17.8 8.7 26.3 13.9 9.4 5.7 18.4 12.1 26.9 19.1 4.4 3.6 8.6 7.4 12.6 11.3 2.1 2.1 3.9 4.7 5.9 6.6 3.8 3.7 6.9 7.8 10.1 11.9 4.5 5.6 8.4 11.7 12.1 17.8 5.8 9.6 10.5 19.7 14.1 30.3 3.7 10.9 6.5 22.1 8.3 33.5 2.3 14.5 2.6 29.1 2 43.6-.4 10.2-1.7 20.3-3.4 30.4-1.3 7.8-3 15.5-5.1 23.1-1.9 6.9-4.1 13.8-6.8 20.4-2.5 6.1-4.7 12.3-7.6 18.1-4.9 9.7-10.3 19.1-16.7 27.8-6 8.2-12.4 16-19.5 23.2-10.1 10.3-21.1 19.3-32.9 27.4-5.7 3.9-11.6 7.5-17.7 10.9-10.8 6.1-21.9 11.5-33.7 15.3-8.7 2.8-17.5 5.6-26.8 6.8-8.1 1-16.3 1.7-24.4 1.4-2-.1-3.9.7-6.1.2-3.9-.9-6-3.2-6.9-6.9-1.4-5.6-1.4-5.5-7.1-5.6-5.6-.1-11.2-.1-16.8-.2-4.7-.1-9.6.2-14.4.2-9 .1-18 0-26.9 0H124c-4.1 0-5.2 1-5.6 5-.4 4.6-4.7 8.3-9.3 7.6-3-.5-5.9-.4-8.8-.3-9.3.3-18.4-1.4-27.5-2.8-11.6-1.8-22.9-5.2-33.8-9.3-10-3.8-19.8-8.4-28.6-14.7-3.1-2.2-6.6-3.7-9.7-6-9.8-7.2-19.5-14.5-28.4-22.8-5-4.6-9.5-9.9-14.2-14.8-9.6-10.1-17-21.7-23.3-33.9-4.3-8.2-7.6-16.9-10.4-25.8-2.5-8-4.2-16.1-6.3-24.2-1.3-5.2-1.8-10.7-2.5-16-.9-7.3-1.8-14.6-2.6-21.9-.4-3.7-.6-7.4-.6-11.2-.1-6.2 0-12.3 0-18.5-.1-10.7 1.6-21.2 3.4-31.7 1.4-8.5 3.6-16.8 6.5-25 3.5-9.9 7.7-19.5 12.8-28.7 3.6-6.5 7.3-12.9 11.7-18.7 5.2-6.9 10.2-14 16.2-20.4 3.4-3.6 6.9-7.3 10.4-10.9 4.6-4.7 9.5-9.3 14.8-13.3 8.3-6.4 16.8-12.6 25.8-17.9 9.3-5.4 18.8-10.2 29-13.8 7.9-2.8 15.7-5.7 24-7 7.1-1.1 14.2-2.1 21.4-2.6 39.4-1.9 79 .4 110.9-.5zM433.1 477c9.5-7.4 18.6-15.2 26.9-23.9 2.5-2.6 4.8-5.5 7.2-8.2 5.6-6.1 10.5-12.8 15-19.7 6.1-9.1 11.2-18.8 15.9-28.7 3.9-8.3 7.2-16.9 9.8-25.6 3.7-12.3 6.6-24.9 8.3-37.7 1.4-10.3 2.4-20.6 2.5-31 .1-8.2.3-16.4-.4-24.5-.5-5.8-1.3-11.6-2-17.4-.8-6.3-2.3-12.5-3.9-18.7-2.1-8.4-5.1-16.6-8.3-24.6-1.7-4.2-4.1-8.1-5.8-12.3-1.3-1-1.7-2.3-2.1-3.8l-3.2-5.4c-1.2-1.2-1.9-2.8-2.7-4.3l-.6-1c-.8-1.1-1.7-2.1-2.4-3.2-9.7-14.9-22-27.5-35.4-39-12-10.4-25.3-19-39.3-26.5-18.6-10-38.2-17.7-58.8-22.7-10-2.4-20.1-4.3-30.3-4.2-79.6.1-159.3-.8-238.9.4-5.6.1-11.1 1-16.7 1.9-8.5 1.3-16.8 3.7-25 6.4-7.4 2.4-14.5 5.5-21.4 9.1-13.1 6.8-25.5 14.9-37 24.2-9.2 7.4-17.9 15.2-25.6 24.1-1.7 2-3.4 4.1-5.7 5.6-.4 1.5-1.5 2.6-2.5 3.7-10 12.1-18.6 25.1-25.7 39.2-4.6 9.2-8.6 18.6-11.4 28.4-2.5 8.7-5 17.4-6 26.4-.6 5.9-2 11.8-2 17.7-.2 16-.5 32 1.4 48 1.1 9.6 2.1 19.2 3.9 28.7 2.9 15.6 7.4 30.7 13.7 45.3 3.8 8.7 8.4 17 13.8 24.8 10 14.4 21.5 27.3 34.9 38.7 10.9 9.2 22.2 17.8 34.1 25.5 10.7 6.9 22.2 12.1 34.2 16.1 10.4 3.5 21.1 6.2 32 7.9 7.5 1.2 15.1 2.2 22.8 2.2H314c11.7.1 23.2-.4 34.7-2.6 16.4-3.1 31.8-8.9 46.7-16.1 13.6-6.5 25.9-14.5 37.7-23.2z"/><path fill="#31313E" d="M109.8 457c.3-3.9.7-7.8 1.1-11.7.2-1.7.8-2.8 2.8-2.5 1 .1 2.1 0 3.2 0 4.9 0 5 0 4.6 4.8-.4 3.9-1.1 7.8-1.3 11.7-.1 2.4-1.2 3.1-3.3 2.8-.7-.1-1.4 0-2.1 0-5.3-.1-5.4-.1-5-5.1zm233.5-209.6h-18.7c-1.1 0-1.6-.4-1.6-1.5v-24.5c7 8.9 13.4 17.2 20.3 26zM323 390.3v-23.2c0-1.3.3-1.9 1.8-1.9 6 .1 11.9 0 18.5 0l-19.8 25.4-.5-.3zm-1.7-102.9c0 2.7-.1 5.3 0 8 .1 1.7-.4 2.5-2.2 2.4-2.1-.1-4.3-.1-6.4 0-1.8.1-2.3-.7-2.2-2.4.1-2-.1-4.1.1-6.1.1-2-.4-2.9-2.6-2.8-2.1.1-5 1.1-6.1-.5-1.3-2.1-.4-5.2-.4-7.8 0-1.1.7-1.3 1.6-1.3h16.6c1.5 0 1.7.8 1.7 2.1-.1 2.7-.1 5.5-.1 8.4zm0 38c0 2.7-.1 5.3 0 8 .1 1.7-.4 2.4-2.2 2.4-5.2-.1-10.3-.1-15.5 0-1.8 0-2.2-.7-2.3-2.4-.1-7.2-.2-7.3 6.8-7.4 1.9 0 2.5-.7 2.4-2.5-.1-2.2 0-4.5-.1-6.7-.1-1.7.6-2.2 2.2-2.1 2.1.1 4.3.1 6.4 0 1.8-.1 2.3.7 2.2 2.4 0 2.8.1 5.5.1 8.3zm-50.9 136.3h-7.7c-1.4 0-1.9-.5-1.9-1.9v-15.2c0-1.4.6-1.8 1.9-1.8h16c1.3 0 1.9.4 1.9 1.8v15.2c0 1.4-.6 1.9-1.9 1.9-2.8-.1-5.6 0-8.3 0zm52.5-136.4V317c0-1.5.3-2.3 2.1-2.3 5.4.1 10.9.1 16.3 0 1.5 0 2 .6 2 2.1v16.9c0 1.4-.3 2.1-1.9 2.1-5.5-.1-11.1-.1-16.6 0-1.4 0-1.9-.5-1.9-1.9v-8.6zm0-38c0-2.8.1-5.5 0-8.3 0-1.5.4-2.3 2.1-2.3 5.4.1 10.9.1 16.3 0 1.5 0 2 .6 2 2.1-.1 5.6-.1 11.2 0 16.9 0 1.7-.6 2.1-2.2 2.1-5.4-.1-10.7-.1-16.1 0-1.7 0-2.2-.6-2.1-2.2v-8.3zM217.4 442.8h9.1c1.4 0 2.1.3 2.1 1.9-.1 5.1-.1 10.1 0 15.2 0 1.7-.8 2.1-2.3 2.1h-17.9c-1.6 0-2.2-.6-2.2-2.2.1-5.1.1-10.1 0-15.2 0-1.4.5-1.9 1.9-1.9 3.1.1 6.2.1 9.3.1zm83.9-180.7c0-3.5.1-6.9 0-10.4 0-1.5.4-2.1 2-2 5.4.1 10.9.1 16.3 0 1.4 0 1.9.4 1.9 1.8v21.1c0 1.2-.3 1.8-1.6 1.8-5.7 0-11.4 0-17.1.1-1.6 0-1.4-1-1.4-1.9-.1-3.6-.1-7.1-.1-10.5zm0 88.4v-10.4c0-1.2.1-2 1.7-1.9 5.4.1 10.9.1 16.3 0 1.6 0 2.2.5 2.1 2.1-.1 6.9-.1 13.7 0 20.5 0 1.7-.6 2.1-2.2 2.1-5.2-.1-10.5-.1-15.7 0-1.8 0-2.3-.7-2.2-2.3.1-3.3 0-6.7 0-10.1zM114.5 463.2c5.5 0 5.3 0 4.6 5.6-1.1 8.8-1.9 17.7-2.8 26.5-.4 4.2-.8 8.3-1.1 12.5-.1 1.5-.9 2-2.3 1.9-2.1-.1-4.1-.1-6.2 0-2 .1-2.5-.7-2.3-2.5.8-7.5 1.6-15 2.4-22.6.6-5.8 1.3-11.7 1.9-17.5.4-3.9.2-3.9 4.2-3.9h1.6zm228.7-112.4c0 3.4-.1 6.8 0 10.1 0 1.5-.5 2-2 2-5.4-.1-10.9-.1-16.3 0-1.5 0-2-.5-2-2 .1-6.9.1-13.9 0-20.8 0-1.4.5-1.9 1.9-1.8h16.6c1.4 0 1.9.5 1.8 1.9v10.6zm.1-78.6c0 1.4-.3 2.1-1.9 2.1-5.5-.1-11-.1-16.6 0-1.4 0-1.8-.5-1.8-1.9 0-6.9.1-13.9 0-20.8 0-1.6.6-2 2.1-1.9 5.4.1 10.9.1 16.3 0 1.6 0 2 .6 1.9 2-.1 3.5 0 6.9 0 10.4-.1 3.4-.1 6.7 0 10.1zm-108.7 78.4c0-3.5.1-6.9 0-10.4 0-1.5.5-2 2-2 5.4.1 10.9.1 16.3 0 1.7 0 2.1.7 2.1 2.2-.1 6.8-.1 13.5 0 20.3 0 1.8-.6 2.3-2.3 2.2-5.3-.1-10.5-.1-15.8 0-2 0-2.4-.7-2.4-2.5.2-3.2.1-6.5.1-9.8zm0-88.6c0-3.4.1-6.8 0-10.2 0-1.5.3-2.2 2.1-2.2 5.4.1 10.9.1 16.3 0 1.7 0 2.1.7 2.1 2.2-.1 6.8-.1 13.5 0 20.3 0 1.5-.4 2.3-2.1 2.2-5.4-.1-10.9-.1-16.3 0-1.7 0-2.1-.7-2-2.3 0-3.3-.1-6.7-.1-10zm64.6-.2c0 3.4-.1 6.8 0 10.1 0 1.6-.5 2.2-2.1 2.2-5.3-.1-10.7-.1-16 0-1.6 0-2.2-.5-2.2-2.1.1-6.8.1-13.5 0-20.3 0-1.6.5-2.2 2.1-2.2 5.3.1 10.7.1 16 0 1.6 0 2.2.5 2.2 2.1v10.2zm0 88.9c0 3.4-.1 6.8 0 10.1 0 1.6-.6 2.2-2.2 2.1-5.3-.1-10.7-.1-16 0-1.6 0-2.2-.6-2.1-2.2.1-6.8.1-13.5 0-20.3 0-1.6.5-2.2 2.2-2.2 5.3.1 10.7.1 16 0 1.7 0 2.2.6 2.1 2.2v10.3zm22.2-105.5c.1 1.8-.6 2.3-2.3 2.2-5.2-.1-10.3-.1-15.5 0-1.6 0-2.4-.3-2.4-2.2.1-7.3.1-14.6 0-21.9 0-1.7.6-2.1 2.2-2.1 5.2.1 10.5.1 15.7 0 1.8 0 2.3.6 2.2 2.3-.1 3.6 0 7.1 0 10.7.1 3.7 0 7.4.1 11zm-20.1 132.9v-10.9c0-1.5.4-2.1 2-2 5.4.1 10.9.1 16.3 0 1.4 0 1.9.5 1.9 1.8v22.4c0 1.4-.4 1.9-1.8 1.9-5.5 0-11-.1-16.5 0-1.5 0-1.8-.7-1.8-2-.1-3.7-.1-7.5-.1-11.2zm-44.8-27.4c0-3.5.1-6.9 0-10.4 0-1.7.6-2.4 2.3-2.4 5.3.1 10.7.1 16 0 1.6 0 2.4.5 2.4 2.3-.1 6.9-.1 13.7 0 20.5 0 1.8-.7 2.3-2.4 2.3-5.4-.1-10.9-.1-16.3 0-1.7 0-2.1-.7-2.1-2.2.2-3.4.1-6.7.1-10.1zm0-99c0-1.6.5-2.2 2.1-2.2 5.4.1 10.9.1 16.3 0 1.7 0 2.4.6 2.4 2.3-.1 6.9 0 13.7 0 20.6 0 1.6-.6 2.3-2.2 2.2-5.4 0-10.9-.1-16.3 0-1.7 0-2.4-.7-2.3-2.4.1-3.5 0-6.9 0-10.4 0-3.3.1-6.7 0-10.1zM255 388.9c0 1.6-.3 2.4-2.2 2.4-5.3-.1-10.7-.1-16 0-1.8 0-2.3-.7-2.2-2.4.1-7.2.1-14.4 0-21.7 0-1.7.5-2.1 2.2-2.1 5.3.1 10.7.1 16 0 1.8 0 2.3.7 2.2 2.4-.1 3.6 0 7.1 0 10.7 0 3.5-.1 7.1 0 10.7zm-20.4-154.5c0-3.6.1-7.1 0-10.7 0-1.7.4-2.4 2.2-2.4 5.3.1 10.7.1 16 0 1.9 0 2.2.7 2.2 2.4-.1 7.1-.1 14.3 0 21.4 0 1.6-.3 2.4-2.2 2.4-5.3-.1-10.7-.1-16 0-1.9 0-2.2-.7-2.2-2.4.1-3.6 0-7.2 0-10.7zm44.3-11c0-1.7.6-2.2 2.2-2.1 5.3.1 10.5.1 15.8 0 1.7 0 2.4.6 2.4 2.3-.1 7.2-.1 14.4 0 21.6 0 1.6-.4 2.2-2.1 2.2-5.3-.1-10.7-.1-16 0-1.6 0-2.2-.5-2.2-2.1.1-3.6 0-7.3 0-10.9 0-3.7 0-7.4-.1-11zm.1 154.9c0-3.7.1-7.3 0-11 0-1.6.6-2.2 2.2-2.1 5.3.1 10.7.1 16 0 1.7 0 2.1.6 2.1 2.2-.1 7.2-.1 14.4 0 21.6 0 1.7-.7 2.4-2.4 2.4-5.3-.1-10.5-.1-15.8 0-1.9 0-2.2-.8-2.2-2.4.1-3.6.1-7.2.1-10.7zm-1.7-144c0 3.6-.1 7.1 0 10.7 0 1.8-.4 2.6-2.3 2.5-5.4-.1-10.9-.1-16.3 0-1.6 0-2.2-.5-2.2-2.2.1-7.3 0-14.6 0-21.9 0-1.6.6-2.2 2.2-2.2 5.4.1 10.9.1 16.3 0 1.8 0 2.3.7 2.3 2.4-.1 3.6 0 7.1 0 10.7zm-20.8 143.6c0-3.6.1-7.1 0-10.7 0-1.6.5-2.2 2.2-2.2 5.5.1 11 .1 16.5 0 1.7 0 2.1.7 2.1 2.2-.1 7.2-.1 14.4 0 21.6 0 1.9-.8 2.4-2.6 2.4-5.2-.1-10.5-.1-15.7 0-1.8 0-2.5-.6-2.5-2.5.1-3.5 0-7.1 0-10.8zm-32.1 49.8c0-3.8.1-7.7 0-11.5 0-1.6.3-2.4 2.2-2.4 5.2.1 10.3.1 15.5 0 1.5 0 2 .5 2 2-.1 7.8 0 15.7 0 23.5 0 1.6-.5 2.3-2.2 2.2-5.1-.1-10.2-.1-15.3 0-1.8 0-2.3-.7-2.3-2.4.1-3.7.1-7.5.1-11.4zm20.3 15.1c4.2 0 8.4.1 12.6 0 1.7 0 2.4.4 2.4 2.2-.1 4.9-.1 9.8 0 14.7 0 1.7-.6 2.4-2.4 2.3-8.5-.1-16.9 0-25.4 0-1.6 0-2.2-.6-2.2-2.2.1-5 .1-10 0-15 0-1.7.7-2.1 2.2-2.1 4.3.1 8.6.1 12.8.1zm35.8 37.2c0 4.8-.1 9.6 0 14.4 0 1.8-.4 2.5-2.4 2.5-5.1-.1-10.2-.1-15.2 0-1.6 0-2.2-.5-2.2-2.1.1-9.8.1-19.6 0-29.4 0-1.5.4-2.3 2.1-2.2 5.2.1 10.3.1 15.5 0 1.6 0 2.2.5 2.2 2.1V480zm-1.6-200.4c0-2.3.7-2.9 2.9-2.8 5.1.1 10.2.1 15.2 0 1.7 0 2.3.5 2.4 2.3.2 7.5.2 7.5-7.3 7.5-5.1 0-5.1 0-5.1 5 0 10.6.1 21.2 0 31.8 0 2.1.6 2.8 2.7 2.7 2.6-.2 5.2 0 7.8-.1 1.4 0 2 .5 1.9 1.9v.5c.2 7.3.2 7.3-7.1 7.3-3.3 0-6.6-.2-9.9.1-2.6.2-3.6-.5-3.5-3.3.2-8.7.1-17.5.1-26.2-.1-8.9 0-17.8-.1-26.7zm-92.6 163.2c5.4 0 10.9.1 16.3 0 1.8 0 2.5.4 2.5 2.4-.1 4.8-.1 9.6 0 14.4 0 1.8-.6 2.5-2.5 2.5-11-.1-21.9-.1-32.9 0-1.7 0-2.4-.5-2.3-2.3.1-4.9.1-9.8 0-14.7 0-1.7.5-2.3 2.3-2.3h16.6zm-66.5 54.1c-1.7 0-2.2-.6-2-2.2.8-7.8 1.6-15.6 2.5-23.5.2-2 .6-4.1.7-6.1 0-1.8.9-2 2.4-2 5.8.1 11.6.1 17.4 0 1.8 0 2.2.6 2.2 2.3-.1 9.7-.1 19.4 0 29.1 0 1.7-.5 2.4-2.3 2.3-3.5-.1-6.9 0-10.4 0-3.5.1-7 0-10.5.1zm139.8-16.6c0 4.7-.1 9.4 0 14.2 0 1.8-.3 2.6-2.3 2.5-6.7-.1-13.4-.1-20 0-1.7 0-2.4-.4-2.3-2.2.1-9.8.1-19.6 0-29.4 0-1.6.5-2.2 2.2-2.2 6.8.1 13.5.1 20.3 0 1.9 0 2.2.8 2.2 2.4-.2 4.9-.1 9.8-.1 14.7zM143.5 462c-6.5 0-13-.1-19.5 0-2 0-2.7-.6-2.5-2.6.6-5 1.1-10.1 1.6-15.1.2-1.8 1.4-1.5 2.5-1.5h21.1c5.7 0 11.4.1 17.1 0 1.7 0 2.4.5 2.3 2.3-.1 4.8-.1 9.6 0 14.4.1 2-.5 2.6-2.6 2.6-6.6-.2-13.3-.1-20-.1zm26.2 18c0 4.8-.1 9.6 0 14.4 0 1.8-.4 2.5-2.3 2.5-7-.1-14.1-.1-21.1 0-1.6 0-2.2-.5-2.2-2.1.1-9.8.1-19.6 0-29.4 0-1.5.3-2.3 2.1-2.2 7.1.1 14.3.1 21.4 0 1.6 0 2.2.5 2.2 2.1-.2 4.9-.1 9.8-.1 14.7zm1.1 0c0-4.9.1-9.8 0-14.7 0-1.6.4-2.2 2.1-2.2 7.4.1 14.8.1 22.2 0 1.6 0 2 .6 2 2v29.7c0 1.5-.4 2.1-2 2-7.4-.1-14.8-.1-22.2 0-1.7 0-2.1-.6-2.1-2.2.1-4.7 0-9.7 0-14.6zm-41.9-38.4h-15.2c-1.7 0-2.3-.4-2.1-2.3.9-7.7 1.8-15.4 2.5-23 .2-1.8.6-2.5 2.5-2.4 9.3.1 18.5.1 27.8 0 1.9 0 2.5.5 2.4 2.4-.1 7.6-.1 15.1 0 22.7 0 2-.6 2.7-2.6 2.6h-15.3zm134-.3h-15.5c-1.6 0-2.2-.5-2.2-2.1.1-7.8.1-15.5 0-23.3 0-1.5.5-2 2-2 10.4.1 20.9 0 31.3 0 1.7 0 2.1.7 2.1 2.2-.1 7.7-.1 15.3 0 23 0 1.9-.8 2.2-2.4 2.2-5.1-.1-10.2 0-15.3 0zm-96.4-27.4h16c1.6 0 2.2.5 2.2 2.1-.1 7.7-.1 15.5 0 23.2 0 2-.9 2.3-2.6 2.2-10.7-.4-21.4-.4-32 0-1.7.1-2.3-.4-2.3-2v-23.5c0-1.7.6-2.1 2.2-2.1 5.5.1 11 .1 16.5.1zm64.3 49.2c1.9 0 2.7.4 2.7 2.5-.1 9.7-.1 19.4 0 29.2 0 1.6-.6 2.1-2.2 2.1-10.2-.1-20.3-.1-30.5 0-1.8 0-2.3-.6-2.3-2.3.1-9.6.1-19.3 0-28.9 0-2 .5-2.7 2.5-2.6 5 .1 10 0 15 0 5 .1 9.9.1 14.8 0zm25.7-156.8c0-9 .1-18 0-27 0-2 .6-2.6 2.6-2.6 5.3.1 10.5.1 15.8 0 1.9 0 2.4.6 2.4 2.5-.1 18-.1 36 0 54.1 0 2-.6 2.6-2.6 2.6-5.3-.1-10.5-.1-15.8 0-1.9 0-2.5-.6-2.4-2.5.1-9 0-18 0-27.1zm25.2 173.9c0-4.8.1-9.6 0-14.4 0-2 .7-2.6 2.7-2.6 9.2.1 18.4.1 27.6 0 1.8 0 2.3.6 2.5 2.4 1.4 14 3 27.9 4.6 41.9.2 1.7-.4 2.3-2 2.2h-6.7c-.9 0-1.9 0-1.8-1.3.1-3-1.6-5.8-1-8.9.3-2-.6-2.6-2.6-2.6-6.9.1-13.7 0-20.6.1-2 0-2.6-.6-2.6-2.6 0-4.8-.1-9.5-.1-14.2zm-.1-42.5c0-7.1.1-14.3 0-21.4 0-1.9.6-2.4 2.5-2.4 7.6.1 15.2.1 22.7 0 1.6 0 2.2.4 2.3 2.1.9 9.7 2 19.5 3 29.2.5 4.3 1 8.6 1.6 13 .4 3.4.3 3.5-3 3.5-8.8 0-17.6-.1-26.5 0-2 0-2.6-.6-2.6-2.6.1-7.2 0-14.3 0-21.4zm41.8 71.9c-2.8.4-3.6-1.3-3.7-3.5-.4-12.8-2.5-25.5-3.8-38.3-1.7-17.1-3.6-34.2-5.5-51.3-.2-2.1.2-2.7 2.4-2.7 6.2 0 12.5-.4 18.6-1.4 1.6-.3 2.3.2 2.8 1.8 8.9 29.1 17.8 58.3 26.8 87.4.6 2.1-.5 2.2-1.7 2.6-10.2 2.9-20.7 4.6-31.3 5.4-1.6 0-3.1-.2-4.6 0zm61.1-203.2v48.2c0 2.4-.5 3.2-3.1 3.2-9-.2-18-.1-27 0-2.1 0-2.7-.6-2.7-2.7.1-13.2 0-26.4.1-39.6 0-2.5-.7-3.2-3.2-3.2-12.6.1-25.2.1-37.7 0-2.2 0-3 .7-2.9 2.9.1 2 0 4.1 0 6.2.1 1.6-.5 2.2-2.1 2.2-4.9-.1-9.8-.1-14.7 0-1.7 0-2.1-.8-2.1-2.3v-30c0-1.5.4-2.3 2.1-2.3 4.9.1 9.8.1 14.7 0 1.7 0 2.2.6 2.1 2.2-.1 2.3 0 4.6 0 7 0 1.5.6 2.1 2.1 2.1h39.6c2.2 0 2.1-1.4 2.1-2.9v-38.5c0-4.5-.5-4 4-4 8.5 0 17 .1 25.4-.1 2.8-.1 3.4.9 3.4 3.5-.2 16-.1 32.1-.1 48.1zM99.4 509.6c-16.7-.7-32.6-3.5-48.2-8.3-12.7-3.9-24.8-9-36.1-15.9-1.9-1.2-2.1-2.1-.9-4 15.9-25.5 31.7-51 47.5-76.6 1-1.6 1.9-2 3.6-1.2 12.7 5.4 26 8.6 39.7 10 1.8.2 3.6.3 5.3.2 1.8-.1 2.3.7 2.1 2.4-.7 5.8-1.2 11.5-1.8 17.3L107 468c-1.3 12.7-2.6 25.3-3.9 38-.3 3.7-.4 3.6-3.7 3.6zm410.4-212.4c-.2 26.5-4.4 54.5-14.4 81.6-.8 2.3-1.7 1.6-3 1.1-16.8-6.6-33.7-13.2-50.5-19.9-2.1-.8-3.3-.7-4.4 1.4-2.1 3.8-4.6 7.4-6.7 11.2-.8 1.5-1.5 1.5-2.9.7-8.6-4.9-17.2-9.8-25.9-14.5-1.7-.9-1.4-1.7-.8-3.1 13.1-30.6 13.3-61.6 3.1-92.9-.8-2.3-.6-3.3 1.7-4.4 7-3.3 14-6.7 20.8-10.4 2.2-1.1 3-.5 4.1 1.3 2.1 3.6 4.4 7.1 6.6 10.7.8 1.3 1.5 1.8 3.2 1.2 19.5-7.3 38.9-14.4 58.4-21.6 3.2-1.2 3.2-1.2 4.1 2.3 3.1 12 5.4 24.2 6.1 36.6.2 5.5.4 11 .5 18.7zm-146 205.6c-1.7.2-1.5-1.1-1.8-1.9-2.9-9.3-5.7-18.6-8.5-27.9l-18-58.8c-.6-1.8-.3-2.3 1.5-2.9 26.7-9 47.8-25.1 61.4-50.2 1-1.8 1.6-2.2 3.5-1.1 8.7 5 17.6 9.9 26.3 14.9 1.5.9 2.2.8 3-.8 2.3-4 4.9-7.9 7.2-11.9.9-1.5 1.7-1.6 3.2-1 17 6.7 34 13.4 51 19.9 1.5.6 1.5 1.2 1 2.5-13.6 33.8-34.8 61.8-63.7 84-19.2 14.7-40 26.4-63 34.1-1 .5-2.1.8-3.1 1.1zM270 202.4c12.3 0 24.6-.1 36.9 0 9.6.2 19.1.8 28.6 2.6 8 1.5 15.4 4.7 22.5 8.6 9.7 5.4 18.6 11.8 25.9 20.2 5.3 6 9.4 12.8 13.2 20 3.5 6.6 5.8 13.5 7.4 20.6 2.1 9.1 3.3 18.4 3.5 27.9.3 12.2-1.1 24.1-4 35.8-3.4 13.8-9.8 26.2-18.9 37.2-6.7 8.2-14.7 14.9-23.4 20.7-6.6 4.4-13.9 7.8-21.3 10.8-7.6 3.1-15.4 3.4-23.2 3.6-9 .2-17.9.1-26.9.1H120.2c-3.6 0-7.2.3-10.9.2-8.9-.2-17.4-2.3-26-4.3-6.5-1.5-12.8-3.9-19-6.2-4.5-1.7-8.2-4.9-11.6-8.4-2-2-4.4-3.7-5.7-6.3-.8-1.6-.8-2.9.5-4.3 3.9-4.3 7.6-8.7 11.5-13 2.9-3.3 4.5-3.3 7.7-.3 7 6.7 15 11.8 24.1 15.3 7.1 2.7 14.5 3.9 22 4.9 4.9.7 9.8.4 14.7.4h99.6c2.2 0 4.1.5 5.4 2.3 2.2 3 5.5 3.4 8.8 3.6 2.2.1 4.5.3 6.7 0 6-1 11.9 0 17.8.1 3.3.1 6.6-.2 9.8-.5 3.3-.4 6.6.4 9.8.5 4.7.2 9.4-.5 14.1-.6 4.6-.1 9.2.7 13.9.6 6.9-.1 12.2-2.8 16.6-8.1 4.4-5.4 8.8-10.7 12.6-16.5 2-3.1 2.9-6.6 3.6-10.2.2-1.1.2-2.5 1.4-3 1.4-.6 2.1.8 2.8 1.6 2.2 2.6 5.4 2.3 8.2 2.4 6.6.3 13.2.1 19.8.1 6.4-.1 8.6-2.8 9.2-9.2.4-4.3 0-8.7.1-12.9.1-3.8.1-7.7 0-11.6-.1-4.4 0-9 0-13.5.1-3.8.4-7.7-.1-11.6-.1-.5-.2-1.1-.1-1.6 1-4.3.2-8.7.2-12.9v-11.6c0-4.5-.2-9 0-13.5.3-6.1-1.5-10.7-9-10.8-8.2 0-16.4-.6-24.6.4-1.9.2-3 1.3-4.3 2.5-.7.6-1.2 1.9-2.3 1.5-1.1-.4-1.2-1.8-1.3-2.8-.4-3.4-1.4-6.6-2.9-9.6-3.1-6-7.7-10.8-11.8-16.1-2.2-2.9-4.6-5.6-7.9-7.4-5.8-3.2-12.1-2.5-18.3-2.1-3.3.2-6.5.3-9.8 0-4.3-.5-8.7-.5-13.1 0-3.4.3-6.7.3-10.1 0-3.9-.4-7.8-.4-11.7.1-3.1.4-6.2.4-9.3 0-4.1-.5-8.2-.4-12.3-.1-2.9.2-5.2 1.6-7 3.9-1.4 1.8-3.1 2.8-5.6 1.9-.8-.3-1.8-.1-2.7-.1-33.8 0-67.6-.1-101.4.1-16.3.1-31.9 3.6-45.8 12.6-4.7 3-4.3 2.6-7.6-.9-4-4.3-8.4-8.4-12.1-13-2.3-2.8-2.3-4 .4-6.2 9-7.5 19.3-11.9 31.1-13.1 4.5-.5 8.9-.3 13.3-.4 24.7-.8 49.4-.5 74.1-.6 5.2 0 7.7-2.6 7.8-8 .1-6.4 0-12.8 0-19.3 0-3.3 1.5-4.8 4.9-4.8h27c4.1 0 5 .9 5 5 0 5.3-.1 10.5 0 15.8 0 1.9.2 3.7.7 5.5 1 4.2 3.3 5.8 8.3 5.8 13.7.2 27.2.2 40.6.2zm64.2-1.1c-6-.5-12-1.4-18.1-1.4-29.4-.2-58.9-.1-88.3-.1-3.5 0-3.5 0-3.5-3.5 0-8.7-.1-17.5 0-26.2 0-2.1-.5-2.9-2.8-2.9-12.8.1-25.5.1-38.3 0-2.2 0-2.9.7-2.9 2.9.1 8.9 0 17.8.1 26.8 0 2.4-.6 3-3 3-27.1-.1-54.2-.1-81.3.1-5.8 0-11.5.8-17.2 1.7-5.2 2.4-10.7 3.9-15.6 7-4.3 2.7-8.4 5.8-12.3 9.1-1.4 1.2-1.3 1.9-.1 3.2 6.7 7.2 13.3 14.4 19.9 21.7.9 1 1.5 1 2.6.2 13.4-10.6 28.9-15.3 45.8-15.4 36.8-.2 73.5 0 110.3-.1 2.2 0 2.7.7 2.7 2.7-.1 51.1 0 102.2 0 153.3 0 1.8-.5 2.5-2.4 2.5-37.3-.1-74.6.2-111.9-.2-21-.2-39.1-7.8-53.3-23.8-1.2-1.3-1.9-1.6-3.2-.1-6.1 6.8-12.4 13.6-18.7 20.3-1.2 1.3-1.3 2.1-.2 3.5 5.1 6.2 10.4 12 17.4 16.1 2.2 1.3 1 2.4.3 3.6-6.5 10.5-13.1 21.1-19.6 31.6-9.2 14.9-18.4 29.7-27.6 44.6-1.1 1.7-1.9 2.3-3.7 1-19.1-13.1-37.1-27.5-52.1-45.3-17-20.3-28.1-43.5-34-69.2-7.6-32.8-10.1-65.9-6.1-99.3 3.2-26.9 13-51.6 27.9-74.2 22.2-33.6 51.1-59.5 87.6-76.7 6-2.8 12.2-5.5 18.8-6.8 3.5-2.2 7.5-2.7 11.3-3.5 10.7-2.4 21.6-3.4 32.5-3.9 5.5-.3 11-.3 16.5-.3 67.1 0 134.3-.2 201.4.1 16.4.1 32.9 1.8 48.6 7.4 2.1-.3 4.2.5 6 1.2 7.4 2.7 14.9 5.4 22.1 8.5 7.4 3.2 14.7 6.7 21.7 10.8 8.2 4.8 16.2 9.7 23.9 15.3 11.8 8.7 22.7 18.4 32.2 29.5 9.2 10.6 16.9 22.1 23.2 34.6 4 7.9 7.3 16.1 10 24.6.7 2 0 2.7-1.6 3.3-8.5 3.1-17.1 6.3-25.6 9.4-10.7 3.9-21.4 7.8-32.1 11.9-2.1.8-3.1.4-4.2-1.5-2.1-3.6-4.5-7.1-6.6-10.7-1-1.6-1.7-1.9-3.5-1-7.6 4-15.3 7.7-22.9 11.6-1.3.7-1.9.6-2.5-.9-13.2-29.5-36.1-47.5-67.1-55.6 0-.3-.3-.4-.5-.5zm-148 218.3c-.7-5.7-.7-5.7 4.9-5.7h28.6c3.6 0 3.6 0 3.5 3.6 0 .7-.1 1.4-.1 2.1.1 6.7.1 13.4.2 20 0 1.5-.7 2-2.1 2H188c-1.2 0-2.1-.3-2.1-1.8.2-6.7-.4-13.5.3-20.2zm48.5-123.7c0-5.7 0-11.4-.1-17.1 0-1.5.4-2 2-2 5.5.1 11 0 16.6 0 1.1 0 1.9.2 1.8 1.6-.2 5.9.3 11.8-.3 17.6 1.2.2 1.3 1 1.3 1.9v18.8c0 .8.1 1.6-1 1.8 0 5-.1 10 0 15 0 1.7-.5 2.3-2.3 2.3-5.3-.1-10.7-.1-16.1 0-1.7 0-2.1-.5-2.1-2.2.1-5 0-10-.1-15-1-.7-1.1-1.7-1.1-2.8v-17.5c.1-1 0-2.1 1.4-2.4zM199.3 99.7c-31.9.9-71.5-1.4-111 1-7.2.4-14.3 1.5-21.4 2.6-8.3 1.3-16.1 4.2-24 7-10.2 3.6-19.7 8.4-29 13.8-9.1 5.3-17.5 11.5-25.8 17.9-5.3 4-10.2 8.6-14.8 13.3-3.5 3.6-6.9 7.3-10.4 10.9-6 6.3-11 13.5-16.2 20.4-4.4 5.8-8.1 12.3-11.7 18.7-5.1 9.2-9.3 18.8-12.8 28.7-2.9 8.1-5.1 16.5-6.5 25-1.8 10.5-3.5 21-3.4 31.7.1 6.2-.1 12.3 0 18.5.1 3.7.3 7.5.6 11.2.8 7.3 1.6 14.6 2.6 21.9.7 5.4 1.1 10.8 2.5 16 2.1 8.1 3.8 16.2 6.3 24.2 2.8 8.9 6.2 17.6 10.4 25.8 6.4 12.2 13.7 23.8 23.3 33.9 4.7 4.9 9.2 10.2 14.2 14.8 8.9 8.3 18.6 15.6 28.4 22.8 3.1 2.3 6.6 3.8 9.7 6 8.8 6.3 18.6 10.9 28.6 14.7 10.9 4.1 22.2 7.5 33.8 9.3 9.1 1.4 18.2 3.1 27.5 2.8 2.9-.1 5.8-.2 8.8.3 4.5.7 8.8-3 9.3-7.6.4-4 1.5-5 5.6-5h115.9c9 0 18 .1 26.9 0 4.8 0 9.6-.3 14.4-.2 5.6.1 11.2.1 16.8.2 5.8.1 5.8 0 7.1 5.6.9 3.7 2.9 6 6.9 6.9 2.1.5 4-.3 6.1-.2 8.2.3 16.3-.4 24.4-1.4 9.3-1.2 18.1-4 26.8-6.8 11.7-3.8 22.8-9.2 33.7-15.3 6.1-3.4 12-7 17.7-10.9 11.9-8 22.8-17.1 32.9-27.4 7.1-7.3 13.6-15.1 19.5-23.2 6.4-8.7 11.8-18.1 16.7-27.8 3-5.9 5.1-12.1 7.6-18.1 2.7-6.7 5-13.5 6.8-20.4 2-7.6 3.8-15.3 5.1-23.1 1.7-10.1 3-20.2 3.4-30.4.6-14.6.3-29.1-2-43.6-1.8-11.4-4.5-22.6-8.3-33.5-3.6-10.6-8.3-20.8-14.1-30.3-3.7-6.2-7.6-12.2-12.1-17.8-3.3-4-6.3-8.2-10.1-11.9-2-2-3.8-4.6-5.9-6.6-4-4-8.3-7.7-12.6-11.3-8.5-7.1-17.5-13.4-26.9-19.1-8.5-5.2-17.2-9.9-26.3-13.9-8.1-3.6-16.3-7.1-24.8-9.7-9.1-2.8-18.1-5.7-27.6-6.9-10.7-1.4-21.3-2.8-32-2.9-34.2-.8-68.6-.6-110.6-.6z"/><path fill="#4775E4" d="M32.1 308.9c3.6 0 7.1.1 10.7 0 1.7-.1 2.5.3 2.6 2.3.5 13 3.7 25.3 9.8 36.9.6 1.1.5 1.7-.3 2.6-6.4 6.9-12.8 13.9-19.2 20.9-1.7 1.9-2.1.3-2.7-.8-6.5-12.2-10.4-25.1-12.6-38.7-1.1-6.8-1.6-13.6-1.8-20.5 0-1.9.4-2.7 2.5-2.6 3.7.1 7.3-.1 11-.1zm.1-12.2c-3.7 0-7.5-.1-11.2 0-1.5 0-2.5-.3-2.1-2 .4-2-.6-2.6-2.4-3-6.6-1.4-13.2-2.9-19.8-4.4-1.2-.3-2.3-.4-1.7-2.2 3.2-10.7 6.2-21.4 10.7-31.6 1.1-2.4 2-2.9 4.4-1.5 4.2 2.4 8.6 4.4 12.8 6.7 1.6.9 2.2.6 2.8-1.1 3.2-9.7 7.8-18.7 13.8-27 1.4-2 2.1-1.9 3.7-.2 6.2 6.9 12.5 13.7 18.9 20.4 1.2 1.2 1.2 2 .1 3.3-9.3 11.8-14.3 25.3-16.2 40.2-.2 1.9-.9 2.6-2.8 2.5-3.7-.3-7.3-.1-11-.1zM79 201.5c-4.1-13.3-8.3-26.7-12.3-40-4.8-15.8-9.6-31.6-14.4-47.5-.3-1.1-.5-2.2-.8-3.4-6.6 1.4-12.8 4-18.8 6.8-36.5 17.2-65.5 43.1-87.6 76.7-14.9 22.6-24.7 47.3-27.9 74.2-4 33.4-1.5 66.6 6.1 99.3 6 25.7 17 48.9 34 69.2 15 17.9 33 32.2 52.1 45.3 1.8 1.3 2.7.7 3.7-1 9.1-14.9 18.4-29.7 27.6-44.6 6.5-10.5 13.1-21.1 19.6-31.6.8-1.2 1.9-2.3-.3-3.6-7-4.1-12.3-9.9-17.4-16.1-1.2-1.4-1.1-2.2.2-3.5 6.3-6.7 12.5-13.4 18.7-20.3 1.4-1.6 2.1-1.2 3.2.1 14.2 15.9 32.3 23.6 53.3 23.8 37.3.4 74.6.1 111.9.2 1.9 0 2.4-.6 2.4-2.5V229.7c0-2.1-.5-2.7-2.7-2.7-36.8.1-73.5 0-110.3.1-16.9.1-32.4 4.8-45.8 15.4-1.1.9-1.7.8-2.6-.2-6.6-7.3-13.2-14.5-19.9-21.7-1.2-1.3-1.3-2 .1-3.2 3.9-3.3 7.9-6.3 12.3-9.1 4.9-2.9 10.4-4.4 15.6-6.8z"/><path fill="#F40E48" d="M79 201.5c-4.1-13.3-8.3-26.7-12.3-40-4.8-15.8-9.6-31.6-14.4-47.5-.3-1.1-.5-2.2-.8-3.4 3.5-2.2 7.5-2.7 11.3-3.5 10.7-2.4 21.6-3.4 32.5-3.9 5.5-.3 11-.3 16.5-.3 67.1 0 134.3-.2 201.4.1 16.4.1 32.9 1.8 48.6 7.4l-27.6 90.9c-6-.5-12-1.4-18.1-1.4-29.4-.2-58.9-.1-88.3-.1-3.5 0-3.5 0-3.5-3.5 0-8.7-.1-17.5 0-26.2 0-2.1-.5-2.9-2.8-2.9-12.8.1-25.5.1-38.3 0-2.2 0-2.9.7-2.9 2.9.1 8.9 0 17.8.1 26.8 0 2.4-.6 3-3 3-27.1-.1-54.2-.1-81.3.1-5.6-.1-11.4.7-17.1 1.5z"/><path fill="#0B010C" d="M270 202.4c12.3 0 24.6-.1 36.9 0 9.6.2 19.1.8 28.6 2.6 8 1.5 15.4 4.7 22.5 8.6 9.7 5.4 18.6 11.8 25.9 20.2 5.3 6 9.4 12.8 13.2 20 3.5 6.6 5.8 13.5 7.4 20.6 2.1 9.1 3.3 18.4 3.5 27.9.3 12.2-1.1 24.1-4 35.8-3.4 13.8-9.8 26.2-18.9 37.2-6.7 8.2-14.7 14.9-23.4 20.7-6.6 4.4-13.9 7.8-21.3 10.8-7.6 3.1-15.4 3.4-23.2 3.6-9 .2-17.9.1-26.9.1H120.1c-3.6 0-7.2.3-10.9.2-8.9-.2-17.4-2.3-26-4.3-6.5-1.5-12.8-3.9-19-6.2-4.5-1.7-8.2-4.9-11.6-8.4-2-2-4.4-3.7-5.7-6.3-.8-1.6-.8-2.9.5-4.3 3.9-4.3 7.6-8.7 11.5-13 2.9-3.3 4.5-3.3 7.7-.3 7 6.7 15 11.8 24.1 15.3 7.1 2.7 14.5 3.9 22 4.9 4.9.7 9.8.4 14.7.4H227c2.2 0 4.1.5 5.4 2.3 2.2 3 5.5 3.4 8.8 3.6 2.2.1 4.5.3 6.7 0 6-1 11.9 0 17.8.1 3.3.1 6.6-.2 9.8-.5 3.3-.4 6.6.4 9.8.5 4.7.2 9.4-.5 14.1-.6 4.6-.1 9.2.7 13.9.6 6.9-.1 12.2-2.8 16.6-8.1 4.4-5.4 8.8-10.7 12.6-16.5 2-3.1 2.9-6.6 3.6-10.2.2-1.1.2-2.5 1.4-3 1.4-.6 2.1.8 2.8 1.6 2.2 2.6 5.4 2.3 8.2 2.4 6.6.3 13.2.1 19.8.1 6.4-.1 8.6-2.8 9.2-9.2.4-4.3 0-8.7.1-12.9.1-3.8.1-7.7 0-11.6-.1-4.4 0-9 0-13.5.1-3.8.4-7.7-.1-11.6-.1-.5-.2-1.1-.1-1.6 1-4.3.2-8.7.2-12.9v-11.6c0-4.5-.2-9 0-13.5.3-6.1-1.5-10.7-9-10.8-8.2 0-16.4-.6-24.6.4-1.9.2-3 1.3-4.3 2.5-.7.6-1.2 1.9-2.3 1.5-1.1-.4-1.2-1.8-1.3-2.8-.4-3.4-1.4-6.6-2.9-9.6-3.1-6-7.7-10.8-11.8-16.1-2.2-2.9-4.6-5.6-7.9-7.4-5.8-3.2-12.1-2.5-18.3-2.1-3.3.2-6.5.3-9.8 0-4.3-.5-8.7-.5-13.1 0-3.4.3-6.7.3-10.1 0-3.9-.4-7.8-.4-11.7.1-3.1.4-6.2.4-9.3 0-4.1-.5-8.2-.4-12.3-.1-2.9.2-5.2 1.6-7 3.9-1.4 1.8-3.1 2.8-5.6 1.9-.8-.3-1.8-.1-2.7-.1-33.8 0-67.6-.1-101.4.1-16.3.1-31.9 3.6-45.8 12.6-4.7 3-4.3 2.6-7.6-.9-4-4.3-8.4-8.4-12.1-13-2.3-2.8-2.3-4 .4-6.2 9-7.5 19.3-11.9 31.1-13.1 4.5-.5 8.9-.3 13.3-.4 24.7-.8 49.4-.5 74.1-.5 5.2 0 7.7-2.6 7.8-8 .1-6.4 0-12.8 0-19.3 0-3.3 1.5-4.8 4.9-4.8h27c4.1 0 5 .9 5 5 0 5.3-.1 10.5 0 15.8 0 1.9.2 3.7.7 5.5 1 4.2 3.3 5.8 8.3 5.8 13.8.1 27.3.1 40.7.1z"/><path fill="#121212" d="M334.2 201.3l27.6-90.9c2.1-.3 4.2.5 6 1.2 7.4 2.7 14.9 5.4 22.1 8.5 7.4 3.2 14.7 6.7 21.7 10.8 8.2 4.8 16.2 9.7 23.9 15.3 11.8 8.7 22.7 18.4 32.2 29.5 9.2 10.6 16.9 22.1 23.2 34.6 4 7.9 7.3 16.1 10 24.6.7 2 0 2.7-1.6 3.3-8.5 3.1-17.1 6.3-25.6 9.4-10.7 3.9-21.4 7.8-32.1 11.9-2.1.8-3.1.4-4.2-1.5-2.1-3.6-4.5-7.1-6.6-10.7-1-1.6-1.7-1.9-3.5-1-7.6 4-15.3 7.7-22.9 11.6-1.3.7-1.9.6-2.5-.9-13.2-29.5-36.1-47.5-67.1-55.6-.1.1-.4 0-.6-.1zM363.8 502.8c-1.7.2-1.5-1.1-1.8-1.9-2.9-9.3-5.7-18.6-8.5-27.9l-18-58.8c-.6-1.8-.3-2.3 1.5-2.9 26.7-9 47.8-25.1 61.4-50.2 1-1.8 1.6-2.2 3.5-1.1 8.7 5 17.6 9.9 26.3 14.9 1.5.9 2.2.8 3-.8 2.3-4 4.9-7.9 7.2-11.9.9-1.5 1.7-1.6 3.2-1 17 6.7 34 13.4 51 19.9 1.5.6 1.5 1.2 1 2.5-13.6 33.8-34.8 61.8-63.7 84-19.2 14.7-40 26.4-63 34.1-1 .5-2.1.8-3.1 1.1z"/><path fill="#121212" d="M509.8 297.2c-.2 26.5-4.4 54.5-14.4 81.6-.8 2.3-1.7 1.6-3 1.1-16.8-6.6-33.7-13.2-50.5-19.9-2.1-.8-3.3-.7-4.4 1.4-2.1 3.8-4.6 7.4-6.7 11.2-.8 1.5-1.5 1.5-2.9.7-8.6-4.9-17.2-9.8-25.9-14.5-1.7-.9-1.4-1.7-.8-3.1 13.1-30.6 13.3-61.6 3.1-92.9-.8-2.3-.6-3.3 1.7-4.4 7-3.3 14-6.7 20.8-10.4 2.2-1.1 3-.5 4.1 1.3 2.1 3.6 4.4 7.1 6.6 10.7.8 1.3 1.5 1.8 3.2 1.2 19.5-7.3 38.9-14.4 58.4-21.6 3.2-1.2 3.2-1.2 4.1 2.3 3.1 12 5.4 24.2 6.1 36.6.2 5.5.4 11 .5 18.7z"/><path fill="#603DBF" d="M99.4 509.6c-16.7-.7-32.6-3.5-48.2-8.3-12.7-3.9-24.8-9-36.1-15.9-1.9-1.2-2.1-2.1-.9-4 15.9-25.5 31.7-51 47.5-76.6 1-1.6 1.9-2 3.6-1.2 12.7 5.4 26 8.6 39.7 10 1.8.2 3.6.3 5.3.2 1.8-.1 2.3.7 2.1 2.4-.7 5.7-1.2 11.5-1.8 17.3L107 468c-1.3 12.7-2.6 25.3-3.9 38-.3 3.7-.4 3.6-3.7 3.6z"/><path fill="#020202" d="M373.7 295.9v3.2c0 .6.1 1.3-.8 1.3-.8 0-1.1-.5-1-1.2.4-2.4-1.1-2.3-2.7-2.2-1.8.1-3.6 0-5.3 0-.8 0-1.9.5-2-1-.1-1.5 1.1-1.1 1.9-1.1 2.1 0 4.1-.1 6.1 0 1.4.1 2.2-.3 2-1.9-.1-.7-.1-1.6.9-1.6 1.3 0 .9 1.1.9 1.8.1.9 0 1.8 0 2.7zm.1-8.3c-.1.4-.1 1-.2 1.6-.2.6-.6.9-1.2.6-.4-.2-.8-.3-.6-1 .2-.7.3-1.4.2-2.1 0-.6-.3-1.2-1-1.4-.7-.1-1.2.1-1.6.7-.4.7-.7 1.4-1 2.2-.7 1.5-1.8 2.5-3.5 2.3-1.9-.2-2.8-1.5-3.1-3.2-.1-.8-.2-1.6-.1-2.4.2-.8 0-2.1 1.2-2 1.5.1.6 1.3.6 2.1-.1 1.2-.5 2.7 1.2 3.1 1.5.3 1.9-1 2.3-2.1.8-1.8 1.7-3.5 4.1-3 2.2.6 2.7 2.4 2.7 4.6zm-11 22.2c-.9.2-1-.3-1-.7-.1-1 .3-1.5 1.3-1.7 1.3-.3 2.3-.6 2.2-2.4-.1-1.4-.2-2.4-1.9-2.6-1.1-.1-1.9-.7-1.5-2 .5-1.2 1.4-.3 2-.1 2.9.9 5.8 1.8 8.6 2.8 1.4.5 1.9 2.8.7 3.3-3.6 1.3-7.1 2.4-10.4 3.4zm5.1 13.4h.8c5.5 0 5.5 0 5 5.5-.1.7.2 1.5-1 1.5-.9 0-.9-.7-.9-1.4v-1.3c0-1.1.1-2.1-1.6-2-1.8 0-1.3 1.2-1.5 2.2-.1.8.7 2.3-.9 2.3-1.4 0-.8-1.4-.8-2.1 0-1.4 0-2.4-1.9-2.3-1.9.1-1.7 1.1-1.6 2.3v1.1c0 .7.3 1.6-.8 1.6-1.3 0-.9-1.1-.9-1.8-.1-1.2.1-2.5 0-3.7-.1-1.2.3-1.8 1.6-1.7 1.4-.1 3-.2 4.5-.2zM365 321c-.9-.3-2.5.8-3.1-1.2-.8-2.6-.1-6.2 1.6-7.7 2-1.7 5.6-1.8 7.7-.2 2.1 1.5 3.3 5.4 2.3 7.7-.2.5-.5 1-1.1.8-.6-.2-.8-.6-.7-1.2.3-1 .3-2.1 0-3.2-.6-2.2-2.5-3.3-5-2.9-2.3.4-3.3 1.8-3.4 4.1 0 .8 0 1.5 1 1.5.7 0 1.7.4 2.1-.6.3-.6 0-1.6 1.1-1.4 1.1.2.7 1.3.7 2 0 .8.5 1.9-.9 2.1-.6.3-1.3.2-2.3.2zm19.5-14.6c0-16.1-.1-32.1.1-48.2 0-2.6-.5-3.6-3.4-3.5-8.5.2-17 .1-25.4.1-4.5 0-4-.5-4 4v38.5c0 1.5.2 2.9-2.1 2.9h-39.6c-1.5 0-2.1-.6-2.1-2.1 0-2.3-.1-4.6 0-7 .1-1.6-.5-2.2-2.1-2.2-4.9.1-9.8.1-14.7 0-1.7 0-2.1.7-2.1 2.3v30c0 1.5.4 2.3 2.1 2.3 4.9-.1 9.8-.1 14.7 0 1.7 0 2.2-.6 2.1-2.2-.1-2 .1-4.1 0-6.1-.2-2.2.6-2.9 2.9-2.9 12.6.1 25.2.1 37.7 0 2.5 0 3.2.8 3.2 3.2-.1 13.2 0 26.4-.1 39.6 0 2.1.6 2.7 2.7 2.7 9-.1 18-.1 27 0 2.6 0 3.1-.8 3.1-3.2-.1-16.1 0-32.1 0-48.2z"/><path fill="#121212" d="M327.9 509.6c-1.5 0-3.1-.2-4.5 0-2.8.4-3.6-1.3-3.7-3.5-.4-12.8-2.5-25.5-3.8-38.3-1.7-17.1-3.6-34.2-5.5-51.3-.2-2.1.2-2.7 2.4-2.7 6.2 0 12.5-.4 18.6-1.4 1.6-.3 2.3.2 2.8 1.8 8.9 29.1 17.8 58.3 26.8 87.4.6 2.1-.5 2.2-1.7 2.6-10.3 2.9-20.7 4.6-31.4 5.4z"/><path fill="#41BCA9" d="M281.6 437.7c0-7.1.1-14.3 0-21.4 0-1.9.6-2.4 2.5-2.4 7.6.1 15.2.1 22.7 0 1.6 0 2.1.4 2.3 2.1.9 9.7 2 19.5 3 29.2.5 4.3 1 8.6 1.6 13 .4 3.4.3 3.5-3 3.5-8.8 0-17.6-.1-26.5 0-2 0-2.6-.6-2.6-2.6.1-7.2 0-14.3 0-21.4z"/><path fill="#E24493" d="M281.7 480.2c0-4.8.1-9.6 0-14.4 0-2 .7-2.6 2.7-2.6 9.2.1 18.4.1 27.6 0 1.8 0 2.3.6 2.5 2.4 1.4 14 3 27.9 4.6 41.9.2 1.7-.4 2.3-2 2.3h-6.7c-.9 0-1.9 0-1.8-1.3.1-3-1.6-5.8-1-8.9.3-2-.6-2.6-2.6-2.6-6.9.1-13.7 0-20.6.1-2 0-2.6-.6-2.6-2.6 0-4.9-.1-9.6-.1-14.3z"/><path fill="#B13EB5" d="M256.5 306.3c0-9 .1-18 0-27 0-2 .6-2.6 2.6-2.6 5.3.1 10.5.1 15.8 0 1.9 0 2.4.6 2.4 2.5-.1 18-.1 36 0 54.1 0 2-.6 2.6-2.6 2.6-5.3-.1-10.5-.1-15.8 0-1.9 0-2.5-.6-2.4-2.5.1-9 0-18 0-27.1z"/><path fill="#FF9327" d="M216.1 463.2c4.9 0 9.8.1 14.7 0 1.9 0 2.7.4 2.7 2.5-.1 9.7-.1 19.4 0 29.2 0 1.6-.6 2.1-2.2 2.1-10.2-.1-20.3-.1-30.5 0-1.8 0-2.3-.6-2.3-2.3.1-9.6.1-19.3 0-28.9 0-2 .5-2.7 2.5-2.6 5.1.1 10.1 0 15.1 0z"/><path fill="#41BCA9" d="M166.6 413.9h16c1.6 0 2.2.5 2.2 2.1-.1 7.7-.1 15.5 0 23.2 0 2-.9 2.3-2.6 2.2-10.7-.4-21.4-.4-32 0-1.7.1-2.3-.4-2.3-2v-23.5c0-1.7.6-2.1 2.2-2.1 5.4.1 10.9.1 16.5.1zM262.9 441.3h-15.5c-1.6 0-2.2-.5-2.2-2.1.1-7.8.1-15.5 0-23.3 0-1.5.5-2 2-2 10.4 0 20.9.1 31.3 0 1.7 0 2.1.7 2.1 2.2-.1 7.7-.1 15.3 0 23 0 1.9-.8 2.2-2.4 2.2-5.1-.1-10.2 0-15.3 0zM128.9 441.6h-15.2c-1.7 0-2.3-.4-2.1-2.3.9-7.7 1.8-15.4 2.5-23 .2-1.8.6-2.5 2.5-2.4 9.3.1 18.5.1 27.8 0 1.9 0 2.5.5 2.4 2.4-.1 7.6-.1 15.1 0 22.7 0 2-.6 2.7-2.6 2.6h-15.3z"/><path fill="#FF9327" d="M170.9 480c0-4.9.1-9.8 0-14.7 0-1.6.4-2.2 2.1-2.2 7.4.1 14.8.1 22.2 0 1.6 0 2 .6 2 2v29.7c0 1.5-.4 2.1-2 2-7.4-.1-14.8-.1-22.2 0-1.7 0-2.1-.6-2.1-2.2 0-4.7-.1-9.7 0-14.6z"/><path fill="#E24493" d="M169.7 480c0 4.8-.1 9.6 0 14.4 0 1.8-.4 2.5-2.3 2.5-7-.1-14.1-.1-21.1 0-1.6 0-2.2-.5-2.2-2.1.1-9.8.1-19.6 0-29.4 0-1.5.3-2.3 2.1-2.2 7.1.1 14.3.1 21.4 0 1.6 0 2.2.5 2.2 2.1-.2 4.9-.1 9.8-.1 14.7z"/><path fill="#41BCA9" d="M143.5 462c-6.5 0-13-.1-19.5 0-2 0-2.7-.6-2.5-2.6.6-5 1.1-10.1 1.6-15.1.2-1.8 1.4-1.5 2.5-1.6h21.1c5.7 0 11.4.1 17.1 0 1.7 0 2.4.5 2.3 2.3-.1 4.8-.1 9.6 0 14.4 0 2-.5 2.6-2.6 2.6-6.6-.1-13.3 0-20 0z"/><path fill="#FF9327" d="M259.6 480.3c0 4.7-.1 9.4 0 14.2 0 1.8-.3 2.6-2.3 2.5-6.7-.1-13.4-.1-20 0-1.7 0-2.4-.4-2.3-2.2.1-9.8.1-19.6 0-29.4 0-1.6.5-2.2 2.2-2.2 6.8.1 13.5.1 20.3 0 1.9 0 2.2.8 2.2 2.4-.2 4.9-.1 9.8-.1 14.7z"/><path fill="#41BCA9" d="M223.1 419.6c.1 6.7.1 13.4.2 20 0 1.5-.7 2-2.1 2H188c-1.2 0-2.1-.3-2.1-1.8.2-6.8-.3-13.5.3-20.3 12.3.3 24.6.3 36.9.1z"/><path fill="#E24493" d="M130.3 496.9c-3.5 0-7-.1-10.4 0-1.7 0-2.2-.6-2-2.2.8-7.8 1.6-15.7 2.5-23.5.2-2 .6-4.1.7-6.1 0-1.8.9-2 2.4-2 5.8.1 11.6.1 17.4 0 1.8 0 2.3.6 2.2 2.3-.1 9.7-.1 19.4 0 29.1 0 1.7-.5 2.4-2.3 2.3-3.6 0-7.1.1-10.5.1z"/><path fill="#41BCA9" d="M186.3 442.8c5.4 0 10.9.1 16.3 0 1.8 0 2.5.4 2.5 2.3-.1 4.8-.1 9.6 0 14.4 0 1.8-.6 2.5-2.5 2.5-11-.1-21.9-.1-32.9 0-1.7 0-2.4-.5-2.3-2.3.1-4.9.1-9.8 0-14.7 0-1.7.5-2.3 2.3-2.3 5.6.1 11.1.1 16.6.1z"/><path fill="#59DEFD" d="M278.9 306.3c0-8.9.1-17.8-.1-26.7 0-2.3.7-2.9 2.9-2.8 5.1.1 10.2.1 15.2 0 1.7 0 2.3.5 2.4 2.3.2 7.5.2 7.5-7.3 7.5-5.1 0-5.1 0-5.1 5 0 10.6.1 21.2 0 31.8 0 2.1.6 2.8 2.7 2.7 2.6-.2 5.2 0 7.7-.1 1.4 0 2 .5 1.9 1.9v.5c.2 7.3.2 7.3-7.1 7.3-3.3 0-6.6-.2-9.9.1-2.6.2-3.6-.5-3.5-3.3.3-8.7.2-17.5.2-26.2z"/><path fill="#E24493" d="M280.5 480c0 4.8-.1 9.6 0 14.4 0 1.8-.4 2.5-2.4 2.5-5.1-.1-10.2-.1-15.2 0-1.6 0-2.2-.5-2.2-2.1.1-9.8.1-19.6 0-29.4 0-1.5.4-2.3 2.1-2.2 5.2.1 10.3.1 15.5 0 1.6 0 2.2.5 2.2 2.1V480z"/><path fill="#41BCA9" d="M244.7 442.8c4.2 0 8.4.1 12.6 0 1.7 0 2.4.4 2.4 2.2-.1 4.9-.1 9.8 0 14.7 0 1.7-.6 2.4-2.4 2.3-8.5-.1-16.9 0-25.4 0-1.6 0-2.2-.6-2.2-2.2.1-5 .1-10 0-15 0-1.7.7-2.1 2.2-2.1 4.3.1 8.6.1 12.8.1zM224.4 427.7c0-3.8.1-7.7 0-11.5 0-1.6.3-2.4 2.2-2.4 5.2.1 10.3.1 15.5 0 1.5 0 2 .5 2 2-.1 7.9 0 15.7 0 23.5 0 1.6-.5 2.3-2.2 2.2-5.1-.1-10.2-.1-15.3 0-1.8 0-2.3-.7-2.3-2.4.1-3.7.1-7.5.1-11.4z"/><path fill="#B13EB5" d="M256.5 377.9c0-3.6.1-7.1 0-10.7 0-1.6.5-2.2 2.2-2.2 5.5.1 11 .1 16.5 0 1.7 0 2.1.7 2.1 2.2-.1 7.2-.1 14.4 0 21.6 0 1.9-.8 2.4-2.6 2.4-5.2-.1-10.5-.1-15.7 0-1.8 0-2.5-.6-2.5-2.5.1-3.5 0-7.1 0-10.8zM277.3 234.3c0 3.6-.1 7.1 0 10.7 0 1.8-.4 2.6-2.3 2.5-5.4-.1-10.9-.1-16.3 0-1.6 0-2.2-.5-2.2-2.2.1-7.3 0-14.6 0-21.9 0-1.6.6-2.2 2.2-2.2 5.4.1 10.9.1 16.3 0 1.8 0 2.3.7 2.3 2.4-.1 3.6 0 7.1 0 10.7z"/><path fill="#59DEFD" d="M279 378.3c0-3.6.1-7.3 0-11 0-1.6.6-2.2 2.2-2.1 5.3.1 10.7.1 16 0 1.7 0 2.1.6 2.1 2.2-.1 7.2-.1 14.4 0 21.6 0 1.7-.7 2.4-2.4 2.4-5.3-.1-10.5-.1-15.8 0-1.9 0-2.2-.8-2.2-2.4.1-3.6.1-7.2.1-10.7zM279 234.3c0-3.6.1-7.3 0-11 0-1.7.6-2.2 2.2-2.1 5.3.1 10.5.1 15.8 0 1.7 0 2.4.6 2.4 2.3-.1 7.2-.1 14.4 0 21.6 0 1.6-.4 2.2-2.1 2.2-5.3-.1-10.7-.1-16 0-1.6 0-2.2-.5-2.2-2.1-.1-3.6-.1-7.2-.1-10.9z"/><path fill="#FF777B" d="M234.6 234.4c0-3.6.1-7.1 0-10.7 0-1.7.4-2.4 2.2-2.4 5.3.1 10.7.1 16 0 1.9 0 2.2.7 2.2 2.4-.1 7.1-.1 14.3 0 21.4 0 1.6-.3 2.4-2.2 2.4-5.3-.1-10.7-.1-16 0-1.9 0-2.2-.7-2.2-2.4.1-3.6 0-7.2 0-10.7zM255 378.2c0 3.6-.1 7.1 0 10.7 0 1.6-.3 2.4-2.2 2.4-5.3-.1-10.7-.1-16 0-1.8 0-2.3-.7-2.2-2.4.1-7.2.1-14.4 0-21.7 0-1.6.5-2.1 2.2-2.1 5.3.1 10.7.1 16 0 1.8 0 2.3.7 2.2 2.4-.1 3.5 0 7.1 0 10.7z"/><path fill="#B13EB5" d="M256.5 261.9c0-3.4.1-6.8 0-10.1 0-1.6.5-2.2 2.1-2.2 5.4.1 10.9.1 16.3 0 1.7 0 2.4.6 2.4 2.3-.1 6.9 0 13.7 0 20.6 0 1.6-.6 2.3-2.2 2.2-5.4-.1-10.9-.1-16.3 0-1.7 0-2.4-.7-2.3-2.4.1-3.5 0-7 0-10.4zM256.5 350.7c0-3.5.1-6.9 0-10.4 0-1.7.6-2.4 2.3-2.4 5.3.1 10.7.1 16 0 1.6 0 2.4.5 2.4 2.3-.1 6.9-.1 13.7 0 20.5 0 1.8-.7 2.3-2.4 2.3-5.4-.1-10.9-.1-16.3 0-1.7 0-2.1-.7-2.1-2.2.2-3.4.1-6.7.1-10.1z"/><path fill="#ECF863" d="M301.3 378.1v-10.9c0-1.5.4-2.1 2-2 5.4.1 10.9.1 16.3 0 1.4 0 1.9.5 1.9 1.8v22.4c0 1.4-.4 1.9-1.8 1.9-5.5-.1-11-.1-16.5 0-1.5 0-1.8-.7-1.8-2-.1-3.7-.1-7.5-.1-11.2zM321.4 234.3c0 3.6-.1 7.3 0 10.9.1 1.8-.6 2.3-2.3 2.2-5.2-.1-10.3-.1-15.5 0-1.6 0-2.4-.3-2.4-2.2.1-7.3.1-14.6 0-21.9 0-1.7.6-2.1 2.2-2.1 5.2.1 10.5.1 15.7 0 1.8 0 2.3.6 2.2 2.3 0 3.7.1 7.2.1 10.8z"/><path fill="#59DEFD" d="M299.2 350.7c0 3.4-.1 6.8 0 10.1 0 1.6-.6 2.2-2.2 2.1-5.3-.1-10.7-.1-16 0-1.6 0-2.2-.6-2.1-2.2.1-6.8.1-13.5 0-20.3 0-1.6.5-2.2 2.2-2.2 5.3.1 10.7.1 16 0 1.7 0 2.2.6 2.1 2.2v10.3zM299.2 261.8c0 3.4-.1 6.8 0 10.1 0 1.6-.5 2.2-2.1 2.2-5.3-.1-10.7-.1-16 0-1.6 0-2.2-.5-2.2-2.1.1-6.8.1-13.5 0-20.3 0-1.6.5-2.2 2.1-2.2 5.3.1 10.7.1 16 0 1.6 0 2.2.5 2.2 2.1v10.2z"/><path fill="#FF777B" d="M234.6 262c0-3.4.1-6.8 0-10.2 0-1.5.3-2.2 2.1-2.2 5.4.1 10.9.1 16.3 0 1.7 0 2.1.7 2.1 2.2-.1 6.8-.1 13.5 0 20.3 0 1.5-.4 2.3-2.1 2.2-5.4-.1-10.9-.1-16.3 0-1.7 0-2.1-.7-2-2.3 0-3.3-.1-6.7-.1-10zM234.6 350.6c0-3.5.1-6.9 0-10.4 0-1.5.5-2 2-2 5.4.1 10.9.1 16.3 0 1.7 0 2.1.7 2.1 2.2-.1 6.8-.1 13.5 0 20.3 0 1.8-.6 2.3-2.3 2.2-5.3-.1-10.5-.1-15.8 0-2 0-2.4-.7-2.3-2.5.1-3.2 0-6.5 0-9.8z"/><path fill="#ECF863" d="M343.2 262.1v10.1c0 1.4-.3 2.1-1.9 2.1-5.5-.1-11-.1-16.6 0-1.4 0-1.8-.5-1.8-1.9 0-6.9.1-13.9 0-20.8 0-1.6.6-2 2.1-1.9 5.4.1 10.9.1 16.3 0 1.6 0 2 .6 1.9 2v10.4zM343.2 350.8c0 3.4-.1 6.8 0 10.1 0 1.5-.5 2-2 2-5.4-.1-10.9-.1-16.3 0-1.5 0-2-.5-2-2 .1-6.9.1-13.9 0-20.8 0-1.4.5-1.9 1.9-1.8h16.6c1.4 0 1.9.5 1.8 1.9v10.6z"/><path fill="#E24493" d="M114.5 463.2c5.5 0 5.3 0 4.6 5.6-1.1 8.8-1.9 17.7-2.8 26.5-.4 4.2-.8 8.3-1.1 12.5-.1 1.5-.9 2-2.3 1.9-2-.1-4.1-.1-6.2 0-2 .1-2.5-.7-2.3-2.5.8-7.5 1.6-15 2.4-22.6.6-5.8 1.3-11.7 1.9-17.5.4-3.9.2-3.9 4.2-3.9h1.6z"/><path fill="#ECF863" d="M301.3 350.5v-10.4c0-1.2.1-2 1.7-1.9 5.4.1 10.9.1 16.3 0 1.6 0 2.2.5 2.1 2.1-.1 6.8-.1 13.7 0 20.5 0 1.7-.6 2.1-2.2 2.1-5.2-.1-10.5-.1-15.7 0-1.8 0-2.3-.7-2.2-2.3.1-3.3 0-6.7 0-10.1zM301.3 262.1v-10.4c0-1.5.4-2.1 2-2 5.4.1 10.9.1 16.3 0 1.4 0 1.9.4 1.9 1.8-.1 7 0 14.1 0 21.1 0 1.2-.3 1.8-1.6 1.8-5.7 0-11.4 0-17.1.1-1.6 0-1.4-1-1.4-1.9-.1-3.6-.1-7.1-.1-10.5z"/><path fill="#020202" d="M245.2 304.9c-.4-1.5-1.6-1.2-2.6-1.9 1.8-.9 3.5-.6 5.1-.3.8.1.5 1.2.2 2-1-.1-.7-1.2-1.6-1.6-.4.9-1.6 1.6.4 2.3 1.2.4 1.8 4.1.8 4.5-3.6 1.4.2 1.4.3 2.4-1.7.4-3.3.4-5.3-.1.5-.8 1.2-.5 1.7-.8.8-.4.8-1.1 0-1.2-1.1-.2-.9-.9-1.2-1.5-1.5-2.7.5-3.1 2.2-3.8zm-10.7 13.8c1.2-.6 2.5-.1 3.7-.4.1-.1.3-.1.4-.1.1 0 .1.1.2.1H252c.2 0 .3-.1.5-.1.1 0 .1.1.2.1l2.2.3c1.1-.2 1-1 1-1.8V298c0-1-.1-1.8-1.3-1.9-6.7.1-13.3.3-20-.1-1.5.3-1.3 1.5-1.3 2.5V316c.1 1 .3 2 1.2 2.7z"/><path fill="#41BCA9" d="M217.4 442.8h9.1c1.4 0 2.1.3 2.1 1.9-.1 5.1-.1 10.1 0 15.2 0 1.7-.8 2.1-2.3 2.1h-17.9c-1.6 0-2.2-.5-2.2-2.2.1-5.1.1-10.1 0-15.2 0-1.4.5-1.9 1.9-1.9 3.1.1 6.2.1 9.3.1z"/><path fill="#59DEFD" d="M322.9 287.3c0-2.8.1-5.5 0-8.3 0-1.5.3-2.3 2.1-2.3 5.4.1 10.9.1 16.3 0 1.5 0 2 .6 2 2.1-.1 5.6-.1 11.2 0 16.9 0 1.7-.6 2.1-2.2 2.1-5.4-.1-10.7-.1-16.1 0-1.7 0-2.2-.6-2.1-2.2v-8.3zM322.9 325.3V317c0-1.5.3-2.3 2.1-2.3 5.4.1 10.9.1 16.3 0 1.5 0 2 .6 2 2.1v16.9c0 1.4-.3 2.1-1.9 2.1-5.5-.1-11.1-.1-16.6 0-1.4 0-1.9-.5-1.9-1.9v-8.6z"/><path fill="#FF777B" d="M254.7 296c-6.7.1-13.4.3-20-.1 0-5.7 0-11.4-.1-17.1 0-1.5.4-2 2-2 5.5.1 11 0 16.6 0 1.1 0 1.9.2 1.8 1.6-.2 5.8.3 11.7-.3 17.6z"/><path fill="#41BCA9" d="M270.4 461.7h-7.7c-1.4 0-1.9-.5-1.9-1.9v-15.2c0-1.4.6-1.8 1.9-1.8h16c1.3 0 1.9.4 1.9 1.8-.1 5.1 0 10.1 0 15.2 0 1.4-.6 1.9-1.9 1.9-2.8-.1-5.6 0-8.3 0z"/><path fill="#FF777B" d="M238.9 318.2h13.2c.1.1.1.2.2.1.2 0 .3-.1.5-.1l2.2.3c0 5-.1 10 0 15 0 1.7-.5 2.3-2.3 2.3-5.3-.1-10.7-.1-16.1 0-1.7 0-2.1-.5-2.1-2.2.1-5 0-10-.1-15 1.2-.6 2.5-.1 3.7-.4.1 0 .1.1.2.1.3.1.5 0 .6-.1z"/><path fill="#59DEFD" d="M321.3 325.4c0 2.7-.1 5.3 0 8 .1 1.7-.4 2.4-2.2 2.4-5.2-.1-10.3-.1-15.5 0-1.8 0-2.2-.7-2.3-2.4-.1-7.2-.2-7.3 6.8-7.4 1.9 0 2.5-.7 2.4-2.5-.1-2.2 0-4.5-.1-6.7-.1-1.7.6-2.2 2.2-2.1 2.1.1 4.3.1 6.4 0 1.8-.1 2.3.7 2.2 2.4 0 2.8.1 5.5.1 8.3zM321.3 287.4c0 2.7-.1 5.3 0 8 .1 1.7-.4 2.5-2.2 2.4-2.1-.1-4.3-.1-6.4 0-1.8.1-2.3-.7-2.2-2.4.1-2-.1-4.1.1-6.1.1-2-.4-2.9-2.6-2.8-2.1.1-5 1.1-6.1-.5-1.3-2.1-.4-5.2-.4-7.8 0-1.1.7-1.3 1.6-1.3h16.6c1.5 0 1.7.8 1.7 2.1-.1 2.7-.1 5.5-.1 8.4z"/><path fill="#ECF863" d="M323 390.3v-23.2c0-1.3.3-2 1.8-1.9 6 .1 11.9 0 18.6 0l-19.8 25.4-.6-.3zM343.3 247.4h-18.7c-1.1 0-1.6-.4-1.6-1.5v-24.5c7 8.9 13.4 17.2 20.3 26zM223.1 419.6c-12.3.2-24.6.2-36.9 0-.7-5.7-.7-5.7 4.9-5.7h28.6c3.6 0 3.6 0 3.5 3.6 0 .7-.1 1.4-.1 2.1z"/><path fill="#41BCA9" d="M114.7 462c-5.2 0-5.3 0-5-5 .3-3.9.7-7.8 1.1-11.7.2-1.7.8-2.8 2.8-2.5 1 .1 2.1 0 3.2 0 4.9 0 5 0 4.6 4.8-.4 3.9-1.1 7.8-1.3 11.7-.1 2.4-1.2 3.1-3.3 2.8-.6-.2-1.3-.1-2.1-.1z"/><path fill="#2A2738" d="M32.4 293.4c-1.7 0-3.4-.1-5.1 0-2.8.3-5.1-.6-7.2-2.3-3.4-2.8-7.4-3.7-11.6-4.2-2.1-.3-4.2-.8-6.2-1.5-2.9-1-3.6-2.9-2.7-5.9L5.9 260c1.3-4.1 3.3-4.9 7.3-3.1 3.4 1.5 6.3 4.1 10.4 3.8 2.1-.1 3.6-.9 4.4-2.8 2.6-5.6 5.2-11.1 7.8-16.6.8-1.6 1.7-3.1 2.7-4.6 1.8-2.7 3.9-2.9 6.1-.4 3.7 4.2 7.4 8.4 11.4 12.3 2.6 2.6 2.8 4.4.8 7.5-5.2 7.8-9 16.3-11.6 25.3-.7 2.5-1 5-1.4 7.5-.4 2.7-2.4 4.4-5.1 4.4-2 .1-4.1.1-6.3.1zm-.2 3.3c3.7 0 7.3-.1 11 .1 2 .1 2.6-.6 2.8-2.5 1.8-14.8 6.9-28.4 16.2-40.2 1.1-1.3 1-2.1-.1-3.3-6.3-6.8-12.7-13.6-18.9-20.4-1.5-1.7-2.2-1.8-3.7.2-6 8.3-10.6 17.3-13.8 27-.6 1.7-1.2 2-2.8 1.1-4.2-2.3-8.6-4.3-12.8-6.7-2.4-1.4-3.4-.9-4.4 1.5-4.5 10.2-7.5 21-10.7 31.6-.5 1.8.5 1.9 1.7 2.2 6.6 1.5 13.2 3 19.8 4.4 1.8.4 2.8 1 2.4 3-.4 1.8.6 2.1 2.1 2 3.7-.1 7.5 0 11.2 0zM32.2 312.2h6.4c2.1 0 3.3.9 3.7 3 1 4.9 1.9 9.9 2.8 14.9 1 5.3 3.4 10.1 5.3 15.1 1.1 2.8.9 4.9-1.1 7-4 4.5-7.7 9.3-12.3 13.2-1.3 1.1-2.2.8-3.1-.3-.5-.6-1-1.2-1.3-2-4.4-10.1-7.5-20.7-9-31.6-.7-4.9-1.5-9.8-1.6-14.8-.1-3.6 1-4.5 4.6-4.5h5.6zm-11.1-3.3c-2.1-.1-2.5.7-2.5 2.6.2 6.9.7 13.7 1.8 20.5 2.1 13.6 6.1 26.6 12.6 38.7.6 1.1 1 2.7 2.7.8 6.3-7 12.8-13.9 19.2-20.9.8-.9.9-1.5.3-2.6-6.1-11.5-9.4-23.8-9.8-36.9-.1-2-.9-2.3-2.6-2.3-3.6.1-7.1 0-10.7 0-3.7.1-7.3.3-11 .1z"/><path fill="#EDECEC" d="M365 321c-.9-.3-2.5.8-3.1-1.2-.8-2.6-.1-6.2 1.6-7.7 2-1.7 5.6-1.8 7.7-.2 2.1 1.5 3.3 5.4 2.3 7.7-.2.5-.5 1-1.1.8-.6-.2-.8-.6-.7-1.2.3-1 .3-2.1 0-3.2-.6-2.2-2.5-3.3-5-2.9-2.3.4-3.3 1.8-3.4 4.1 0 .8 0 1.5 1 1.5.7 0 1.7.4 2.1-.6.3-.6 0-1.6 1.1-1.4 1.1.2.7 1.3.7 2 0 .8.5 1.9-.9 2.1-.6.3-1.3.2-2.3.2zM367.9 323.2h.8c5.5 0 5.5 0 5 5.5-.1.7.2 1.5-1 1.5-.9 0-.9-.7-.9-1.4v-1.3c0-1.1.1-2.1-1.6-2-1.8 0-1.3 1.2-1.5 2.2-.1.8.7 2.3-.9 2.3-1.4 0-.8-1.4-.8-2.1 0-1.4 0-2.4-1.9-2.3-1.9.1-1.7 1.1-1.6 2.3v1.1c0 .7.3 1.6-.8 1.6-1.3 0-.9-1.1-.9-1.8-.1-1.2.1-2.5 0-3.7-.1-1.2.3-1.8 1.6-1.7 1.4-.1 3-.2 4.5-.2zM368.1 306c-.5.2-1.1.5-1.3-.2-.2-.6-.1-1.2 0-1.8.1-.5.7-.5 1.1-.3 1.1.3 2.1.7 3.7 1.2-1.6.4-2.5.8-3.5 1.1zm-5.3 3.8c3.3-1.1 6.9-2.1 10.3-3.5 1.2-.5.8-2.8-.7-3.3-2.9-1-5.7-1.9-8.6-2.8-.6-.2-1.5-1.1-2 .1-.5 1.2.4 1.8 1.5 2 1.6.2 1.8 1.2 1.9 2.6.1 1.8-.9 2.1-2.2 2.4-.9.2-1.4.7-1.3 1.7.1.6.2 1 1.1.8zM373.8 287.6c-.1.4-.1 1-.2 1.6-.2.6-.6.9-1.2.6-.4-.2-.8-.3-.6-1 .2-.7.3-1.4.2-2.1 0-.6-.3-1.2-1-1.4-.7-.1-1.2.1-1.6.7-.4.7-.7 1.4-1 2.2-.7 1.5-1.8 2.5-3.5 2.3-1.9-.2-2.8-1.5-3.1-3.2-.1-.8-.2-1.6-.1-2.4.2-.8 0-2.1 1.2-2 1.5.1.6 1.3.6 2.1-.1 1.2-.5 2.7 1.2 3.1 1.5.3 1.9-1 2.3-2.1.8-1.8 1.7-3.5 4.1-3 2.2.6 2.7 2.4 2.7 4.6zM373.7 295.9v3.2c0 .6.1 1.3-.8 1.3-.8 0-1.1-.5-1-1.2.4-2.4-1.1-2.3-2.7-2.2-1.8.1-3.6 0-5.3 0-.8 0-1.9.5-2-1-.1-1.5 1.1-1.1 1.9-1.1 2.1 0 4.1-.1 6.1 0 1.4.1 2.2-.3 2-1.9-.1-.7-.1-1.6.9-1.6 1.3 0 .9 1.1.9 1.8.1.9 0 1.8 0 2.7z"/><path fill="#EC8689" d="M245.3 306.2c.7.1 1.7-.1 1.7.8.1 1.1-1 1-1.7 1s-1.6 0-1.6-.9c0-1 .9-.8 1.6-.9zm-.1-1.3c-1.8.7-3.7 1.1-2.1 3.9.4.7.1 1.3 1.2 1.5.8.2.8.8 0 1.2-.5.2-1.2-.1-1.7.8 2 .4 3.6.4 5.3.1-.1-.9-3.9-1-.3-2.4 1-.4.4-4.1-.8-4.5-2-.7-.8-1.4-.4-2.3.9.4.6 1.5 1.6 1.5.3-.8.5-1.9-.2-2-1.6-.3-3.3-.6-5.1.3.9.7 2.2.4 2.5 1.9z"/><path fill="#642723" d="M252.7 318.3c-.2 0-.3.1-.5.1-.1 0-.1-.1-.2-.1.2 0 .3-.1.5-.1.1-.1.2 0 .2.1zM238.9 318.2c-.1.1-.3.1-.4.2-.1 0-.1-.1-.2-.1.1 0 .3-.1.4-.1.1-.1.1 0 .2 0z"/><path fill="#0B010C" d="M32.4 293.4c-1.7 0-3.4-.1-5.1 0-2.8.3-5.1-.6-7.2-2.3-3.4-2.8-7.4-3.7-11.6-4.2-2.1-.3-4.2-.8-6.2-1.5-2.9-1-3.6-2.9-2.7-5.9L5.9 260c1.3-4.1 3.3-4.9 7.3-3.1 3.4 1.5 6.3 4.1 10.4 3.8 2.1-.1 3.6-.9 4.4-2.8 2.6-5.6 5.2-11.1 7.8-16.6.8-1.6 1.7-3.1 2.7-4.6 1.8-2.7 3.9-2.9 6.1-.5 3.7 4.2 7.4 8.4 11.4 12.3 2.6 2.6 2.8 4.4.8 7.5-5.2 7.8-9 16.3-11.6 25.3-.7 2.5-1 5-1.4 7.5-.4 2.7-2.4 4.4-5.1 4.4-2 .2-4.1.2-6.3.2zM32.2 312.2h6.4c2.1 0 3.3.9 3.7 3 1 4.9 1.9 9.9 2.8 14.9 1 5.3 3.4 10.1 5.3 15.1 1.1 2.8.9 4.9-1.1 7-4 4.5-7.7 9.3-12.3 13.2-1.3 1.1-2.2.8-3.1-.3-.5-.6-1-1.2-1.3-2-4.4-10.1-7.5-20.7-9-31.6-.7-4.9-1.5-9.8-1.6-14.8-.1-3.6 1-4.5 4.6-4.5h5.6z"/><path fill="#642723" d="M371.6 304.8c-1.6.5-2.6.9-3.5 1.2-.5.2-1.1.5-1.3-.2-.2-.6-.1-1.2 0-1.8.1-.5.7-.5 1.1-.3 1.1.2 2.1.6 3.7 1.1z"/><path fill="#020202" d="M245.3 306.2c.7.1 1.7-.1 1.7.8.1 1.1-1 1-1.7 1s-1.6 0-1.6-.9c0-1 .9-.8 1.6-.9z"/></svg>