<svg xmlns="http://www.w3.org/2000/svg" viewBox="-72 72.2 468 324"><path fill="#EAEAEA" d="M236.5 76.5c8.2 0 16.3 1.1 24.4 2.2 7.3 1 14.1 3.1 21.1 5.3 6.5 2 12.7 4.7 18.9 7.4 6.9 3.1 13.6 6.6 20.1 10.6 7.2 4.4 14 9.2 20.5 14.6 3.3 2.8 6.6 5.6 9.6 8.6 1.6 1.6 3 3.6 4.5 5.1 2.9 2.8 5.2 6 7.7 9 3.5 4.3 6.4 8.9 9.2 13.6 4.4 7.3 8 15.1 10.8 23.1 2.8 8.3 4.9 16.9 6.3 25.6 1.7 11.1 2 22.2 1.5 33.3-.3 7.7-1.3 15.5-2.6 23.2-1 6-2.3 11.8-3.9 17.6-1.4 5.3-3.1 10.5-5.2 15.6-1.9 4.6-3.6 9.4-5.8 13.8-3.7 7.4-7.9 14.6-12.7 21.2-4.6 6.2-9.5 12.2-14.9 17.7-7.7 7.8-16.1 14.8-25.1 20.9-4.4 3-8.9 5.7-13.5 8.3-8.3 4.6-16.7 8.8-25.7 11.7-6.7 2.1-13.4 4.3-20.4 5.2-6.2.8-12.4 1.3-18.6 1.1-1.6-.1-3 .5-4.6.2-3-.7-4.5-2.4-5.2-5.3-1-4.3-1.1-4.2-5.4-4.3-4.3-.1-8.6-.1-12.8-.2-3.6-.1-7.3.1-11 .2-6.8.1-13.7 0-20.5 0H94.7c-3.1 0-4 .8-4.3 3.8-.3 3.5-3.6 6.3-7.1 5.8-2.3-.4-4.5-.3-6.7-.2-7.1.2-14-1.1-21-2.2-8.9-1.3-17.5-3.9-25.8-7.1-7.6-2.9-15.1-6.4-21.8-11.2-2.3-1.7-5-2.8-7.4-4.5-7.5-5.5-14.9-11.1-21.7-17.4-3.8-3.5-7.2-7.5-10.8-11.3-7.3-7.7-12.9-16.5-17.8-25.8-3.3-6.3-5.8-12.9-8-19.7-1.9-6.1-3.2-12.3-4.8-18.5-1-4-1.4-8.1-1.9-12.2-.7-5.6-1.4-11.1-2-16.7-.3-2.8-.5-5.7-.5-8.5-.1-4.7 0-9.4 0-14.1-.1-8.2 1.2-16.2 2.6-24.2 1.1-6.5 2.8-12.8 5-19 2.7-7.5 5.8-14.9 9.8-21.9 2.7-4.9 5.6-9.8 8.9-14.3 4-5.3 7.8-10.7 12.4-15.5 2.6-2.8 5.3-5.6 7.9-8.3 3.5-3.6 7.2-7.1 11.3-10.2C-2.6 103.7 3.8 99 10.7 95c7.1-4.1 14.3-7.8 22.1-10.6 6-2.1 12-4.4 18.3-5.3 5.4-.8 10.8-1.6 16.3-2 30.2-1.8 60.4-.1 84.7-.8 32 .1 58.2 0 84.4.2zm93.9 287.8c7.3-5.6 14.2-11.6 20.5-18.3 1.9-2 3.6-4.2 5.5-6.3 4.3-4.7 8-9.8 11.5-15 4.6-7 8.6-14.3 12.1-21.9 2.9-6.4 5.5-12.9 7.5-19.6 2.8-9.4 5.1-19 6.3-28.7 1-7.9 1.9-15.7 1.9-23.7 0-6.2.2-12.5-.3-18.7-.4-4.5-1-8.9-1.5-13.3-.6-4.8-1.8-9.5-3-14.3-1.6-6.4-3.9-12.6-6.3-18.8-1.3-3.2-3.1-6.2-4.4-9.4-1-.7-1.3-1.8-1.6-2.9l-2.4-4.1c-.9-.9-1.5-2.1-2-3.3-.1-.3-.3-.5-.4-.8-.6-.8-1.3-1.6-1.8-2.4-7.4-11.4-16.8-21-27-29.8-9.2-7.9-19.3-14.5-30-20.3-14.2-7.7-29.2-13.5-44.9-17.3-7.6-1.8-15.3-3.2-23.1-3.2-60.7.1-121.5-.6-182.2.3-4.3.1-8.5.8-12.7 1.4-6.5 1-12.8 2.8-19.1 4.9-5.6 1.9-11.1 4.2-16.3 6.9-10 5.2-19.4 11.4-28.2 18.5-7 5.6-13.6 11.6-19.6 18.4-1.3 1.5-2.6 3.1-4.3 4.2-.3 1.2-1.2 2-1.9 2.8-7.6 9.2-14.2 19.2-19.6 29.9-3.5 7-6.6 14.2-8.7 21.7-1.9 6.6-3.8 13.3-4.6 20.2-.5 4.5-1.5 9-1.5 13.5-.1 12.2-.4 24.4 1 36.6.8 7.3 1.6 14.6 3 21.9 2.2 11.9 5.7 23.4 10.5 34.5 2.9 6.7 6.4 13 10.6 19 7.6 11 16.4 20.8 26.6 29.5 8.3 7 16.9 13.6 26 19.5 8.2 5.3 16.9 9.2 26.1 12.3 8 2.7 16.1 4.7 24.4 6 5.8.9 11.5 1.7 17.4 1.7h166c8.9.1 17.7-.3 26.5-2 12.5-2.4 24.3-6.8 35.6-12.3 10-4.6 19.4-10.7 28.4-17.3z"/><path fill="#FFF" d="M87.5 352.8c-4 0-4 0-3.8-3.8.2-3 .6-5.9.9-8.9.1-1.3.6-2.2 2.2-1.9.8.1 1.6 0 2.4 0 3.8 0 3.8 0 3.5 3.7-.3 3-.8 5.9-1 8.9-.1 1.8-.9 2.3-2.5 2.1-.6-.2-1.1-.1-1.7-.1zm160.1-163.7c-.8 0-1.2-.3-1.2-1.2v-18.7l15.5 19.8c-5.1.1-9.7.1-14.3.1zm-1.2 109v-17.7c0-1 .2-1.5 1.4-1.5h14.1l-15.1 19.3-.4-.1zm-1.3-78.5c0 2-.1 4.1 0 6.1 0 1.3-.3 1.9-1.7 1.8-1.6-.1-3.3-.1-4.9 0-1.4.1-1.8-.6-1.7-1.8.1-1.6-.1-3.1 0-4.7.1-1.5-.3-2.2-2-2.1-1.6.1-3.8.8-4.6-.4-1-1.6-.3-4-.3-6 0-.8.6-1 1.2-1h12.6c1.2 0 1.3.6 1.3 1.6.1 2.2.1 4.4.1 6.5zm0 29c0 2-.1 4.1 0 6.1 0 1.3-.3 1.8-1.7 1.8-3.9-.1-7.9-.1-11.8 0-1.4 0-1.7-.5-1.7-1.8-.1-5.5-.1-5.6 5.2-5.6 1.5 0 1.9-.5 1.8-1.9-.1-1.7 0-3.4 0-5.1-.1-1.3.5-1.7 1.7-1.6 1.6.1 3.3.1 4.9 0 1.4-.1 1.8.5 1.7 1.8-.2 2.1-.1 4.2-.1 6.3zm-38.8 104h-5.9c-1 0-1.5-.4-1.4-1.4v-11.6c0-1.1.4-1.4 1.5-1.4h12.2c1 0 1.5.3 1.5 1.4v11.6c0 1.1-.4 1.4-1.5 1.4-2.2-.1-4.3 0-6.4 0zm40-104v-6.3c0-1.2.3-1.8 1.6-1.7 4.1.1 8.3 0 12.4 0 1.2 0 1.5.4 1.5 1.6v12.9c0 1.1-.3 1.6-1.5 1.6h-12.7c-1.1 0-1.4-.4-1.4-1.4.1-2.4.1-4.6.1-6.7zm0-29v-6.3c0-1.2.3-1.7 1.6-1.7 4.1.1 8.3 0 12.5 0 1.2 0 1.5.4 1.5 1.6 0 4.3-.1 8.6 0 12.9 0 1.3-.5 1.6-1.7 1.6-4.1 0-8.2-.1-12.2 0-1.3 0-1.7-.5-1.6-1.7 0-2.2-.1-4.3-.1-6.4zm-73.5 118.5c1.1 0 1.6.3 1.6 1.5-.1 3.9-.1 7.7 0 11.6 0 1.3-.6 1.6-1.7 1.6h-13.6c-1.2 0-1.7-.4-1.7-1.7v-11.6c0-1.1.4-1.4 1.4-1.4h7.1c2.3.1 4.6.1 6.9 0zm57-137.8v-7.9c0-1.1.3-1.6 1.5-1.6 4.1.1 8.3 0 12.4 0 1 0 1.4.3 1.4 1.4v16.1c0 .9-.2 1.4-1.2 1.4-4.3 0-8.7 0-13 .1-1.2 0-1.1-.8-1.1-1.5v-8zm0 59.5c0-.9.1-1.5 1.3-1.5 4.1.1 8.3.1 12.4 0 1.2 0 1.6.4 1.6 1.6-.1 5.2-.1 10.5 0 15.7 0 1.3-.5 1.6-1.7 1.6-4-.1-8-.1-12 0-1.4 0-1.7-.5-1.7-1.8.1-2.6 0-5.2 0-7.7.1-2.6.1-5.2.1-7.9zM87.3 353.7c4.2 0 4.1 0 3.5 4.2-.8 6.7-1.5 13.5-2.2 20.2-.3 3.2-.6 6.3-.9 9.5-.1 1.1-.7 1.5-1.7 1.5-1.6 0-3.1-.1-4.7 0-1.5.1-1.9-.5-1.7-1.9.6-5.7 1.2-11.5 1.8-17.2.5-4.5 1-8.9 1.4-13.4.3-3 .2-3 3.2-3l1.3.1zM261.8 268v7.7c0 1.1-.4 1.5-1.5 1.5-4.1-.1-8.3-.1-12.4 0-1.1 0-1.6-.4-1.5-1.5v-15.9c0-1.1.4-1.4 1.4-1.4h12.6c1.1 0 1.4.4 1.4 1.4v8.2zm0-67.7v7.7c0 1.1-.2 1.6-1.4 1.6-4.2-.1-8.4 0-12.6 0-1.1 0-1.4-.4-1.4-1.4v-15.9c0-1.2.5-1.5 1.6-1.5 4.1 0 8.3.1 12.4 0 1.2 0 1.5.4 1.5 1.5-.1 2.7-.1 5.4-.1 8zM179 259.9c0-1.2.4-1.5 1.5-1.5h12.4c1.3 0 1.6.5 1.6 1.7 0 5.2-.1 10.3 0 15.5 0 1.4-.5 1.7-1.8 1.7-4-.1-8-.1-12 0-1.5 0-1.8-.5-1.8-1.9.1-2.5 0-5 0-7.5.1-2.7.1-5.3.1-8zm0-59.7v-7.7c0-1.2.2-1.7 1.6-1.7 4.1.1 8.3.1 12.4 0 1.3 0 1.6.5 1.6 1.7V208c0 1.2-.3 1.7-1.6 1.7-4.1-.1-8.3-.1-12.4 0-1.3 0-1.6-.6-1.6-1.7v-7.8zm49.3-.1v7.7c0 1.2-.4 1.7-1.6 1.7-4.1-.1-8.1-.1-12.2 0-1.2 0-1.7-.4-1.7-1.6.1-5.2.1-10.3 0-15.5 0-1.2.4-1.7 1.6-1.7 4.1.1 8.1.1 12.2 0 1.2 0 1.7.4 1.7 1.6-.1 2.7 0 5.3 0 7.8zm0 67.8c0 2.6-.1 5.2 0 7.7 0 1.3-.4 1.7-1.7 1.6-4.1-.1-8.1-.1-12.2 0-1.3 0-1.6-.4-1.6-1.7.1-5.2.1-10.3 0-15.5 0-1.2.4-1.7 1.7-1.6 4.1.1 8.1.1 12.2 0 1.3 0 1.7.5 1.6 1.7-.1 2.7 0 5.2 0 7.8zm16.8-88.8c0 2.8-.1 5.6 0 8.3 0 1.4-.4 1.7-1.8 1.7-3.9-.1-7.9-.1-11.8 0-1.3 0-1.8-.3-1.8-1.7.1-5.6.1-11.1 0-16.7 0-1.3.5-1.6 1.7-1.6 4 .1 8 .1 12 0 1.4 0 1.7.5 1.7 1.8v8.2zm-15.3 109.7v-8.3c0-1.1.3-1.6 1.5-1.6 4.1.1 8.3 0 12.4 0 1.1 0 1.4.3 1.4 1.4v17.1c0 1.1-.3 1.5-1.4 1.4h-12.6c-1.1 0-1.4-.5-1.3-1.5.1-2.8 0-5.6 0-8.5zm-34.1-20.9V260c0-1.3.5-1.8 1.8-1.8h12.2c1.3 0 1.9.4 1.9 1.7v15.7c0 1.4-.6 1.8-1.8 1.7-4.1-.1-8.3-.1-12.4 0-1.3 0-1.6-.5-1.6-1.7-.1-2.5-.1-5.1-.1-7.7zm0-67.8v-7.7c0-1.2.3-1.7 1.6-1.7 4.1.1 8.3.1 12.4 0 1.3 0 1.8.4 1.8 1.8v15.7c0 1.2-.4 1.7-1.7 1.7h-12.4c-1.3 0-1.8-.5-1.8-1.8.1-2.7.1-5.3.1-8zm-1.2 88.8v8.2c0 1.2-.2 1.9-1.7 1.8-4.1-.1-8.2-.1-12.2 0-1.4 0-1.7-.5-1.7-1.8.1-5.5.1-11 0-16.5 0-1.3.4-1.6 1.6-1.6 4.1.1 8.2.1 12.2 0 1.4 0 1.7.5 1.7 1.8.1 2.6.1 5.3.1 8.1zM178.9 171c0-1.3.3-1.9 1.7-1.8 4.1.1 8.2.1 12.2 0 1.4 0 1.7.6 1.7 1.8-.1 5.4-.1 10.9 0 16.3 0 1.2-.2 1.8-1.7 1.8-4.1-.1-8.2-.1-12.2 0-1.4 0-1.7-.6-1.7-1.8.1-2.7 0-5.4 0-8.2.1-2.6.1-5.4 0-8.1zm33.9 8.1v-8.4c0-1.3.4-1.7 1.7-1.6 4 .1 8 0 12 0 1.3 0 1.8.5 1.8 1.8v16.5c0 1.2-.3 1.7-1.6 1.7-4.1-.1-8.2-.1-12.2 0-1.2 0-1.7-.4-1.7-1.6.1-2.8 0-5.6 0-8.4zm0 109.8c0-2.8.1-5.6 0-8.4 0-1.3.4-1.7 1.7-1.6 4.1.1 8.2.1 12.2 0 1.3 0 1.6.5 1.6 1.7v16.5c0 1.3-.5 1.8-1.8 1.8-4 0-8-.1-12 0-1.4 0-1.7-.6-1.7-1.8v-8.2zm-1.3-109.8c0 2.7-.1 5.4 0 8.1 0 1.3-.3 2-1.8 1.9-4.1-.1-8.3-.1-12.4 0-1.2 0-1.7-.4-1.7-1.6v-16.7c0-1.2.4-1.7 1.7-1.7h12.4c1.4 0 1.8.6 1.8 1.8v8.2zm-15.8 101.5c0-1.2.4-1.7 1.6-1.7 4.2.1 8.4.1 12.6 0 1.3 0 1.6.5 1.6 1.7 0 5.5-.1 11 0 16.5 0 1.5-.6 1.9-1.9 1.8-4-.1-8-.1-12 0-1.4 0-1.9-.5-1.9-1.9.1-2.8 0-5.6 0-8.3v-8.1zm-24.5 46.1v-8.8c0-1.3.3-1.8 1.7-1.8 3.9.1 7.9.1 11.8 0 1.1 0 1.6.3 1.6 1.5v18c0 1.2-.4 1.7-1.7 1.7H173c-1.4 0-1.8-.5-1.8-1.8v-8.8zm25.1 11.4c1.3 0 1.8.3 1.8 1.7-.1 3.7-.1 7.5 0 11.2 0 1.3-.5 1.8-1.8 1.8h-19.4c-1.2 0-1.7-.5-1.7-1.7 0-3.8.1-7.6 0-11.4 0-1.3.5-1.6 1.7-1.6 3.3.1 6.5 0 9.8 0 3.2.1 6.4.1 9.6 0zm17.7 39.4c0 1.4-.3 1.9-1.8 1.9-3.9-.1-7.8-.1-11.6 0-1.2 0-1.7-.4-1.7-1.6v-22.4c0-1.2.3-1.7 1.6-1.7 3.9.1 7.9.1 11.8 0 1.2 0 1.7.4 1.7 1.6-.1 3.7 0 7.5 0 11.2 0 3.7-.1 7.4 0 11zm-1.3-163.8c0-1.7.5-2.2 2.2-2.2 3.9.1 7.7.1 11.6 0 1.3 0 1.8.4 1.8 1.7.1 5.7.2 5.7-5.5 5.7-3.9 0-3.9 0-3.9 3.8V247c0 1.6.5 2.2 2.1 2.1 2-.1 3.9 0 5.9 0 1 0 1.5.4 1.4 1.4v.4c.1 5.6.1 5.6-5.4 5.6-2.5 0-5-.1-7.5 0-2 .1-2.7-.4-2.7-2.5.2-6.7.1-13.3.1-20 0-6.8 0-13.5-.1-20.3zm-70.6 124.5h12.4c1.4 0 1.9.3 1.9 1.8-.1 3.7-.1 7.3 0 11 0 1.4-.4 1.9-1.9 1.9h-25.1c-1.3 0-1.8-.4-1.8-1.7.1-3.7.1-7.5 0-11.2 0-1.3.4-1.8 1.8-1.8h12.7zm-42.7 41.2c-2.6 0-5.3-.1-8 0-1.3 0-1.7-.5-1.6-1.7.6-6 1.2-11.9 1.9-17.9.2-1.5.5-3.1.5-4.6 0-1.3.7-1.5 1.8-1.5 4.4 0 8.8.1 13.3 0 1.4 0 1.7.5 1.7 1.8v22.2c0 1.3-.3 1.8-1.7 1.8-2.6-.1-5.3-.1-7.9-.1zm98.6-12.6c0 3.6-.1 7.2 0 10.8 0 1.4-.2 1.9-1.8 1.9-5.1-.1-10.2-.1-15.3 0-1.3 0-1.8-.3-1.8-1.7.1-7.5.1-14.9 0-22.4 0-1.2.4-1.7 1.6-1.6 5.2 0 10.3.1 15.5 0 1.4 0 1.7.6 1.7 1.9.1 3.6.1 7.3.1 11.1zm-88.5-14c-5 0-9.9-.1-14.9 0-1.5 0-2.1-.5-1.9-2 .5-3.8.9-7.7 1.2-11.5.1-1.4 1-1.2 1.9-1.2h29.1c1.3 0 1.8.4 1.8 1.7-.1 3.7-.1 7.3 0 11 0 1.5-.4 2-2 2h-15.2zm20 24.7c0 1.4-.3 1.9-1.8 1.9-5.4-.1-10.7-.1-16.1 0-1.2 0-1.7-.4-1.7-1.6v-22.4c0-1.2.3-1.7 1.6-1.7 5.4.1 10.9.1 16.3 0 1.2 0 1.7.4 1.6 1.6-.1 3.7 0 7.5 0 11.2 0 3.7 0 7.4.1 11zm.8-10.9v-11.2c0-1.2.3-1.7 1.6-1.7 5.6.1 11.3.1 16.9 0 1.2 0 1.5.4 1.5 1.6v22.6c0 1.1-.3 1.6-1.5 1.6h-16.9c-1.3 0-1.6-.4-1.6-1.7.1-3.7 0-7.5 0-11.2zm-32-29.3H86.7c-1.3 0-1.8-.3-1.6-1.8.7-5.9 1.3-11.7 1.9-17.6.1-1.3.4-1.9 1.9-1.9 7.1.1 14.1.1 21.2 0 1.4 0 1.9.4 1.9 1.9-.1 5.8-.1 11.6 0 17.3 0 1.5-.5 2.1-2 2-3.9 0-7.8.1-11.7.1zm90.4-.3c-1.2 0-1.7-.4-1.7-1.6v-17.7c0-1.1.3-1.6 1.5-1.6h23.9c1.3 0 1.6.5 1.6 1.7 0 5.8-.1 11.7 0 17.5 0 1.4-.6 1.7-1.8 1.7-3.9-.1-7.8 0-11.6 0h-11.9zM127 316.1h12.2c1.2 0 1.7.4 1.6 1.6-.1 5.9-.1 11.8 0 17.7 0 1.5-.7 1.8-2 1.7-8.1-.3-16.3-.3-24.4 0-1.3 0-1.7-.3-1.7-1.5v-17.9c0-1.3.5-1.6 1.7-1.6 4.2.1 8.4 0 12.6 0zm49 37.6c1.4 0 2.1.3 2.1 1.9-.1 7.4-.1 14.8 0 22.2 0 1.3-.4 1.6-1.7 1.6h-23.3c-1.3 0-1.7-.4-1.7-1.8.1-7.3.1-14.7 0-22 0-1.5.4-2 1.9-2 3.8.1 7.6 0 11.4 0 3.9.1 7.6.2 11.3.1zm19.7-119.6v-20.6c0-1.5.4-2 2-2 4 .1 8 .1 12 0 1.4 0 1.9.5 1.9 1.9v41.2c0 1.5-.4 2-2 2-4-.1-8-.1-12 0-1.4 0-1.9-.5-1.9-1.9v-20.6zm19.2 121.5c0-1.5.5-2 2-2 7 .1 14 .1 21 0 1.4 0 1.8.4 1.9 1.8 1.1 10.7 2.3 21.3 3.5 32 .1 1.3-.3 1.7-1.6 1.7h-5.1c-.7 0-1.4 0-1.4-1 .1-2.3-1.2-4.4-.8-6.8.3-1.5-.4-2-2-2-5.2.1-10.5 0-15.7.1-1.5 0-2-.5-1.9-2 .1-3.6 0-7.2 0-10.8.1-3.6.1-7.3.1-11zm-.1-21.3V318c0-1.4.5-1.9 1.9-1.8 5.8.1 11.6.1 17.3 0 1.2 0 1.6.3 1.8 1.6.7 7.4 1.5 14.8 2.3 22.3l1.2 9.9c.3 2.6.2 2.7-2.3 2.7h-20.2c-1.5 0-2-.4-2-2 .1-5.6 0-11 0-16.4zm35.4 54.8c-1.2 0-2.3-.1-3.5 0-2.2.3-2.7-1-2.8-2.7-.3-9.8-1.9-19.5-2.9-29.2-1.3-13-2.8-26.1-4.2-39.1-.2-1.6.1-2.1 1.8-2.1 4.8 0 9.5-.3 14.2-1.1 1.2-.2 1.8.1 2.1 1.4 6.8 22.2 13.6 44.5 20.4 66.6.5 1.6-.3 1.7-1.3 2-7.8 2.3-15.8 3.7-23.8 4.2zm43.1-155v36.7c0 1.8-.4 2.5-2.4 2.4-6.9-.1-13.7-.1-20.6 0-1.6 0-2.1-.5-2.1-2.1.1-10.1 0-20.1.1-30.2 0-1.9-.5-2.5-2.4-2.5-9.6.1-19.2.1-28.8 0-1.7 0-2.3.6-2.2 2.2.1 1.6 0 3.1 0 4.7 0 1.2-.4 1.7-1.6 1.7-3.7-.1-7.5-.1-11.2 0-1.3 0-1.6-.6-1.6-1.7v-22.9c0-1.2.3-1.8 1.6-1.7 3.7.1 7.5.1 11.2 0 1.3 0 1.7.5 1.6 1.7-.1 1.8 0 3.5 0 5.3 0 1.1.4 1.6 1.6 1.6h30.2c1.7 0 1.6-1.1 1.6-2.2v-29.4c0-3.4-.3-3 3.1-3.1 6.5 0 12.9.1 19.4-.1 2.2-.1 2.6.7 2.6 2.7-.2 12.4-.1 24.7-.1 36.9zm-217.5 155c-12.7-.5-24.9-2.7-36.7-6.3-9.7-3-18.9-6.9-27.5-12.1-1.5-.9-1.6-1.6-.7-3 12.1-19.4 24.2-38.9 36.2-58.4.8-1.2 1.4-1.5 2.8-.9 9.7 4.1 19.8 6.6 30.3 7.6 1.4.1 2.7.2 4.1.1 1.4-.1 1.7.5 1.6 1.8-.5 4.4-.9 8.8-1.4 13.2-.9 8.8-1.9 17.6-2.8 26.3-1 9.7-2 19.3-3 29-.3 2.8-.4 2.8-2.9 2.7zm313.1-162c-.2 20.2-3.3 41.6-11 62.2-.6 1.7-1.3 1.2-2.3.8-12.8-5-25.7-10.1-38.5-15.2-1.6-.6-2.5-.5-3.4 1.1-1.6 2.9-3.5 5.7-5.1 8.6-.6 1.1-1.1 1.1-2.2.5-6.6-3.7-13.1-7.5-19.7-11.1-1.3-.7-1.1-1.3-.6-2.4 10-23.3 10.2-47 2.4-70.9-.6-1.8-.5-2.5 1.3-3.3 5.4-2.5 10.7-5.1 15.9-7.9 1.7-.9 2.3-.4 3.1 1 1.6 2.8 3.4 5.4 5 8.2.6 1 1.2 1.4 2.4.9 14.8-5.5 29.7-11 44.6-16.5 2.4-.9 2.4-.9 3.1 1.7 2.4 9.2 4.1 18.5 4.7 28 .1 4.2.2 8.4.3 14.3zM277.5 383.9c-1.3.2-1.1-.9-1.3-1.5-2.2-7.1-4.3-14.2-6.5-21.3-4.6-15-9.1-29.9-13.8-44.8-.4-1.4-.2-1.8 1.2-2.2 20.4-6.9 36.4-19.2 46.8-38.3.7-1.3 1.2-1.7 2.7-.9 6.7 3.8 13.4 7.5 20.1 11.4 1.1.6 1.6.6 2.3-.6 1.8-3.1 3.7-6 5.5-9.1.7-1.2 1.3-1.2 2.4-.8 13 5.1 25.9 10.2 38.9 15.2 1.1.4 1.2.9.8 1.9-10.4 25.8-26.6 47.2-48.6 64.1-14.6 11.2-30.5 20.1-48 26-.9.4-1.7.7-2.5.9zM206 154.8c9.4 0 18.8-.1 28.2 0 7.3.1 14.6.6 21.8 2 6.1 1.2 11.8 3.6 17.2 6.6 7.4 4.1 14.2 9 19.7 15.4 4 4.6 7.2 9.8 10.1 15.2 2.6 5 4.4 10.3 5.7 15.7 1.6 7 2.5 14.1 2.7 21.3.2 9.3-.8 18.4-3 27.3-2.6 10.5-7.5 20-14.4 28.4-5.1 6.3-11.2 11.4-17.9 15.8-5.1 3.4-10.6 5.9-16.3 8.3-5.8 2.4-11.7 2.6-17.7 2.8-6.8.2-13.7 0-20.5 0H91.9c-2.8 0-5.5.2-8.3.1-6.8-.1-13.3-1.8-19.8-3.2-5-1.1-9.7-3-14.5-4.7-3.4-1.3-6.2-3.8-8.8-6.4-1.5-1.5-3.3-2.8-4.3-4.8-.6-1.2-.6-2.2.4-3.3 3-3.3 5.8-6.6 8.7-9.9 2.2-2.5 3.5-2.5 5.9-.2 5.3 5.1 11.5 9 18.4 11.6 5.4 2.1 11.1 3 16.8 3.7 3.7.5 7.5.3 11.2.3h76c1.7 0 3.1.4 4.1 1.7 1.7 2.3 4.2 2.6 6.7 2.8 1.7.1 3.4.3 5.1 0 4.6-.8 9.1 0 13.6.1 2.5 0 5-.1 7.5-.4 2.5-.3 5 .3 7.5.4 3.6.2 7.2-.4 10.8-.4 3.5-.1 7 .5 10.6.5 5.2-.1 9.3-2.1 12.7-6.2 3.4-4.1 6.7-8.1 9.6-12.6 1.5-2.3 2.2-5.1 2.7-7.8.2-.8.2-1.9 1.1-2.3 1.1-.5 1.6.6 2.1 1.2 1.7 2 4.1 1.7 6.2 1.8 5 .2 10.1.1 15.1 0 4.9-.1 6.6-2.2 7-7 .3-3.3 0-6.6.1-9.9.1-2.9.1-5.9 0-8.8-.1-3.4 0-6.9 0-10.3 0-2.9.3-5.9-.1-8.8-.1-.4-.2-.8-.1-1.2.7-3.3.1-6.6.2-9.9v-8.8c0-3.4-.1-6.8 0-10.3.2-4.6-1.1-8.2-6.9-8.2-6.2 0-12.5-.4-18.7.3-1.4.2-2.3 1-3.2 1.9-.5.5-.9 1.5-1.8 1.2-.9-.3-.9-1.3-1-2.1-.3-2.6-1.1-5-2.2-7.4-2.3-4.6-5.9-8.3-9-12.3-1.7-2.2-3.5-4.3-6-5.7-4.4-2.4-9.2-1.9-14-1.6-2.5.2-5 .3-7.5 0-3.3-.4-6.7-.4-10 0-2.6.3-5.1.3-7.7 0-3-.3-6-.3-9 .1-2.4.3-4.7.3-7.1 0-3.1-.4-6.2-.3-9.4-.1-2.2.2-4 1.3-5.3 3-1.1 1.4-2.4 2.2-4.3 1.4-.6-.2-1.3-.1-2-.1-25.8 0-51.6-.1-77.4 0-12.5.1-24.3 2.7-35 9.7-3.5 2.3-3.3 2-5.8-.7-3.1-3.3-6.4-6.4-9.3-9.9-1.7-2.1-1.8-3 .3-4.7 6.9-5.7 14.8-9.1 23.7-10 3.4-.4 6.8-.2 10.2-.3 18.8-.6 37.7-.4 56.5-.4 4 0 5.9-2 5.9-6.1v-14.7c0-2.6 1.1-3.7 3.7-3.7h20.6c3.2 0 3.8.7 3.8 3.8v12c0 1.4.2 2.8.5 4.2.8 3.2 2.5 4.4 6.4 4.4 10.3.2 20.6.2 30.9.2zm48.9-.8c-4.6-.4-9.2-1.1-13.8-1.1-22.4-.1-44.9-.1-67.4-.1-2.6 0-2.6 0-2.6-2.6v-20c0-1.6-.4-2.2-2.1-2.2-9.7.1-19.5.1-29.2 0-1.7 0-2.2.5-2.2 2.2.1 6.8 0 13.6.1 20.4 0 1.8-.5 2.3-2.3 2.3-20.7 0-41.4-.1-62 .1-4.4 0-8.8.6-13.2 1.3-4 1.8-8.2 3-11.9 5.3-3.3 2.1-6.4 4.4-9.3 6.9-1.1.9-1 1.5-.1 2.4 5.1 5.5 10.2 11 15.2 16.5.7.8 1.2.8 2 .1 10.2-8.1 22-11.7 34.9-11.8 28-.1 56.1 0 84.1-.1 1.6 0 2.1.5 2 2.1v117c0 1.4-.3 1.9-1.8 1.9-28.4-.1-56.9.1-85.3-.1-16-.2-29.9-6-40.7-18.1-.9-1-1.4-1.2-2.5-.1-4.7 5.2-9.4 10.4-14.2 15.5-.9 1-1 1.6-.1 2.7 3.9 4.7 8 9.2 13.3 12.3 1.7 1 .8 1.8.2 2.8-5 8-10 16.1-15 24.1-7 11.3-14.1 22.7-21 34-.8 1.3-1.5 1.7-2.9.8-14.6-10-28.3-20.9-39.8-34.6-13-15.5-21.4-33.2-26-52.8-5.8-25-7.7-50.3-4.7-75.8 2.4-20.5 9.9-39.4 21.3-56.6 16.9-25.6 39-45.4 66.9-58.5C29.4 88 34.1 86 39.1 85c2.6-1.7 5.7-2 8.7-2.7 8.2-1.8 16.5-2.6 24.8-3 4.2-.2 8.4-.2 12.6-.2 51.2 0 102.4-.2 153.6.1 12.5.1 25.1 1.4 37.1 5.6 1.6-.2 3.2.4 4.6.9 5.7 2 11.3 4.1 16.9 6.5 5.7 2.4 11.2 5.1 16.6 8.3 6.2 3.6 12.4 7.4 18.2 11.7 9 6.6 17.3 14 24.6 22.5 7 8.1 12.9 16.9 17.7 26.4 3 6 5.5 12.3 7.6 18.7.5 1.6 0 2-1.2 2.5l-19.5 7.2c-8.2 3-16.3 6-24.5 9.1-1.6.6-2.4.3-3.2-1.1-1.6-2.8-3.4-5.4-5.1-8.1-.7-1.2-1.3-1.5-2.7-.8-5.8 3-11.6 5.9-17.5 8.9-1 .5-1.4.5-1.9-.7-10.1-22.5-27.5-36.2-51.2-42.4 0-.3-.2-.4-.4-.4zM142 320.4c-.5-4.3-.5-4.3 3.8-4.3h21.8c2.7 0 2.7 0 2.7 2.7 0 .5-.1 1.1-.1 1.6 0 5.1.1 10.2.1 15.3 0 1.2-.5 1.5-1.6 1.5h-25.3c-1 0-1.6-.3-1.6-1.4.1-5-.3-10.2.2-15.4zm37-94.3c0-4.3 0-8.7-.1-13 0-1.1.3-1.6 1.5-1.5 4.2.1 8.4 0 12.6 0 .9 0 1.4.2 1.4 1.2-.1 4.5.2 9-.2 13.4.9.1 1 .7 1 1.5v14.4c0 .6.1 1.3-.8 1.4v11.4c0 1.3-.4 1.8-1.7 1.8-4.1-.1-8.2-.1-12.2 0-1.3 0-1.6-.4-1.6-1.6v-11.4c-.7-.5-.9-1.3-.9-2.1v-13.4c.1-1-.1-1.9 1-2.1zM152 76.4c-24.3.7-54.5-1.1-84.7.8-5.5.3-10.9 1.1-16.3 2-6.3 1-12.3 3.2-18.3 5.3-7.8 2.7-15 6.4-22.1 10.5-6.9 4-13.4 8.8-19.7 13.6-4 3.1-7.7 6.6-11.3 10.2-2.7 2.7-5.3 5.5-7.9 8.3-4.6 4.8-8.4 10.3-12.4 15.5-3.4 4.4-6.2 9.4-8.9 14.3-3.9 7-7.1 14.4-9.8 21.9-2.2 6.2-3.9 12.6-5 19-1.4 8-2.7 16-2.6 24.2.1 4.7 0 9.4 0 14.1 0 2.8.2 5.7.5 8.5.6 5.6 1.2 11.1 2 16.7.5 4.1.9 8.2 1.9 12.2 1.6 6.2 2.9 12.4 4.8 18.5 2.2 6.8 4.7 13.4 8 19.7 4.9 9.3 10.5 18.2 17.8 25.8 3.6 3.8 7 7.7 10.8 11.3 6.8 6.3 14.2 11.9 21.7 17.4 2.4 1.7 5.1 2.9 7.4 4.5 6.7 4.8 14.2 8.3 21.8 11.2 8.3 3.1 16.9 5.7 25.8 7.1 7 1.1 13.9 2.3 21 2.2 2.2-.1 4.5-.1 6.7.2 3.5.5 6.7-2.3 7.1-5.8.3-3.1 1.1-3.8 4.3-3.8h109c3.7 0 7.4-.3 11-.2 4.3.1 8.5.1 12.8.2 4.4.1 4.4 0 5.4 4.3.7 2.8 2.2 4.6 5.2 5.3 1.6.4 3.1-.2 4.6-.2 6.2.2 12.4-.3 18.6-1.1 7.1-.9 13.8-3.1 20.4-5.2 5-1.6 9.8-3.6 14.3-5.8 4-1.9 7.7-3.9 11.3-5.9 4.6-2.6 9.1-5.3 13.5-8.3 9-6.1 17.4-13.1 25.1-20.9 5.4-5.5 10.3-11.5 14.9-17.7 4.9-6.7 9-13.8 12.7-21.2 2.3-4.5 3.9-9.2 5.8-13.8 2.1-5.1 3.8-10.3 5.2-15.6 1.6-5.8 2.9-11.7 3.9-17.6 1.3-7.7 2.3-15.4 2.6-23.2.5-11.1.2-22.2-1.5-33.3-1.4-8.7-3.5-17.2-6.3-25.6-2.7-8.1-6.4-15.8-10.8-23.1-2.8-4.7-5.8-9.3-9.2-13.6-2.5-3.1-4.8-6.3-7.7-9-1.6-1.5-2.9-3.5-4.5-5.1-3.1-3-6.3-5.9-9.6-8.6-6.5-5.4-13.4-10.2-20.5-14.6-6.4-3.9-13.1-7.5-20.1-10.6-6.2-2.7-12.4-5.4-18.9-7.4-6.9-2.1-13.8-4.3-21.1-5.3-8.1-1.1-16.3-2.2-24.4-2.2-26-.2-52.2-.1-84.3-.1z"/><path fill="#4775E4" d="M24.5 236.1c2.7 0 5.4.1 8.2 0 1.3 0 1.9.2 2 1.7.3 9.9 2.8 19.3 7.5 28.1.4.8.4 1.3-.2 2-4.9 5.3-9.8 10.6-14.6 15.9-1.3 1.4-1.6.2-2-.6-5-9.3-8-19.2-9.6-29.5-.8-5.2-1.2-10.4-1.4-15.6 0-1.5.3-2.1 1.9-2h8.2zm.1-9.4H16c-1.2 0-1.9-.2-1.6-1.6.3-1.5-.4-2-1.8-2.3-5.1-1.1-10.1-2.2-15.1-3.4-.9-.2-1.7-.3-1.3-1.7 2.4-8.1 4.7-16.3 8.2-24.1.8-1.9 1.5-2.2 3.4-1.2 3.2 1.8 6.5 3.3 9.8 5.1 1.2.7 1.7.4 2.1-.8 2.5-7.4 5.9-14.3 10.5-20.6 1.1-1.5 1.6-1.4 2.8-.1 4.7 5.3 9.5 10.4 14.4 15.6.9.9.9 1.5.1 2.5-7.1 9-10.9 19.3-12.3 30.6-.2 1.4-.7 2-2.2 1.9-2.8 0-5.6.1-8.4.1zm35.6-72.6c-3.1-10.2-6.3-20.3-9.4-30.5-3.7-12.1-7.4-24.1-11-36.2-.3-.8-.4-1.7-.6-2.6-5 1.1-9.7 3-14.3 5.2-27.9 13.1-50 32.9-66.9 58.5-11.4 17.2-18.8 36.1-21.3 56.6-3 25.5-1.1 50.8 4.7 75.8 4.5 19.6 13 37.3 26 52.8 11.4 13.6 25.2 24.6 39.8 34.6 1.4 1 2.1.5 2.9-.8 7-11.4 14-22.7 21-34 5-8 10-16.1 15-24.1.6-.9 1.5-1.8-.2-2.8-5.3-3.1-9.4-7.6-13.3-12.3-.9-1.1-.8-1.7.1-2.7 4.8-5.1 9.6-10.2 14.2-15.5 1.1-1.2 1.6-1 2.5.1 10.8 12.2 24.7 18 40.7 18.1 28.4.3 56.9.1 85.3.1 1.5 0 1.8-.5 1.8-1.9v-117c0-1.6-.4-2.1-2-2.1-28 .1-56.1 0-84.1.1-12.9.1-24.7 3.7-34.9 11.8-.8.7-1.3.6-2-.1-5-5.5-10.1-11-15.2-16.5-.9-1-1-1.5.1-2.4 3-2.5 6.1-4.8 9.3-6.9 3.7-2.3 7.9-3.5 11.8-5.3z"/><path fill="#F40E48" d="M60.2 154.1c-3.1-10.2-6.3-20.3-9.4-30.5-3.7-12.1-7.4-24.1-11-36.2-.3-.8-.4-1.7-.6-2.6 2.6-1.7 5.7-2 8.7-2.7 8.2-1.8 16.5-2.6 24.8-3 4.2-.2 8.4-.2 12.6-.2 51.2 0 102.4-.2 153.6.1 12.5.1 25.1 1.4 37.1 5.6L254.9 154c-4.6-.4-9.2-1.1-13.8-1.1-22.4-.1-44.9-.1-67.4-.1-2.6 0-2.6 0-2.6-2.6v-20c0-1.6-.4-2.2-2.1-2.2-9.7.1-19.5.1-29.2 0-1.7 0-2.2.5-2.2 2.2.1 6.8 0 13.6.1 20.4 0 1.8-.5 2.3-2.3 2.3-20.7 0-41.4-.1-62 .1-4.4-.1-8.8.5-13.2 1.1z"/><path fill="#EAEAEA" d="M206 154.8c9.4 0 18.8-.1 28.2 0 7.3.1 14.6.6 21.8 2 6.1 1.2 11.8 3.6 17.2 6.6 7.4 4.1 14.2 9 19.7 15.4 4 4.6 7.2 9.8 10.1 15.2 2.6 5 4.4 10.3 5.7 15.7 1.6 7 2.5 14.1 2.7 21.3.2 9.3-.8 18.4-3 27.3-2.6 10.5-7.5 20-14.4 28.4-5.1 6.3-11.2 11.4-17.9 15.8-5.1 3.4-10.6 5.9-16.3 8.3-5.8 2.4-11.7 2.6-17.7 2.8-6.8.2-13.7 0-20.5 0H91.9c-2.8 0-5.5.2-8.3.1-6.8-.1-13.3-1.8-19.8-3.2-5-1.1-9.7-3-14.5-4.7-3.4-1.3-6.2-3.8-8.8-6.4-1.5-1.5-3.3-2.8-4.3-4.8-.6-1.2-.6-2.2.4-3.3 3-3.3 5.8-6.6 8.7-9.9 2.2-2.5 3.5-2.5 5.9-.2 5.3 5.1 11.5 9 18.4 11.6 5.4 2.1 11.1 3 16.8 3.7 3.7.5 7.5.3 11.2.3h76c1.7 0 3.1.4 4.1 1.7 1.7 2.3 4.2 2.6 6.7 2.8 1.7.1 3.4.3 5.1 0 4.6-.8 9.1 0 13.6.1 2.5 0 5-.1 7.5-.4 2.5-.3 5 .3 7.5.4 3.6.2 7.2-.4 10.8-.4 3.5-.1 7 .5 10.6.5 5.2-.1 9.3-2.1 12.7-6.2 3.4-4.1 6.7-8.1 9.6-12.6 1.5-2.3 2.2-5.1 2.7-7.8.2-.8.2-1.9 1-2.3 1.1-.5 1.6.6 2.1 1.2 1.7 2 4.1 1.7 6.2 1.8 5 .2 10.1.1 15.1.1 4.9-.1 6.6-2.2 7-7 .3-3.3 0-6.6.1-9.9 0-2.9.1-5.9 0-8.8-.1-3.4 0-6.9 0-10.3 0-2.9.3-5.9-.1-8.8-.1-.4-.2-.8-.1-1.2.7-3.3.1-6.6.2-9.9V211c0-3.4-.1-6.8 0-10.3.2-4.6-1.1-8.2-6.9-8.2-6.2 0-12.5-.4-18.7.3-1.4.2-2.3 1-3.2 1.9-.5.5-.9 1.5-1.8 1.2-.9-.3-.9-1.3-1-2.1-.3-2.6-1.1-5-2.2-7.4-2.3-4.6-5.9-8.3-9-12.3-1.7-2.2-3.5-4.3-6-5.7-4.4-2.4-9.2-1.9-14-1.6-2.5.2-5 .3-7.5 0-3.3-.4-6.7-.3-10 0-2.6.3-5.1.3-7.7 0-3-.3-6-.3-9 .1-2.4.3-4.7.3-7.1 0-3.1-.4-6.2-.3-9.4-.1-2.2.2-4 1.3-5.3 3-1.1 1.4-2.4 2.2-4.3 1.4-.6-.2-1.3-.1-2-.1-25.8 0-51.6-.1-77.4 0-12.5.1-24.3 2.7-35 9.6-3.5 2.3-3.3 2-5.8-.7-3.1-3.3-6.4-6.4-9.3-9.9-1.7-2.1-1.8-3 .3-4.7 6.9-5.7 14.8-9.1 23.7-10 3.4-.3 6.8-.2 10.2-.3 18.8-.6 37.7-.4 56.5-.4 4 0 5.9-2 5.9-6.1v-14.7c0-2.6 1.1-3.7 3.7-3.7h20.6c3.2 0 3.8.7 3.8 3.8v12c0 1.4.2 2.8.5 4.2.8 3.2 2.5 4.4 6.4 4.4 10.4.2 20.7.2 31 .2z"/><path fill="#EAEAEA" d="M254.9 154L276 84.6c1.6-.2 3.2.4 4.6.9 5.7 2 11.3 4.1 16.9 6.5 5.7 2.4 11.2 5.1 16.6 8.3 6.2 3.6 12.4 7.4 18.2 11.7 9 6.6 17.3 14 24.6 22.5 7 8.1 12.9 16.9 17.7 26.4 3 6 5.5 12.3 7.6 18.7.5 1.6 0 2-1.2 2.5l-19.5 7.2c-8.2 3-16.3 6-24.5 9.1-1.6.6-2.4.3-3.2-1.1-1.6-2.8-3.4-5.4-5.1-8.1-.7-1.2-1.3-1.5-2.7-.8-5.8 3-11.6 5.9-17.5 8.9-1 .5-1.4.5-1.9-.7-10.1-22.5-27.5-36.2-51.2-42.4-.1-.1-.3-.2-.5-.2zM277.5 383.9c-1.3.2-1.1-.9-1.3-1.5-2.2-7.1-4.3-14.2-6.5-21.3-4.6-15-9.1-29.9-13.8-44.8-.4-1.4-.2-1.8 1.2-2.2 20.4-6.9 36.4-19.2 46.8-38.3.7-1.3 1.2-1.7 2.7-.9 6.7 3.8 13.4 7.5 20.1 11.4 1.1.6 1.6.6 2.3-.6 1.8-3.1 3.7-6 5.5-9.1.7-1.2 1.3-1.2 2.4-.8 13 5.1 25.9 10.2 38.9 15.2 1.1.4 1.2.9.8 1.9-10.4 25.8-26.6 47.2-48.6 64.1-14.6 11.2-30.5 20.1-48 26-.9.4-1.7.7-2.5.9z"/><path fill="#EAEAEA" d="M388.9 227.1c-.2 20.2-3.3 41.6-11 62.2-.6 1.7-1.3 1.2-2.3.8-12.8-5-25.7-10-38.5-15.2-1.6-.6-2.5-.5-3.4 1.1-1.6 2.9-3.5 5.7-5.1 8.6-.6 1.1-1.1 1.1-2.2.5-6.6-3.7-13.1-7.5-19.7-11.1-1.3-.7-1.1-1.3-.6-2.4 10-23.3 10.2-47 2.4-70.9-.6-1.8-.5-2.5 1.3-3.3 5.4-2.5 10.7-5.1 15.9-7.9 1.7-.9 2.3-.4 3.1 1 1.6 2.8 3.4 5.4 5 8.2.6 1 1.2 1.4 2.4.9 14.8-5.5 29.7-11 44.6-16.5 2.4-.9 2.4-.9 3.1 1.7 2.4 9.2 4.1 18.5 4.7 28 .1 4.2.2 8.4.3 14.3z"/><path fill="#603DBF" d="M75.8 389.1c-12.7-.5-24.9-2.7-36.7-6.3-9.7-3-18.9-6.9-27.5-12.1-1.5-.9-1.6-1.6-.7-3 12.1-19.4 24.2-38.9 36.2-58.4.8-1.2 1.4-1.5 2.8-.9 9.7 4.1 19.8 6.6 30.3 7.6 1.4.1 2.7.2 4.1.1 1.4-.1 1.7.5 1.6 1.8-.5 4.4-.9 8.8-1.4 13.2-.9 8.8-1.9 17.6-2.8 26.3-1 9.7-2 19.3-3 29-.3 2.8-.4 2.8-2.9 2.7z"/><path fill="#020202" d="M285.1 226.1v2.4c0 .5.1 1-.6 1-.6 0-.9-.4-.8-.9.3-1.8-.9-1.7-2.1-1.7h-4.1c-.6 0-1.5.4-1.5-.8-.1-1.2.8-.8 1.4-.9 1.6 0 3.1-.1 4.7 0 1.1.1 1.7-.2 1.6-1.4-.1-.5-.1-1.2.7-1.2 1 0 .7.8.7 1.3v2.2zm.1-6.3c0 .3-.1.8-.2 1.2-.1.4-.4.6-.9.4-.3-.1-.6-.3-.5-.7.1-.5.2-1.1.2-1.6s-.3-.9-.8-1.1c-.5-.1-.9.1-1.2.6-.3.5-.5 1.1-.8 1.6-.5 1.1-1.4 1.9-2.7 1.8-1.4-.2-2.1-1.1-2.3-2.4-.1-.6-.2-1.2 0-1.8.1-.6 0-1.6.9-1.5 1.2.1.5 1 .4 1.6 0 .9-.4 2.1.9 2.4 1.2.3 1.4-.8 1.8-1.6.6-1.4 1.3-2.7 3.1-2.3 1.7.3 2.1 1.7 2.1 3.4zm-8.5 16.9c-.7.1-.7-.2-.8-.6-.1-.7.3-1.1 1-1.3 1-.2 1.7-.5 1.6-1.8-.1-1.1-.2-1.8-1.4-2-.8-.1-1.5-.6-1.1-1.5.4-.9 1-.2 1.5-.1l6.6 2.1c1.1.4 1.5 2.1.5 2.5-2.6 1.1-5.4 1.9-7.9 2.7zm3.9 10.3h.6c4.2 0 4.2 0 3.8 4.2 0 .5.1 1.2-.7 1.1-.7 0-.7-.5-.7-1v-1c0-.9.1-1.6-1.2-1.6-1.4 0-1 .9-1.1 1.6-.1.6.6 1.7-.7 1.7-1 0-.6-1-.6-1.6 0-1 0-1.8-1.4-1.8s-1.3.9-1.3 1.7v.8c0 .5.2 1.2-.6 1.2-1 0-.7-.8-.7-1.3v-2.8c-.1-.9.2-1.4 1.2-1.3 1.1.1 2.3.1 3.4.1zm-4.5-2.6c-.6-2-.1-4.7 1.2-5.9 1.5-1.3 4.3-1.3 5.9-.2 1.6 1.2 2.5 4.1 1.7 5.9-.2.4-.4.8-.9.6-.4-.1-.6-.4-.5-.9.2-.8.2-1.6 0-2.4-.5-1.7-1.9-2.5-3.8-2.2-1.7.3-2.5 1.4-2.6 3.1 0 .6 0 1.2.8 1.2.6 0 1.3.3 1.6-.4.2-.4 0-1.2.8-1.1.9.2.5 1 .5 1.5 0 .6.4 1.5-.7 1.6-.5.1-1.1 0-1.8 0-.5-.2-1.7.7-2.2-.8zm17.2-10.3v-36.7c0-2-.4-2.7-2.6-2.7-6.5.2-12.9 0-19.4.1-3.4 0-3.1-.4-3.1 3.1v29.4c0 1.1.1 2.2-1.6 2.2h-30.2c-1.1 0-1.6-.5-1.6-1.6v-5.3c0-1.2-.4-1.7-1.6-1.7-3.7.1-7.5.1-11.2 0-1.3 0-1.6.6-1.6 1.7v22.9c0 1.2.3 1.8 1.6 1.7 3.7-.1 7.5-.1 11.2 0 1.3 0 1.7-.5 1.6-1.7-.1-1.6.1-3.1 0-4.7-.1-1.7.5-2.2 2.2-2.2 9.6.1 19.2.1 28.8 0 1.9 0 2.4.6 2.4 2.5-.1 10.1 0 20.1-.1 30.2 0 1.6.5 2.1 2.1 2.1 6.9-.1 13.7-.1 20.6 0 2 0 2.4-.6 2.4-2.4 0-12.4.1-24.6.1-36.9z"/><path fill="#EAEAEA" d="M250.2 389.1c-1.2 0-2.3-.1-3.5 0-2.2.3-2.7-1-2.8-2.7-.3-9.8-1.9-19.5-2.9-29.2-1.3-13-2.8-26.1-4.2-39.1-.2-1.6.1-2.1 1.8-2.1 4.8 0 9.5-.3 14.2-1.1 1.2-.2 1.8.1 2.1 1.4 6.8 22.2 13.6 44.5 20.4 66.6.5 1.6-.3 1.7-1.3 2-7.8 2.3-15.8 3.7-23.8 4.2z"/><path fill="#41BCA9" d="M214.8 334.3V318c0-1.4.5-1.9 1.9-1.8 5.8.1 11.6.1 17.3 0 1.2 0 1.6.3 1.8 1.6.7 7.4 1.5 14.8 2.3 22.3l1.2 9.9c.3 2.6.2 2.7-2.3 2.7h-20.2c-1.5 0-2-.4-2-2 .1-5.6 0-11 0-16.4z"/><path fill="#E24493" d="M214.9 366.7c0-3.7.1-7.3 0-11 0-1.5.5-2 2-2 7 .1 14 .1 21 0 1.4 0 1.8.4 1.9 1.8 1.1 10.7 2.3 21.3 3.5 32 .1 1.3-.3 1.7-1.6 1.7h-5.1c-.7 0-1.4 0-1.4-1 .1-2.3-1.2-4.4-.8-6.8.3-1.5-.4-2-2-2-5.2.1-10.5 0-15.7.1-1.5 0-2-.5-1.9-2 .1-3.6.1-7.2.1-10.8z"/><path fill="#B13EB5" d="M195.7 234.1v-20.6c0-1.5.4-2 2-2 4 .1 8 .1 12 0 1.4 0 1.9.5 1.9 1.9v41.2c0 1.5-.4 2-2 2-4-.1-8-.1-12 0-1.4 0-1.9-.5-1.9-1.9v-20.6z"/><path fill="#FF9327" d="M164.8 353.7H176c1.4 0 2.1.3 2.1 1.9-.1 7.4-.1 14.8 0 22.2 0 1.3-.4 1.6-1.7 1.6h-23.3c-1.3 0-1.7-.4-1.7-1.8.1-7.3.1-14.7 0-22 0-1.5.4-2 1.9-2 3.9.2 7.7.1 11.5.1z"/><path fill="#41BCA9" d="M127 316.1h12.2c1.2 0 1.7.4 1.6 1.6-.1 5.9-.1 11.8 0 17.7 0 1.5-.7 1.8-2 1.7-8.1-.3-16.3-.3-24.4 0-1.3 0-1.7-.3-1.7-1.5v-17.9c0-1.3.5-1.6 1.7-1.6 4.2.1 8.4 0 12.6 0zM200.6 337h-11.8c-1.2 0-1.7-.4-1.7-1.6v-17.7c0-1.1.3-1.6 1.5-1.6h23.9c1.3 0 1.6.5 1.6 1.7 0 5.8-.1 11.7 0 17.5 0 1.4-.6 1.7-1.8 1.7h-11.7zM98.3 337.3H86.7c-1.3 0-1.8-.3-1.6-1.8.7-5.9 1.3-11.7 1.9-17.6.1-1.3.4-1.9 1.9-1.9 7.1.1 14.1.1 21.2 0 1.4 0 1.9.4 1.9 1.9-.1 5.8-.1 11.6 0 17.3 0 1.5-.5 2.1-2 2-3.9 0-7.8.1-11.7.1z"/><path fill="#FF9327" d="M130.3 366.6v-11.2c0-1.2.3-1.7 1.6-1.7 5.6.1 11.3.1 16.9 0 1.2 0 1.5.4 1.5 1.6v22.6c0 1.1-.3 1.6-1.5 1.6h-16.9c-1.3 0-1.6-.4-1.6-1.7.1-3.7 0-7.5 0-11.2z"/><path fill="#E24493" d="M129.4 366.5v11c0 1.4-.3 1.9-1.8 1.9-5.4-.1-10.7-.1-16.1 0-1.2 0-1.7-.4-1.7-1.6v-22.4c0-1.2.3-1.7 1.6-1.7 5.4.1 10.9.1 16.3 0 1.2 0 1.7.4 1.6 1.6.1 3.7.1 7.5.1 11.2z"/><path fill="#41BCA9" d="M109.5 352.8c-5 0-9.9-.1-14.9 0-1.5 0-2.1-.5-1.9-2 .5-3.8.9-7.7 1.2-11.5.1-1.4 1-1.2 1.9-1.2h29.1c1.3 0 1.8.4 1.8 1.7-.1 3.7-.1 7.3 0 11 0 1.5-.4 2-2 2h-15.2z"/><path fill="#FF9327" d="M198 366.8c0 3.6-.1 7.2 0 10.8 0 1.4-.2 1.9-1.8 1.9-5.1-.1-10.2-.1-15.3 0-1.3 0-1.8-.3-1.8-1.7.1-7.5.1-14.9 0-22.4 0-1.2.4-1.7 1.6-1.6 5.2 0 10.3.1 15.5 0 1.4 0 1.7.6 1.7 1.9.1 3.6.1 7.3.1 11.1z"/><path fill="#41BCA9" d="M170.2 320.5c0 5.1.1 10.2.1 15.3 0 1.2-.5 1.5-1.6 1.5h-25.3c-1 0-1.6-.3-1.6-1.4.1-5.2-.3-10.3.2-15.5 9.4.3 18.8.2 28.2.1z"/><path fill="#E24493" d="M99.4 379.4c-2.6 0-5.3-.1-8 0-1.3 0-1.7-.5-1.6-1.7.6-6 1.2-11.9 1.9-17.9.2-1.5.5-3.1.5-4.6 0-1.3.7-1.5 1.8-1.5 4.4 0 8.8.1 13.3 0 1.4 0 1.7.5 1.7 1.8v22.2c0 1.3-.3 1.8-1.7 1.8-2.6-.1-5.3-.1-7.9-.1z"/><path fill="#41BCA9" d="M142.1 338.2h12.4c1.4 0 1.9.3 1.9 1.8-.1 3.7-.1 7.3 0 11 0 1.4-.4 1.9-1.9 1.9h-25.1c-1.3 0-1.8-.4-1.8-1.7.1-3.7.1-7.5 0-11.2 0-1.3.4-1.8 1.7-1.8h12.8z"/><path fill="#59DEFD" d="M212.8 234c0-6.8.1-13.6 0-20.4 0-1.7.5-2.2 2.2-2.2 3.9.1 7.7.1 11.6 0 1.3 0 1.8.4 1.8 1.7.1 5.7.2 5.7-5.5 5.7-3.9 0-3.9 0-3.9 3.8v24.3c0 1.6.5 2.2 2.1 2.1 2-.1 3.9 0 5.9 0 1 0 1.5.4 1.4 1.4v.4c.1 5.6.1 5.6-5.4 5.6-2.5 0-5-.1-7.5 0-2 .1-2.7-.4-2.7-2.5.1-6.5 0-13.2 0-19.9z"/><path fill="#E24493" d="M214 366.5c0 3.7-.1 7.3 0 11 0 1.4-.3 1.9-1.8 1.9-3.9-.1-7.8-.1-11.6 0-1.2 0-1.7-.4-1.7-1.6v-22.4c0-1.2.3-1.7 1.6-1.7 3.9.1 7.9.1 11.8 0 1.2 0 1.7.4 1.7 1.6-.1 3.7 0 7.5 0 11.2z"/><path fill="#41BCA9" d="M186.7 338.2h9.6c1.3 0 1.8.3 1.8 1.7-.1 3.7-.1 7.5 0 11.2 0 1.3-.5 1.8-1.8 1.8h-19.4c-1.2 0-1.7-.5-1.7-1.7 0-3.8.1-7.6 0-11.4 0-1.3.5-1.6 1.7-1.6h9.8zM171.2 326.7v-8.8c0-1.3.3-1.8 1.7-1.8 3.9.1 7.9.1 11.8 0 1.1 0 1.6.3 1.6 1.5v18c0 1.2-.4 1.7-1.7 1.7H173c-1.4 0-1.8-.5-1.8-1.8v-8.8z"/><path fill="#B13EB5" d="M195.7 288.7v-8.1c0-1.2.4-1.7 1.6-1.7 4.2.1 8.4.1 12.6 0 1.3 0 1.6.5 1.6 1.7v16.5c0 1.5-.6 1.9-1.9 1.8-4-.1-8-.1-12 0-1.4 0-1.9-.5-1.9-1.9v-8.3zM211.5 179.1c0 2.7-.1 5.4 0 8.1 0 1.3-.3 2-1.8 1.9-4.1-.1-8.3-.1-12.4 0-1.2 0-1.7-.4-1.7-1.6v-16.7c0-1.2.4-1.7 1.7-1.7h12.4c1.4 0 1.8.6 1.8 1.8v8.2z"/><path fill="#59DEFD" d="M212.8 288.9c0-2.8.1-5.6 0-8.4 0-1.3.4-1.7 1.7-1.6 4.1.1 8.2.1 12.2 0 1.3 0 1.6.5 1.6 1.7v16.5c0 1.3-.5 1.8-1.8 1.8-4 0-8-.1-12 0-1.4 0-1.7-.6-1.7-1.8v-8.2zM212.8 179.1v-8.4c0-1.3.4-1.7 1.7-1.6 4 .1 8 0 12 0 1.3 0 1.8.5 1.8 1.8v16.5c0 1.2-.3 1.7-1.6 1.7-4.1-.1-8.2-.1-12.2 0-1.2 0-1.7-.4-1.7-1.6.1-2.8 0-5.6 0-8.4z"/><path fill="#FF777B" d="M179 179.2V171c0-1.3.3-1.9 1.7-1.8 4.1.1 8.2.1 12.2 0 1.4 0 1.7.6 1.7 1.8-.1 5.4-.1 10.9 0 16.3 0 1.2-.2 1.8-1.7 1.8-4.1-.1-8.2-.1-12.2 0-1.4 0-1.7-.6-1.7-1.8v-8.1zM194.5 288.9v8.2c0 1.2-.2 1.9-1.7 1.8-4.1-.1-8.2-.1-12.2 0-1.4 0-1.7-.5-1.7-1.8.1-5.5.1-11 0-16.5 0-1.3.4-1.6 1.6-1.6 4.1.1 8.2.1 12.2 0 1.4 0 1.7.5 1.7 1.8.1 2.6.1 5.3.1 8.1z"/><path fill="#B13EB5" d="M195.7 200.1v-7.7c0-1.2.3-1.7 1.6-1.7 4.1.1 8.3.1 12.4 0 1.3 0 1.8.4 1.8 1.8v15.7c0 1.2-.4 1.7-1.7 1.7h-12.4c-1.3 0-1.8-.5-1.8-1.8.1-2.7.1-5.3.1-8zM195.7 267.9V260c0-1.3.5-1.8 1.8-1.8h12.2c1.3 0 1.9.4 1.9 1.7v15.7c0 1.3-.6 1.8-1.8 1.7-4.1-.1-8.3-.1-12.4 0-1.3 0-1.6-.5-1.6-1.7-.1-2.5-.1-5.1-.1-7.7z"/><path fill="#ECF863" d="M229.8 288.8v-8.3c0-1.1.3-1.6 1.5-1.6 4.1.1 8.3 0 12.4 0 1.1 0 1.4.3 1.4 1.4v17.1c0 1.1-.3 1.5-1.4 1.4h-12.6c-1.1 0-1.4-.5-1.3-1.5.1-2.8 0-5.6 0-8.5zM245.1 179.1c0 2.8-.1 5.6 0 8.3 0 1.4-.4 1.7-1.8 1.7-3.9-.1-7.9-.1-11.8 0-1.3 0-1.8-.3-1.8-1.7.1-5.6.1-11.1 0-16.7 0-1.3.5-1.6 1.7-1.6 4 .1 8 .1 12 0 1.4 0 1.7.5 1.7 1.8v8.2z"/><path fill="#59DEFD" d="M228.3 267.9c0 2.6-.1 5.2 0 7.7 0 1.3-.4 1.7-1.7 1.6-4.1-.1-8.1-.1-12.2 0-1.3 0-1.6-.4-1.6-1.7V260c0-1.2.4-1.7 1.7-1.6 4.1.1 8.1.1 12.2 0 1.3 0 1.7.5 1.6 1.7-.1 2.7 0 5.2 0 7.8zM228.3 200.1v7.7c0 1.2-.3 1.7-1.6 1.7-4.1-.1-8.1-.1-12.2 0-1.2 0-1.7-.4-1.7-1.6.1-5.2.1-10.3 0-15.5 0-1.2.4-1.7 1.6-1.7 4.1.1 8.1.1 12.2 0 1.2 0 1.7.4 1.7 1.6-.1 2.7 0 5.3 0 7.8z"/><path fill="#FF777B" d="M179 200.2v-7.7c0-1.2.2-1.7 1.6-1.7 4.1.1 8.3.1 12.4 0 1.3 0 1.6.5 1.6 1.7V208c0 1.2-.3 1.7-1.6 1.7-4.1-.1-8.3-.1-12.4 0-1.3 0-1.6-.6-1.6-1.7v-7.8zM179 267.9V260c0-1.2.4-1.5 1.5-1.5h12.4c1.3 0 1.6.5 1.6 1.7 0 5.2-.1 10.3 0 15.5 0 1.4-.5 1.7-1.8 1.7-4-.1-8-.1-12 0-1.5 0-1.8-.5-1.8-1.9.1-2.6.1-5.1.1-7.6z"/><path fill="#ECF863" d="M261.8 200.3v7.7c0 1.1-.2 1.6-1.4 1.6-4.2-.1-8.4 0-12.6 0-1.1 0-1.4-.4-1.4-1.4v-15.9c0-1.2.5-1.5 1.6-1.5 4.1 0 8.3.1 12.4 0 1.2 0 1.5.4 1.5 1.5-.1 2.7-.1 5.4-.1 8zM261.8 268v7.7c0 1.1-.4 1.5-1.5 1.5-4.1-.1-8.3-.1-12.4 0-1.1 0-1.6-.4-1.5-1.5v-15.9c0-1.1.4-1.4 1.4-1.4h12.6c1.1 0 1.4.4 1.4 1.4v8.2z"/><path fill="#E24493" d="M87.3 353.7c4.2 0 4.1 0 3.5 4.2-.8 6.7-1.5 13.5-2.2 20.2-.3 3.2-.6 6.3-.9 9.5-.1 1.1-.7 1.5-1.7 1.5-1.6 0-3.1-.1-4.7 0-1.5.1-1.9-.5-1.7-1.9.6-5.7 1.2-11.5 1.8-17.2.5-4.5 1-8.9 1.4-13.4.3-3 .2-3 3.2-3l1.3.1z"/><path fill="#ECF863" d="M229.8 267.8v-7.9c0-.9.1-1.5 1.3-1.5 4.1.1 8.3.1 12.4 0 1.2 0 1.6.4 1.6 1.6-.1 5.2-.1 10.5 0 15.7 0 1.3-.5 1.6-1.7 1.6-4-.1-8-.1-12 0-1.4 0-1.7-.5-1.7-1.8.2-2.6.1-5.2.1-7.7zM229.8 200.3v-7.9c0-1.1.3-1.6 1.5-1.6 4.1.1 8.3 0 12.4 0 1 0 1.4.3 1.4 1.4v16.1c0 .9-.2 1.4-1.2 1.4h-13c-1.2 0-1.1-.8-1.1-1.5v-7.9z"/><path fill="#020202" d="M187.1 233c-.3-1.2-1.3-.9-2-1.4 1.4-.7 2.7-.4 3.9-.2.6.1.4.9.2 1.5-.7-.1-.5-.9-1.2-1.2-.3.7-1.2 1.2.3 1.7.9.3 1.4 3.2.6 3.5-2.7 1 .2 1.1.2 1.8-1.3.3-2.5.3-4 0 .4-.6.9-.4 1.3-.6.6-.3.6-.8 0-.9-.8-.2-.7-.7-.9-1.2-1.3-2.2.2-2.5 1.6-3zm-8.2 10.5c.9-.4 1.9-.1 2.8-.3.1 0 .2-.1.3-.1 0 0 .1.1.2.1h10.1c.1 0 .2-.1.3-.1l.1.1 1.7.2c.9-.1.8-.8.8-1.4v-14.4c0-.7-.1-1.4-1-1.5-5.1.1-10.2.2-15.3-.1-1.1.2-1 1.1-1 1.9v13.4c.1.9.3 1.7 1 2.2z"/><path fill="#41BCA9" d="M165.9 338.2h6.9c1.1 0 1.6.3 1.6 1.5-.1 3.9 0 7.7 0 11.6 0 1.3-.6 1.6-1.7 1.6h-13.6c-1.2 0-1.7-.4-1.7-1.7v-11.6c0-1.1.4-1.4 1.4-1.4h7.1z"/><path fill="#59DEFD" d="M246.3 219.6v-6.3c0-1.2.3-1.7 1.6-1.7 4.1.1 8.3 0 12.4 0 1.2 0 1.5.4 1.5 1.6 0 4.3-.1 8.6 0 12.9 0 1.3-.5 1.6-1.7 1.6-4.1-.1-8.2-.1-12.2 0-1.3 0-1.7-.5-1.6-1.7.1-2.2 0-4.3 0-6.4zM246.3 248.6v-6.3c0-1.2.3-1.8 1.6-1.7 4.1.1 8.3 0 12.4 0 1.2 0 1.5.4 1.5 1.6v12.9c0 1.1-.3 1.6-1.5 1.6h-12.7c-1.1 0-1.4-.4-1.4-1.4.1-2.4.1-4.6.1-6.7z"/><path fill="#FF777B" d="M194.3 226.2c-5.1.1-10.2.2-15.3-.1 0-4.4 0-8.7-.1-13 0-1.1.3-1.6 1.5-1.5 4.2.1 8.4 0 12.6 0 .9 0 1.4.2 1.4 1.2 0 4.4.3 8.9-.1 13.4z"/><path fill="#41BCA9" d="M206.3 352.6h-5.9c-1 0-1.5-.4-1.4-1.4v-11.6c0-1.1.4-1.4 1.5-1.4h12.2c1 0 1.5.3 1.5 1.4v11.6c0 1.1-.4 1.4-1.5 1.4-2.2-.1-4.3 0-6.4 0z"/><path fill="#FF777B" d="M182.2 243.2h10.1l.1.1c.1 0 .2-.1.3-.1l1.7.2v11.4c0 1.3-.4 1.8-1.7 1.8-4.1-.1-8.2-.1-12.2 0-1.3 0-1.6-.4-1.6-1.6v-11.4c.9-.4 1.9-.1 2.8-.3.1 0 .1.1.1.1.2-.1.3-.2.4-.2z"/><path fill="#59DEFD" d="M245.1 248.6c0 2-.1 4.1 0 6.1 0 1.3-.3 1.8-1.7 1.8-3.9-.1-7.9-.1-11.8 0-1.4 0-1.7-.5-1.7-1.8-.1-5.5-.1-5.6 5.2-5.6 1.5 0 1.9-.5 1.8-1.9-.1-1.7 0-3.4 0-5.1-.1-1.3.5-1.7 1.7-1.6 1.6.1 3.3.1 4.9 0 1.4-.1 1.8.5 1.7 1.8-.2 2.1-.1 4.2-.1 6.3zM245.1 219.6c0 2-.1 4.1 0 6.1 0 1.3-.3 1.9-1.7 1.8-1.6-.1-3.3-.1-4.9 0-1.4.1-1.8-.6-1.7-1.8.1-1.6-.1-3.1 0-4.7.1-1.5-.3-2.2-2-2.1-1.6.1-3.8.8-4.6-.4-1-1.6-.3-4-.3-6 0-.8.6-1 1.2-1h12.6c1.2 0 1.3.6 1.3 1.6.1 2.2.1 4.4.1 6.5z"/><path fill="#ECF863" d="M246.4 298.1v-17.7c0-1 .2-1.5 1.4-1.5h14.1l-15.1 19.3-.4-.1zM261.9 189.1h-14.3c-.8 0-1.2-.3-1.2-1.2v-18.7l15.5 19.9zM170.2 320.5c-9.4.1-18.8.2-28.2 0-.5-4.3-.5-4.3 3.8-4.3h21.8c2.7 0 2.7 0 2.7 2.7 0 .5-.1 1-.1 1.6z"/><path fill="#41BCA9" d="M87.5 352.8c-4 0-4 0-3.8-3.8.2-3 .6-5.9.9-8.9.1-1.3.6-2.2 2.2-1.9.8.1 1.6 0 2.4 0 3.8 0 3.8 0 3.5 3.7-.3 3-.8 5.9-1 8.9-.1 1.8-.9 2.3-2.5 2.1-.6-.2-1.1-.1-1.7-.1z"/><path fill="#F8F8F8" d="M24.7 224.2c-1.3 0-2.6-.1-3.9 0-2.1.2-3.9-.5-5.5-1.8-2.6-2.1-5.6-2.8-8.8-3.2-1.6-.2-3.2-.6-4.7-1.1-2.2-.8-2.8-2.2-2-4.5 1.6-5 3.2-9.9 4.8-14.9 1-3.1 2.5-3.7 5.6-2.3 2.6 1.2 4.8 3.2 7.9 2.9 1.6-.1 2.7-.7 3.4-2.1 2-4.2 4-8.5 6-12.7.6-1.2 1.3-2.4 2.1-3.5 1.4-2.1 3-2.2 4.6-.3 2.8 3.2 5.6 6.4 8.7 9.4 2 2 2.2 3.3.6 5.7-3.9 6-6.9 12.4-8.8 19.3-.5 1.9-.8 3.8-1.1 5.8-.3 2-1.8 3.3-3.9 3.3h-5zm-.1 2.5c2.8 0 5.6-.1 8.4 0 1.5.1 2-.5 2.2-1.9 1.4-11.3 5.2-21.6 12.3-30.6.8-1 .8-1.6-.1-2.5-4.8-5.2-9.7-10.3-14.4-15.6-1.2-1.3-1.7-1.4-2.8.1-4.6 6.3-8.1 13.2-10.5 20.6-.4 1.3-.9 1.5-2.1.9-3.2-1.8-6.6-3.3-9.8-5.1-1.8-1.1-2.6-.7-3.4 1.2-3.4 7.8-5.7 16-8.2 24.1-.4 1.4.4 1.5 1.3 1.7 5 1.1 10.1 2.3 15.1 3.4 1.4.3 2.1.8 1.8 2.3-.3 1.4.5 1.6 1.6 1.6 2.9-.3 5.7-.2 8.6-.2zM29.5 238.5c1.6 0 2.5.7 2.8 2.3.8 3.8 1.4 7.6 2.2 11.4.8 4.1 2.6 7.7 4 11.5.8 2.1.7 3.7-.8 5.4-3.1 3.4-5.9 7.1-9.4 10.1-1 .9-1.7.6-2.4-.2-.4-.5-.8-.9-1-1.5-3.4-7.7-5.7-15.8-6.9-24.1-.5-3.7-1.2-7.5-1.2-11.3 0-2.8.7-3.5 3.5-3.5h4.3c1.6-.1 3.3-.1 4.9-.1zm-5-2.4c-2.8 0-5.6.1-8.4 0-1.6-.1-1.9.5-1.9 2 .1 5.2.5 10.5 1.4 15.6 1.6 10.4 4.6 20.3 9.6 29.5.5.9.7 2.1 2 .6 4.8-5.4 9.7-10.6 14.6-15.9.6-.7.7-1.2.2-2-4.7-8.8-7.1-18.2-7.5-28.1-.1-1.5-.7-1.8-2-1.7h-8z"/><path fill="#EDECEC" d="M278.5 245.3c-.7-.2-1.9.6-2.4-.9-.6-2-.1-4.7 1.2-5.9 1.5-1.3 4.3-1.3 5.9-.2 1.6 1.2 2.5 4.1 1.7 5.9-.2.4-.4.8-.9.6-.4-.1-.6-.4-.5-.9.2-.8.2-1.6 0-2.4-.5-1.7-1.9-2.5-3.8-2.2-1.7.3-2.5 1.4-2.6 3.1 0 .6 0 1.2.8 1.2.6 0 1.3.3 1.6-.4.2-.4 0-1.2.8-1.1.9.2.5 1 .5 1.5 0 .6.4 1.5-.7 1.6-.4.2-.9.1-1.6.1zM280.6 247h.6c4.2 0 4.2 0 3.8 4.2 0 .5.1 1.2-.7 1.1-.7 0-.7-.5-.7-1v-1c0-.9.1-1.6-1.2-1.6-1.4 0-1 .9-1.1 1.6-.1.6.5 1.7-.7 1.7-1 0-.6-1-.6-1.6 0-1 0-1.8-1.4-1.8s-1.3.9-1.3 1.7v.8c0 .5.2 1.2-.6 1.2-1 0-.7-.8-.7-1.3v-2.8c-.1-.9.2-1.4 1.2-1.3 1.1.1 2.3.1 3.4.1zM280.8 233.8c-.4.1-.8.4-1-.2-.1-.4-.1-.9 0-1.4.1-.4.5-.4.8-.3.8.2 1.6.5 2.8.9-1.1.5-1.9.8-2.6 1zm-4.1 2.9c2.5-.8 5.2-1.6 7.9-2.7.9-.4.6-2.1-.5-2.5-2.2-.8-4.4-1.5-6.6-2.1-.5-.1-1.2-.9-1.5.1-.4.9.3 1.4 1.1 1.5 1.2.2 1.4.9 1.4 2 .1 1.3-.7 1.6-1.6 1.8-.7.2-1.1.6-1 1.3.1.4.1.8.8.6zM285.2 219.8c0 .3-.1.8-.2 1.2-.1.4-.4.6-.9.4-.3-.1-.6-.3-.5-.7.1-.5.2-1.1.2-1.6s-.3-.9-.8-1.1c-.5-.1-.9.1-1.2.6-.3.5-.5 1.1-.8 1.6-.5 1.1-1.4 1.9-2.7 1.8-1.4-.2-2.1-1.1-2.3-2.4-.1-.6-.2-1.2 0-1.8.1-.6 0-1.6.9-1.5 1.2.1.5 1 .4 1.6 0 .9-.4 2.1.9 2.4 1.2.3 1.4-.8 1.8-1.6.6-1.4 1.3-2.7 3.1-2.3 1.7.3 2.1 1.7 2.1 3.4zM285.1 226.1v2.4c0 .5.1 1-.6 1-.6 0-.9-.4-.8-.9.3-1.8-.9-1.7-2.1-1.7h-4.1c-.6 0-1.5.4-1.5-.8-.1-1.2.8-.8 1.4-.9 1.6 0 3.1-.1 4.7 0 1.1.1 1.7-.2 1.6-1.4-.1-.5-.1-1.2.7-1.2 1 0 .7.8.7 1.3v2.2z"/><path fill="#EC8689" d="M188.5 234.5c.1.8-.8.7-1.3.8-.5 0-1.2 0-1.3-.7 0-.7.7-.6 1.2-.7.5.1 1.3 0 1.4.6zm-1.4-1.5c-1.3.5-2.8.8-1.6 3 .3.5.1 1 .9 1.2.6.1.6.6 0 .9-.4.2-.9-.1-1.3.6 1.5.3 2.7.3 4 0-.1-.7-3-.8-.2-1.8.8-.3.3-3.1-.6-3.5-1.5-.5-.6-1.1-.3-1.7.7.3.5 1.1 1.2 1.2.2-.6.4-1.4-.2-1.5-1.2-.2-2.5-.4-3.9.2.7.5 1.7.2 2 1.4z"/><path fill="#642723" d="M192.8 243.2c-.1 0-.2.1-.3.1l-.1-.1c.1 0 .2-.1.3-.1 0 0 .1 0 .1.1zM182.2 243.2c-.1 0-.2.1-.3.1l-.1-.1c.1 0 .2-.1.3-.1 0 0 .1 0 .1.1z"/><path fill="#EAEAEA" d="M24.7 224.2c-1.3 0-2.6-.1-3.9 0-2.1.2-3.9-.5-5.5-1.8-2.6-2.1-5.6-2.8-8.8-3.2-1.6-.2-3.2-.6-4.7-1.1-2.2-.8-2.8-2.2-2-4.5 1.6-5 3.2-9.9 4.8-14.9 1-3.1 2.5-3.7 5.6-2.3 2.6 1.2 4.8 3.2 7.9 2.9 1.6-.1 2.7-.7 3.4-2.1 2-4.2 4-8.5 6-12.7.6-1.2 1.3-2.4 2.1-3.5 1.4-2.1 3-2.2 4.6-.3 2.8 3.2 5.6 6.4 8.7 9.4 2 2 2.2 3.3.6 5.7-3.9 6-6.9 12.4-8.8 19.3-.5 1.9-.8 3.8-1.1 5.8-.3 2-1.8 3.3-3.9 3.3h-5zM24.6 238.5h4.9c1.6 0 2.5.7 2.8 2.3.8 3.8 1.4 7.6 2.1 11.4.8 4.1 2.6 7.7 4 11.5.8 2.1.7 3.7-.8 5.4-3.1 3.4-5.9 7.1-9.4 10.1-1 .9-1.7.6-2.4-.2-.4-.5-.8-.9-1-1.5-3.4-7.7-5.7-15.8-6.9-24.1-.5-3.7-1.2-7.5-1.2-11.3 0-2.8.7-3.5 3.5-3.5 1.5-.1 3-.1 4.4-.1z"/><path fill="#642723" d="M283.5 232.9c-1.2.4-2 .7-2.7.9-.4.1-.8.4-1-.2-.1-.4-.1-.9 0-1.4.1-.4.5-.4.8-.3.9.3 1.7.6 2.9 1z"/><path fill="#020202" d="M187.1 233.9c.5.1 1.3 0 1.3.6.1.8-.8.7-1.3.8-.5 0-1.2 0-1.3-.7.1-.7.8-.6 1.3-.7z"/></svg>