<svg xmlns="http://www.w3.org/2000/svg" width="324" height="468" viewBox="0 0 324 468"><path fill="#eaeaea" d="M4.23 159.673c.049-8.178 1.135-16.306 2.202-24.433.954-7.261 3.149-14.147 5.271-21.057 1.985-6.466 4.677-12.689 7.42-18.895 3.073-6.948 6.64-13.61 10.586-20.057 4.383-7.163 9.196-14.042 14.595-20.518 2.771-3.325 5.613-6.58 8.647-9.64 1.57-1.586 3.562-2.96 5.063-4.516 2.798-2.897 5.968-5.236 9.047-7.735 4.271-3.467 8.901-6.39 13.603-9.237a117.59 117.59 0 0 1 23.135-10.79 152.85 152.85 0 0 1 25.562-6.294c11.055-1.731 22.18-1.96 33.29-1.497 7.745.324 15.473 1.303 23.161 2.574 5.965.986 11.84 2.308 17.647 3.867 5.282 1.42 10.489 3.126 15.592 5.22 4.628 1.901 9.352 3.563 13.836 5.816 7.392 3.714 14.552 7.855 21.214 12.735 6.221 4.558 12.177 9.462 17.714 14.9 7.82 7.683 14.756 16.061 20.885 25.105 2.96 4.365 5.704 8.874 8.292 13.5 4.617 8.256 8.81 16.722 11.671 25.677 2.127 6.654 4.304 13.364 5.191 20.426.78 6.215 1.313 12.403 1.094 18.647-.054 1.55.535 2.99.176 4.62-.662 2.997-2.445 4.545-5.267 5.238-4.26 1.046-4.18 1.063-4.28 5.45-.098 4.271-.088 8.552-.18 12.82-.078 3.622.145 7.315.182 10.975.07 6.845.02 13.692.02 20.538v69.987c0 6.166-.002 12.332.002 18.496.001 3.13.77 3.98 3.834 4.275 3.534.338 6.346 3.615 5.797 7.083-.355 2.25-.27 4.48-.211 6.706.19 7.096-1.1 14.02-2.152 20.982-1.344 8.882-3.94 17.454-7.089 25.794-2.885 7.642-6.382 15.076-11.195 21.806-1.678 2.346-2.805 5.049-4.55 7.418-5.506 7.48-11.098 14.883-17.419 21.699-3.547 3.824-7.527 7.21-11.294 10.809-7.68 7.337-16.544 12.93-25.84 17.79-6.253 3.268-12.87 5.81-19.672 7.965-6.096 1.931-12.313 3.214-18.464 4.803-3.97 1.026-8.125 1.366-12.212 1.894a660.513 660.513 0 0 1-16.708 1.952 99.078 99.078 0 0 1-8.52.493c-4.694.078-9.391-.027-14.086.032-8.17.102-16.174-1.196-24.193-2.559a112.966 112.966 0 0 1-19.036-4.985c-7.522-2.684-14.877-5.846-21.896-9.757-4.922-2.74-9.832-5.56-14.273-8.942-5.253-4.002-10.706-7.768-15.537-12.382-2.751-2.628-5.571-5.252-8.29-7.92-3.608-3.538-7.09-7.25-10.177-11.287-4.856-6.35-9.606-12.786-13.635-19.7-4.118-7.068-7.806-14.342-10.55-22.098-2.127-6.018-4.366-12-5.33-18.32-.823-5.407-1.618-10.82-1.95-16.305-1.835-30.176-.09-60.378-.78-84.708 0-32.055-.096-58.258.057-84.46zm287.799-93.918c-5.615-7.25-11.613-14.16-18.26-20.484-2.012-1.914-4.203-3.638-6.256-5.51-4.674-4.257-9.776-7.98-15.016-11.46-6.957-4.62-14.309-8.58-21.902-12.098-6.356-2.944-12.871-5.504-19.556-7.495-9.403-2.803-18.956-5.065-28.722-6.349-7.859-1.033-15.732-1.85-23.654-1.908-6.24-.046-12.48-.205-18.727.314-4.452.368-8.863.977-13.287 1.522-4.825.595-9.532 1.764-14.251 2.956-6.441 1.625-12.629 3.894-18.792 6.314-3.224 1.266-6.16 3.104-9.364 4.394-.728.958-1.79 1.327-2.888 1.626L77.26 20.01c-.926.94-2.103 1.478-3.266 2.04-.265.14-.531.28-.797.422-.806.614-1.58 1.28-2.426 1.834-11.351 7.436-20.985 16.815-29.774 27.02-7.895 9.169-14.517 19.307-20.252 29.964-7.65 14.217-13.496 29.155-17.326 44.868-1.85 7.592-3.242 15.334-3.232 23.08.077 60.74-.635 121.482.3 182.22.066 4.281.793 8.492 1.434 12.704.994 6.512 2.84 12.803 4.903 19.061 1.859 5.638 4.213 11.058 6.91 16.29 5.17 10.03 11.364 19.431 18.467 28.223 5.64 6.98 11.625 13.619 18.38 19.555 1.509 1.327 3.14 2.596 4.242 4.346 1.176.278 1.975 1.16 2.843 1.88 9.232 7.645 19.184 14.205 29.892 19.574 6.98 3.5 14.19 6.555 21.702 8.694 6.627 1.886 13.267 3.833 20.17 4.58 4.502.486 8.988 1.492 13.488 1.537 12.209.122 24.419.375 36.614-1.037 7.323-.847 14.638-1.602 21.897-2.951 11.904-2.212 23.423-5.682 34.524-10.458 6.657-2.864 12.98-6.418 18.954-10.556 10.98-7.61 20.845-16.42 29.515-26.625 7.04-8.285 13.567-16.915 19.452-26.049 5.254-8.155 9.218-16.925 12.292-26.078 2.67-7.954 4.698-16.106 5.988-24.409.894-5.75 1.71-11.53 1.713-17.362.03-55.323.021-110.646.025-165.969.098-8.888-.282-17.715-1.97-26.497-2.4-12.49-6.813-24.266-12.308-35.634-4.874-10.085-10.956-19.487-17.586-28.52z"/><path fill="#fff" d="M280.568 308.616c-.002 3.994-.005 4.046-3.827 3.78-2.976-.206-5.94-.567-8.91-.852-1.317-.125-2.166-.602-1.943-2.162.113-.8.023-1.63.023-2.446.002-3.77.006-3.819 3.665-3.479 2.968.275 5.919.811 8.892.988 1.84.11 2.346.889 2.112 2.542-.076.532-.012 1.085-.012 1.63zM116.876 148.542c.004.84-.286 1.235-1.174 1.232-6.008-.018-12.015-.009-18.665-.009l19.83-15.51c0 5.095-.01 9.692.009 14.287zm108.966 1.225c-5.894 0-11.788-.015-17.682.014-.992.005-1.487-.233-1.476-1.355.045-4.541.019-9.083.019-14.15l19.343 15.095-.204.396zm-78.462 1.288c2.039.002 4.08.056 6.115-.019 1.262-.045 1.903.285 1.824 1.692a43.914 43.914 0 0 0 0 4.89c.079 1.402-.554 1.758-1.819 1.697-1.56-.076-3.13.06-4.687-.043-1.521-.1-2.213.286-2.145 2.004.062 1.581.838 3.842-.412 4.631-1.628 1.028-3.957.284-5.982.323-.835.015-.977-.57-.977-1.244.002-4.213.02-8.425-.01-12.639-.008-1.164.644-1.31 1.57-1.3 2.175.025 4.35.008 6.523.008zm28.997.002c2.039-.002 4.08.055 6.115-.022 1.277-.049 1.835.311 1.809 1.704-.073 3.94-.072 7.882.001 11.823.025 1.383-.526 1.697-1.802 1.721-5.514.103-5.568.139-5.613-5.196-.013-1.475-.532-1.89-1.91-1.814-1.692.093-3.398-.035-5.094.042-1.268.058-1.677-.471-1.628-1.68.068-1.627.086-3.264-.004-4.89-.076-1.387.527-1.756 1.808-1.71 2.104.077 4.212.022 6.318.022zm103.93 38.834c0 1.967-.028 3.933.012 5.9.022 1.036-.39 1.455-1.435 1.446a620.27 620.27 0 0 0-11.596.004c-1.089.012-1.398-.444-1.39-1.46a721.5 721.5 0 0 0-.002-12.207c-.01-1.024.32-1.464 1.399-1.452 3.865.04 7.73.034 11.596.003 1.054-.009 1.446.432 1.428 1.459-.037 2.102-.011 4.204-.011 6.307zM176.31 149.846c-2.11.002-4.219-.036-6.326.018-1.152.029-1.753-.254-1.733-1.58.061-4.149.048-8.299.006-12.449-.01-1.154.44-1.545 1.566-1.534 4.284.038 8.57.035 12.856 0 1.073-.01 1.633.26 1.62 1.474a674.682 674.682 0 0 0-.01 12.654c.008 1.06-.407 1.45-1.45 1.43-2.175-.044-4.353-.013-6.53-.013zm-28.992.002c-2.108 0-4.219-.042-6.325.016-1.165.032-1.74-.266-1.72-1.585.061-4.15.046-8.3.002-12.45-.012-1.158.438-1.54 1.564-1.53 4.285.04 8.572.051 12.856-.004 1.276-.017 1.638.49 1.622 1.69-.048 4.082-.054 8.164.003 12.245.018 1.262-.459 1.674-1.677 1.636-2.106-.067-4.216-.018-6.325-.018zm118.574 73.517c-.026-1.09.265-1.605 1.471-1.588 3.868.055 7.738.05 11.605.004 1.284-.015 1.62.58 1.613 1.742a849.555 849.555 0 0 0 0 13.64c.011 1.211-.42 1.703-1.662 1.687-3.868-.047-7.738-.04-11.604-.002-1.061.01-1.438-.387-1.417-1.434.05-2.375.016-4.75.016-7.126-.005-2.308.033-4.616-.022-6.923zm-137.843-57.04c-2.647 0-5.294-.037-7.94.018-1.108.022-1.567-.297-1.55-1.491.058-4.14.047-8.28.005-12.419-.01-1.034.308-1.446 1.386-1.439 5.36.038 10.72.028 16.081.01.88-.004 1.398.191 1.393 1.226a733.33 733.33 0 0 0 .05 13.028c.017 1.221-.755 1.062-1.487 1.064-2.646.008-5.293.003-7.938.003zm59.522.01c-.92.008-1.499-.061-1.47-1.294.092-4.138.086-8.28.034-12.418-.015-1.235.378-1.649 1.625-1.636 5.225.055 10.45.06 15.674-.001 1.29-.016 1.6.468 1.581 1.666-.058 4.003-.078 8.008.008 12.01.03 1.403-.505 1.724-1.78 1.686-2.575-.076-5.155-.023-7.732-.023-2.648 0-5.294-.016-7.94.01zm93.883 142.484c.001-4.209-.017-4.064 4.24-3.533 6.727.839 13.48 1.475 20.224 2.17 3.171.326 6.347.618 9.525.867 1.148.09 1.51.657 1.482 1.725-.042 1.564-.093 3.135.013 4.694.1 1.512-.535 1.879-1.925 1.724-5.732-.643-11.47-1.223-17.205-1.832-4.452-.474-8.898-1.02-13.36-1.418-2.988-.267-2.997-.176-2.994-3.172v-1.225zm-85.71-174.497c2.581-.002 5.164.044 7.742-.023 1.15-.03 1.531.351 1.515 1.513-.06 4.142-.059 8.286-.01 12.429.013 1.138-.36 1.553-1.516 1.544a1094.62 1094.62 0 0 0-15.892-.003c-1.067.007-1.418-.396-1.41-1.436.037-4.21.04-8.422-.004-12.633-.01-1.067.379-1.427 1.427-1.408 2.715.05 5.432.017 8.149.017zm-67.679-.002c2.58 0 5.162.031 7.742-.015 1.057-.02 1.62.199 1.603 1.442-.061 4.21-.049 8.421-.01 12.632.01 1.072-.408 1.41-1.443 1.402a1093.32 1093.32 0 0 0-15.892.005c-1.193.01-1.493-.474-1.482-1.578.044-4.143.053-8.287-.012-12.429-.02-1.206.44-1.502 1.549-1.478 2.647.058 5.296.02 7.945.02zm59.6 82.867c-1.163.027-1.54-.406-1.528-1.543a502.44 502.44 0 0 0-.004-12.431c-.019-1.288.502-1.61 1.693-1.599 5.162.046 10.325.066 15.488-.01 1.394-.02 1.722.485 1.701 1.774-.063 4.007-.085 8.018.015 12.024.038 1.493-.51 1.842-1.88 1.792-2.51-.09-5.025-.025-7.539-.025-2.649-.002-5.299-.044-7.946.018zm-59.688-.019c-2.582 0-5.164-.043-7.745.02-1.17.028-1.71-.241-1.685-1.567.078-4.143.078-8.289.008-12.432-.023-1.32.516-1.585 1.687-1.575 5.164.045 10.326.044 15.489.001 1.172-.01 1.728.278 1.709 1.582-.06 4.143-.064 8.289.002 12.432.021 1.332-.57 1.583-1.722 1.557-2.58-.058-5.162-.018-7.743-.018zm-.085-49.283c2.579 0 5.16.044 7.737-.02 1.209-.029 1.7.35 1.68 1.62a447.14 447.14 0 0 0-.001 12.22c.016 1.223-.383 1.675-1.637 1.662a798.58 798.58 0 0 0-15.478-.002c-1.213.012-1.685-.354-1.668-1.62.061-4.074.057-8.148.001-12.221-.017-1.222.364-1.697 1.627-1.661 2.578.073 5.159.022 7.739.022zm67.78 0c2.581 0 5.162.05 7.74-.021 1.253-.036 1.652.42 1.635 1.652-.057 4.073-.06 8.147-.001 12.22.019 1.257-.433 1.642-1.658 1.63a791.91 791.91 0 0 0-15.477 0c-1.245.013-1.663-.42-1.647-1.652a443.24 443.24 0 0 0 0-12.22c-.019-1.26.452-1.659 1.67-1.628 2.578.065 5.159.02 7.738.02zm-88.809-16.875c2.782 0 5.566.063 8.346-.027 1.357-.043 1.738.44 1.714 1.753a349.98 349.98 0 0 0-.003 11.808c.019 1.251-.253 1.826-1.668 1.809a713.9 713.9 0 0 0-16.693-.001c-1.29.013-1.617-.47-1.6-1.664.051-4.003.07-8.009-.011-12.011-.028-1.386.478-1.732 1.772-1.692 2.712.082 5.428.025 8.143.025zm109.698 15.315c-2.783 0-5.566-.036-8.349.018-1.112.02-1.571-.316-1.557-1.5.054-4.14.047-8.28.005-12.42-.012-1.052.345-1.433 1.407-1.427 5.7.033 11.402.035 17.103-.009 1.056-.008 1.45.323 1.44 1.387-.036 4.207-.04 8.416-.002 12.624.011 1.123-.506 1.357-1.496 1.343-2.85-.043-5.7-.016-8.55-.016zm-20.905 34.13c-2.646 0-5.294-.043-7.94.018-1.317.03-1.81-.473-1.795-1.788.047-4.071.045-8.144 0-12.216-.012-1.257.358-1.865 1.732-1.852 5.225.047 10.452.044 15.676.002 1.35-.012 1.763.552 1.748 1.835-.05 4.14-.058 8.28.006 12.42.019 1.293-.504 1.627-1.691 1.6-2.577-.06-5.157-.019-7.736-.019zm-67.757 0c-2.58 0-5.158-.045-7.735.02-1.21.029-1.691-.348-1.673-1.62.06-4.138.056-8.28.005-12.419-.017-1.3.434-1.828 1.765-1.817 5.225.042 10.45.036 15.676.003 1.2-.008 1.722.421 1.711 1.66a588.3 588.3 0 0 0 .003 12.42c.016 1.332-.51 1.8-1.813 1.771-2.644-.06-5.293-.018-7.939-.018zm88.725 1.179c2.72-.003 5.441.044 8.16-.024 1.241-.03 1.863.225 1.836 1.66-.078 4.08-.073 8.161 0 12.24.023 1.387-.523 1.723-1.808 1.709a830.287 830.287 0 0 0-16.524-.027c-1.26.011-1.639-.413-1.62-1.645.062-4.08.072-8.16-.002-12.24-.025-1.392.514-1.733 1.799-1.697 2.717.078 5.44.024 8.16.024zM98.78 217.218c-1.262.032-1.853-.278-1.827-1.689.074-4.079.076-8.161 0-12.24-.026-1.413.556-1.693 1.819-1.68 5.439.052 10.88.052 16.319.005 1.248-.012 1.847.245 1.819 1.673-.082 4.08-.084 8.162.002 12.24.03 1.436-.566 1.695-1.812 1.663-2.72-.07-5.44-.021-8.16-.021v.028c-2.72 0-5.442-.049-8.16.02zm8.102-33.873c-2.785.003-5.572-.046-8.354.026-1.262.032-1.655-.44-1.638-1.661.051-4.007.046-8.016.004-12.023-.014-1.294.46-1.83 1.79-1.82 5.5.04 11.003.043 16.503 0 1.199-.01 1.702.326 1.682 1.61a434.267 434.267 0 0 0-.003 12.226c.015 1.22-.366 1.697-1.63 1.664-2.783-.071-5.57-.022-8.354-.022zm109.816.004c-2.784-.004-5.57-.051-8.352.017-1.253.032-1.656-.428-1.639-1.657.055-4.074.058-8.151-.003-12.226-.019-1.273.469-1.627 1.676-1.617 5.501.045 11.004.042 16.504 0 1.324-.009 1.808.515 1.796 1.815-.044 4.007-.066 8.016.01 12.022.027 1.43-.604 1.695-1.84 1.666-2.717-.065-5.435-.02-8.152-.02zm-109.837 1.286c2.713 0 5.43.052 8.142-.023 1.335-.036 1.964.273 1.93 1.79-.09 4.136-.063 8.278-.01 12.417.016 1.23-.4 1.667-1.643 1.657a1175.78 1175.78 0 0 0-16.693-.008c-1.21.007-1.706-.45-1.694-1.679.037-4.139.046-8.279-.007-12.418-.017-1.356.555-1.778 1.832-1.752 2.714.054 5.429.016 8.143.016zm101.449 15.84c-1.228.028-1.677-.394-1.66-1.641.054-4.207.058-8.417-.003-12.623-.019-1.301.53-1.603 1.705-1.594 5.496.04 10.994.052 16.49-.005 1.461-.014 1.866.588 1.847 1.95-.058 4.002-.062 8.008.001 12.012.021 1.407-.472 1.94-1.89 1.903-2.782-.073-5.565-.022-8.348-.022-2.714 0-5.429-.044-8.142.02zm46.134 24.502c-2.925.004-5.852-.043-8.777.026-1.255.03-1.84-.25-1.809-1.672.084-3.946.059-7.893.01-11.84-.014-1.13.343-1.56 1.512-1.552 5.988.042 11.976.037 17.963.005 1.205-.007 1.72.419 1.706 1.665-.043 3.878-.047 7.757.005 11.635.018 1.35-.54 1.78-1.833 1.753-2.925-.061-5.851-.02-8.777-.02zm11.444-25.11c-.031-1.286.303-1.832 1.694-1.804 3.737.077 7.477.06 11.216.008 1.322-.018 1.796.48 1.788 1.797a1755.84 1755.84 0 0 0-.004 19.377c.005 1.217-.456 1.704-1.684 1.691-3.807-.041-7.615-.058-11.421.01-1.307.022-1.604-.527-1.583-1.703.054-3.263.019-6.527.019-9.79 0-3.196.048-6.393-.025-9.587zm39.415-17.728c1.368-.028 1.942.309 1.906 1.8-.092 3.876-.065 7.754-.01 11.63.016 1.22-.365 1.666-1.63 1.658-7.48-.048-14.961-.045-22.441-.009-1.177.006-1.72-.271-1.699-1.583.068-3.942.06-7.888.004-11.833-.017-1.227.371-1.675 1.632-1.653 3.74.066 7.48.024 11.222.024v-.006c3.672 0 7.344.05 11.016-.028zm-163.89 1.297c-1.732.024-2.2-.537-2.152-2.206.11-3.87.077-7.747.01-11.62-.023-1.307.375-1.764 1.728-1.794 5.722-.127 5.722-.169 5.72 5.533 0 3.917 0 3.917 3.842 3.917 8.087 0 16.175-.041 24.26.036 1.637.015 2.159-.495 2.06-2.094-.121-1.964-.002-3.94-.041-5.91-.021-1.031.365-1.542 1.427-1.45.135.012.272.003.408-.001 5.6-.141 5.6-.141 5.6 5.408 0 2.515-.123 5.037.041 7.542.13 1.992-.363 2.71-2.539 2.657-6.656-.158-13.318-.058-19.978-.058-6.796.002-13.592-.052-20.386.04zm124.5 70.577c0-4.142.044-8.286-.027-12.428-.022-1.356.297-1.942 1.792-1.904 3.665.095 7.334.075 11 .009 1.4-.027 1.919.45 1.91 1.876-.044 8.353-.042 16.707.002 25.06.008 1.314-.4 1.795-1.749 1.77-3.731-.072-7.47-.071-11.203 0-1.33.024-1.772-.417-1.75-1.751.067-4.21.025-8.421.025-12.632zm41.265 42.768c-.002 2.65-.052 5.302.019 7.95.034 1.291-.49 1.69-1.695 1.561-5.968-.637-11.937-1.249-17.906-1.881-1.55-.164-3.091-.481-4.64-.523-1.34-.037-1.53-.688-1.52-1.805.04-4.417.066-8.834-.009-13.25-.022-1.38.494-1.715 1.783-1.708 7.406.045 14.81.044 22.217-.009 1.302-.008 1.822.345 1.777 1.717-.089 2.646-.026 5.299-.026 7.948zm-12.67-98.635c3.6-.005 7.202.05 10.801-.034 1.35-.03 1.948.24 1.923 1.76-.083 5.093-.063 10.19-.01 15.285.014 1.285-.336 1.8-1.713 1.79-7.472-.056-14.945-.05-22.418-.01-1.235.007-1.656-.403-1.644-1.644a701.6 701.6 0 0 0-.006-15.49c-.019-1.432.634-1.69 1.858-1.675 3.736.048 7.472.018 11.208.018zm-13.94 88.539c0 4.959-.052 9.919.032 14.876.025 1.541-.457 2.08-1.987 1.901a419.944 419.944 0 0 0-11.515-1.2c-1.379-.124-1.181-1.034-1.183-1.897-.006-5.367-.005-10.733-.005-16.1 0-4.347.042-8.696-.022-13.043-.02-1.312.373-1.794 1.727-1.766 3.667.075 7.337.09 11.003-.006 1.51-.04 2.009.408 1.983 1.95-.086 5.094-.032 10.19-.032 15.285zm24.723-19.99c1.35-.027 1.942.279 1.92 1.788-.081 5.37-.059 10.74-.014 16.109.011 1.216-.363 1.673-1.627 1.665-7.476-.046-14.952-.042-22.429-.01-1.162.006-1.724-.256-1.71-1.575a821.36 821.36 0 0 0 0-16.313c-.01-1.234.382-1.67 1.635-1.649 3.737.064 7.476.023 11.215.023v-.013c3.67 0 7.34.048 11.01-.025zm-10.956-.873c-3.74-.003-7.482-.04-11.223.018-1.202.02-1.683-.311-1.67-1.6.06-5.645.052-11.292.006-16.938-.01-1.184.439-1.503 1.558-1.499 7.55.033 15.1.03 22.65-.006 1.118-.006 1.572.322 1.563 1.5a996.182 996.182 0 0 0 .004 16.938c.012 1.271-.443 1.63-1.665 1.61-3.739-.064-7.481-.023-11.223-.023zm-29.302 32.022c.004 3.874-.034 7.749.025 11.622.02 1.327-.331 1.786-1.758 1.615a653.657 653.657 0 0 0-17.58-1.893c-1.343-.125-1.878-.443-1.865-1.894.068-7.068.064-14.137.004-21.206-.013-1.42.417-1.87 1.85-1.852 5.776.072 11.554.07 17.33.004 1.493-.017 2.051.454 2.02 1.981-.078 3.873-.026 7.748-.026 11.623zm-.238-90.438c.015 1.21-.361 1.687-1.626 1.677-5.915-.048-11.83-.042-17.744-.003-1.127.007-1.561-.345-1.557-1.513.036-7.956.042-15.912-.004-23.867-.008-1.31.536-1.592 1.706-1.584 5.848.04 11.694.056 17.542-.006 1.423-.015 1.698.597 1.682 1.839-.052 3.874-.019 7.751-.019 11.626 0 3.944-.032 7.889.02 11.831zm-20.908 61.696c0-4.077.034-8.155-.021-12.23-.017-1.23.372-1.662 1.63-1.65 5.912.052 11.823.051 17.734.003 1.522-.012 1.762.677 1.712 2.022-.3 8.145-.269 16.294-.01 24.44.041 1.282-.276 1.732-1.516 1.728-5.98-.022-11.96-.039-17.938.011-1.282.011-1.625-.485-1.61-1.685.05-4.212.019-8.426.019-12.64zm37.553-48.99c-.026-1.418.29-2.082 1.902-2.067 7.415.07 14.832.052 22.246.003 1.259-.008 1.64.426 1.632 1.653-.04 7.756-.044 15.512.004 23.268.008 1.338-.422 1.738-1.76 1.726-7.347-.06-14.695-.067-22.042.001-1.489.013-2.034-.355-1.99-1.928.11-3.807.035-7.62.035-11.43-.004-3.741.042-7.484-.027-11.225zm-119.607-19.657c-6.873 0-13.746-.04-20.619.031-1.524.016-2.005-.446-1.97-1.975.095-4.012.085-8.03.006-12.044-.03-1.437.452-1.864 1.872-1.859 13.745.043 27.49.048 41.236-.004 1.527-.006 2.006.449 1.97 1.974-.094 4.014-.084 8.03-.004 12.045.029 1.438-.454 1.871-1.873 1.859-6.872-.059-13.745-.027-20.618-.027zm121.566-19.16c-1.543.034-1.983-.547-1.972-2.03.057-7.006.06-14.014-.002-21.02-.012-1.403.434-1.787 1.828-1.93 10.659-1.096 21.307-2.29 31.954-3.488 1.283-.144 1.743.333 1.715 1.56-.037 1.7-.012 3.401-.006 5.102.003.723-.034 1.435-1.014 1.406-2.302-.067-4.434 1.213-6.79.796-1.492-.264-1.998.426-1.973 1.955.085 5.237-.016 10.478.072 15.715.027 1.544-.46 1.988-1.977 1.946-3.603-.101-7.21-.032-10.815-.032v-.009c-3.674 0-7.348-.057-11.02.028zm-21.376.01c-5.44 0-10.878-.044-16.317.028-1.442.02-1.864-.456-1.847-1.87a880.68 880.68 0 0 0 .007-17.337c-.011-1.185.328-1.64 1.573-1.76 7.423-.72 14.837-1.516 22.252-2.319 3.301-.357 6.595-.785 9.891-1.186 2.566-.312 2.69-.213 2.692 2.302.001 6.732-.04 13.463.03 20.193.018 1.517-.438 2.002-1.967 1.98-5.437-.079-10.876-.03-16.314-.03zm54.83-35.308c0 1.154-.133 2.328.03 3.46.308 2.162-1.011 2.734-2.672 2.785-9.796.298-19.454 1.944-29.18 2.904-13.046 1.29-26.074 2.755-39.1 4.225-1.602.18-2.094-.128-2.092-1.8.01-4.76-.332-9.51-1.085-14.215-.198-1.243.12-1.757 1.375-2.139 22.23-6.76 44.45-13.553 66.645-20.426 1.597-.494 1.712.345 1.99 1.326a116.652 116.652 0 0 1 4.09 23.88zM161.89 102.872c12.25 0 24.499.034 36.749-.036 1.808-.01 2.476.404 2.443 2.354-.12 6.872-.092 13.747-.015 20.62.017 1.61-.465 2.091-2.078 2.08-10.072-.061-20.144.017-30.215-.06-1.873-.014-2.47.535-2.454 2.428.086 9.596.078 19.192.014 28.788-.01 1.707.55 2.322 2.234 2.202 1.558-.111 3.13.028 4.693-.034 1.207-.048 1.71.368 1.691 1.637a364.74 364.74 0 0 0 0 11.228c.022 1.31-.576 1.594-1.734 1.59-7.621-.03-15.243-.03-22.865 0-1.162.005-1.751-.284-1.73-1.592a367.9 367.9 0 0 0 0-11.23c-.02-1.266.485-1.676 1.691-1.634 1.768.062 3.54-.017 5.308.018 1.123.023 1.592-.45 1.59-1.578-.015-10.072-.019-20.145.007-30.218.003-1.685-1.1-1.57-2.223-1.569-9.8.003-19.599.01-29.397-.01-3.417-.008-3.047.343-3.06-3.072-.022-6.465.093-12.933-.061-19.395-.051-2.166.679-2.573 2.664-2.56 12.249.085 24.5.043 36.748.043zm155.007 217.463c-.526 12.724-2.686 24.859-6.314 36.743-2.95 9.664-6.852 18.899-12.132 27.54-.895 1.465-1.579 1.576-3.02.677a15379.163 15379.163 0 0 0-58.399-36.238c-1.237-.765-1.496-1.424-.928-2.758 4.126-9.701 6.598-19.831 7.629-30.313a28.63 28.63 0 0 0 .136-4.076c-.06-1.403.505-1.745 1.823-1.594 4.386.504 8.782.915 13.172 1.375 8.782.92 17.56 1.858 26.343 2.77 9.66 1.004 19.323 1.966 28.98 2.99 2.734.29 2.727.36 2.71 2.884zM154.893 7.25c20.225.174 41.602 3.346 62.227 11.015 1.716.639 1.211 1.278.804 2.316-5.047 12.844-10.05 25.705-15.155 38.526-.646 1.624-.531 2.49 1.072 3.372 2.916 1.605 5.671 3.5 8.566 5.147 1.116.637 1.144 1.126.542 2.18-3.748 6.55-7.467 13.12-11.082 19.745-.71 1.303-1.304 1.092-2.378.63-23.316-10.015-46.993-10.177-70.9-2.397-1.772.578-2.5.481-3.325-1.287a347 347 0 0 0-7.903-15.885c-.874-1.653-.413-2.284.99-3.092 2.767-1.594 5.419-3.388 8.158-5.034 1.021-.613 1.367-1.179.899-2.434-5.534-14.84-10.997-29.707-16.494-44.561-.892-2.409-.933-2.411 1.722-3.091 9.185-2.352 18.454-4.115 27.957-4.686 4.208-.254 8.409-.378 14.3-.464zm156.79 111.403c.185 1.29-.852 1.147-1.458 1.336-7.077 2.192-14.167 4.342-21.252 6.51-14.95 4.576-29.905 9.134-44.836 13.766-1.367.424-1.788.195-2.246-1.164-6.889-20.399-19.164-36.432-38.293-46.816-1.339-.726-1.691-1.216-.85-2.668 3.848-6.65 7.536-13.39 11.36-20.055.65-1.133.59-1.645-.579-2.317-3.063-1.763-6.008-3.731-9.069-5.5-1.151-.666-1.206-1.288-.752-2.442a6322.667 6322.667 0 0 0 15.209-38.938c.444-1.15.883-1.176 1.905-.765 25.794 10.352 47.154 26.56 64.084 48.583 11.233 14.61 20.127 30.512 26.015 48.03.282.836.527 1.685.763 2.44zM82.572 190.152c0-9.392-.114-18.786.036-28.175.118-7.306.576-14.6 1.963-21.81 1.179-6.126 3.567-11.772 6.564-17.182 4.097-7.394 9.036-14.169 15.441-19.743 4.614-4.015 9.785-7.194 15.22-10.053 5.024-2.641 10.335-4.42 15.744-5.657 6.968-1.593 14.064-2.537 21.304-2.701 9.281-.21 18.376.823 27.297 3.028 10.512 2.596 19.952 7.466 28.404 14.4 6.274 5.146 11.357 11.244 15.801 17.885 3.386 5.058 5.935 10.594 8.267 16.267 2.375 5.777 2.599 11.725 2.755 17.725.178 6.831.042 13.668.042 20.503l.001 29.918v74.645c0 8.408-.003 16.816.002 25.224 0 2.758.197 5.503.146 8.279-.126 6.803-1.768 13.269-3.246 19.799-1.125 4.966-2.951 9.726-4.718 14.466-1.268 3.402-3.774 6.244-6.404 8.814-1.544 1.51-2.823 3.327-4.832 4.337-1.227.616-2.215.592-3.317-.416-3.25-2.974-6.614-5.821-9.909-8.747-2.497-2.219-2.517-3.471-.197-5.878 5.144-5.34 8.994-11.466 11.647-18.417 2.071-5.431 2.966-11.054 3.734-16.761.501-3.74.325-7.462.332-11.188.037-25.317.031-50.635-.008-75.951-.002-1.694.354-3.116 1.724-4.13 2.282-1.69 2.613-4.175 2.773-6.701.107-1.694.255-3.44-.024-5.095-.768-4.55-.025-9.065.057-13.592.044-2.516-.135-5.01-.414-7.507-.278-2.52.296-5.002.42-7.505.179-3.61-.359-7.18-.427-10.774-.067-3.531.516-7.027.452-10.57-.094-5.245-2.102-9.317-6.173-12.666-4.082-3.36-8.136-6.744-12.571-9.62-2.345-1.52-5.061-2.202-7.8-2.723-.849-.162-1.915-.158-2.308-1.05-.467-1.057.594-1.588 1.21-2.117 1.983-1.704 1.725-4.105 1.811-6.241.201-5.028.114-10.07.05-15.106-.062-4.884-2.168-6.566-7.013-7.014-3.309-.305-6.605-.012-9.872-.067-2.89-.05-5.903-.072-8.838.003-3.392.086-6.854.03-10.269-.021-2.92-.043-5.9-.323-8.838.093-.403.057-.835.167-1.214.082-3.268-.735-6.6-.137-9.864-.166a476.133 476.133 0 0 0-8.838.003c-3.405.033-6.842.133-10.276-.024-4.641-.21-8.19 1.121-8.214 6.866-.025 6.243-.427 12.5.333 18.738.174 1.437 1.02 2.303 1.906 3.247.486.518 1.454.915 1.166 1.75-.294.853-1.337.907-2.103.99-2.605.284-5.04 1.066-7.356 2.245-4.572 2.33-8.253 5.893-12.27 8.985-2.195 1.69-4.285 3.52-5.66 6.04-2.429 4.447-1.906 9.238-1.615 13.957.155 2.513.26 4.973-.016 7.488-.364 3.312-.351 6.669-.019 9.978a37.384 37.384 0 0 1 0 7.685c-.307 2.965-.335 5.974.056 8.952.312 2.37.3 4.72-.001 7.093-.396 3.111-.301 6.247-.065 9.36.167 2.177 1.258 3.955 3.002 5.342 1.362 1.085 2.165 2.392 1.431 4.27-.232.594-.067 1.346-.068 2.027-.002 25.793-.1 51.587.041 77.38.068 12.461 2.73 24.302 9.65 34.957 2.305 3.55 2.011 3.308-.656 5.808-3.289 3.082-6.391 6.382-9.88 9.256-2.126 1.749-3.021 1.78-4.726-.28-5.71-6.902-9.094-14.756-10.017-23.735-.35-3.403-.227-6.779-.333-10.166-.59-18.832-.384-37.67-.419-56.507-.007-3.966-1.965-5.88-6.103-5.924-4.898-.05-9.798-.007-14.698-.014-2.552-.003-3.679-1.118-3.685-3.733a3455.47 3455.47 0 0 1-.001-20.622c.008-3.16.7-3.82 3.81-3.821 4.015 0 8.031.043 12.044-.024a19.54 19.54 0 0 0 4.222-.511c3.24-.778 4.408-2.51 4.412-6.351.013-10.276.005-20.553.005-30.83zm-.858-48.923c-.381 4.593-1.066 9.185-1.092 13.78-.132 22.45-.088 44.902-.105 67.353-.002 2.64-.004 2.645-2.641 2.646-6.667.002-13.334.046-20-.035-1.631-.02-2.243.354-2.228 2.124.083 9.727.072 19.457.008 29.186-.011 1.7.543 2.232 2.224 2.213 6.804-.074 13.608.034 20.41-.074 1.812-.029 2.272.485 2.269 2.28-.047 20.684-.054 41.366.054 62.048.023 4.4.633 8.79 1.264 13.157 1.801 3.95 2.99 8.164 5.345 11.883 2.082 3.287 4.407 6.37 6.905 9.344.888 1.057 1.466.967 2.423.074a1709.521 1709.521 0 0 1 16.521-15.2c.785-.714.794-1.173.143-1.994-8.092-10.22-11.706-22.023-11.76-34.902-.116-28.033-.032-56.069-.086-84.104-.002-1.643.506-2.05 2.092-2.049 38.985.04 77.972.037 116.959.004 1.393-.001 1.872.348 1.87 1.809-.05 28.443.14 56.887-.133 85.327-.154 16.03-5.96 29.862-18.12 40.692-1.011.9-1.246 1.413-.06 2.475 5.22 4.675 10.356 9.443 15.455 14.248.988.93 1.601 1.004 2.675.123 4.702-3.864 9.16-7.953 12.264-13.26.982-1.68 1.818-.796 2.763-.21 8.038 4.979 16.067 9.973 24.102 14.955 11.33 7.024 22.653 14.06 34.011 21.04 1.307.803 1.723 1.462.768 2.855-9.997 14.583-20.946 28.318-34.568 39.762-15.473 13-33.195 21.41-52.777 25.96-24.982 5.803-50.286 7.688-75.774 4.667-20.527-2.434-39.364-9.901-56.601-21.272-25.626-16.902-45.39-38.991-58.502-66.854-2.17-4.608-4.161-9.314-5.217-14.343-1.692-2.636-2.047-5.698-2.697-8.654-1.793-8.17-2.558-16.455-2.974-24.807-.21-4.215-.233-8.417-.235-12.622-.026-51.214-.15-102.427.078-153.64.056-12.54 1.364-25.067 5.641-37.05-.242-1.639.405-3.17.917-4.6 2.027-5.68 4.138-11.342 6.496-16.893 2.413-5.682 5.139-11.222 8.252-16.581 3.628-6.242 7.384-12.388 11.669-18.197 6.631-8.993 14.004-17.285 22.505-24.6C70.341 32.31 79.11 26.367 88.65 21.565c6.036-3.039 12.299-5.547 18.746-7.615 1.55-.497 2.035-.032 2.5 1.24 2.371 6.512 4.78 13.012 7.178 19.514 3.008 8.161 5.966 16.342 9.077 24.463.626 1.635.302 2.38-1.128 3.207-2.767 1.595-5.386 3.442-8.143 5.055-1.248.73-1.482 1.316-.774 2.674 3.021 5.781 5.882 11.646 8.851 17.456.507.991.474 1.42-.658 1.927-22.512 10.096-36.215 27.516-42.39 51.163-.053.197-.13.387-.195.58zm166.49 112.913c-4.32.53-4.32.53-4.32-3.775v-21.782c0-2.736 0-2.74 2.72-2.702.54.007 1.08.068 1.62.105 5.096-.042 10.193-.067 15.29-.134 1.171-.015 1.53.537 1.527 1.62a8087.75 8087.75 0 0 0-.003 25.296c0 .952-.255 1.605-1.357 1.578-5.159-.121-10.324.266-15.478-.206zm-94.36-37.042c-4.349.022-8.7.017-13.048.087-1.135.018-1.552-.337-1.537-1.508.055-4.214.033-8.43.014-12.644-.004-.868.164-1.439 1.214-1.407 4.48.137 8.966-.214 13.44.198.129-.878.744-.985 1.48-.984 4.784.012 9.569.007 14.354.007.612 0 1.259-.06 1.375.796 3.808-.004 7.62.041 11.427-.037 1.322-.026 1.78.374 1.756 1.723a362.924 362.924 0 0 0-.001 12.244c.02 1.262-.412 1.632-1.644 1.617-3.806-.044-7.614.022-11.422.044-.531.73-1.262.874-2.128.868-4.453-.031-8.907-.013-13.36-.017-.804 0-1.684.126-1.92-.987zM4.173 244.133c.69 24.33-1.056 54.533.78 84.709.332 5.485 1.126 10.897 1.95 16.304.963 6.32 3.203 12.302 5.33 18.32 2.743 7.756 6.431 15.03 10.55 22.098 4.029 6.914 8.78 13.35 13.635 19.7 3.087 4.036 6.569 7.75 10.177 11.288 2.719 2.667 5.538 5.29 8.29 7.92 4.83 4.613 10.284 8.379 15.537 12.38 4.441 3.384 9.352 6.202 14.272 8.943 7.02 3.91 14.374 7.073 21.897 9.757a112.93 112.93 0 0 0 19.035 4.985c8.02 1.363 16.024 2.661 24.195 2.558 4.693-.058 9.391.047 14.085-.032 2.843-.047 5.692-.2 8.52-.492a662.728 662.728 0 0 0 16.708-1.952c4.086-.528 8.242-.868 12.21-1.894 6.152-1.59 12.37-2.871 18.467-4.803 6.8-2.155 13.418-4.698 19.671-7.966 9.297-4.86 18.159-10.452 25.84-17.79 3.767-3.598 7.747-6.984 11.294-10.808 6.321-6.816 11.912-14.219 17.418-21.698 1.745-2.37 2.873-5.073 4.55-7.42 4.814-6.73 8.31-14.163 11.195-21.805 3.15-8.34 5.746-16.912 7.09-25.794 1.053-6.961 2.342-13.887 2.152-20.982-.06-2.227-.144-4.457.211-6.706.548-3.469-2.263-6.745-5.798-7.083-3.064-.294-3.832-1.144-3.834-4.275-.004-6.164-.002-12.33-.002-18.496v-69.987c0-6.845.05-13.693-.019-20.538-.038-3.66-.26-7.352-.182-10.975.091-4.268.082-8.549.18-12.82.1-4.387.019-4.404 4.28-5.45 2.82-.693 4.605-2.24 5.266-5.238.36-1.631-.228-3.071-.175-4.62.218-6.244-.314-12.431-1.094-18.647-.888-7.062-3.064-13.772-5.19-20.426-1.592-4.979-3.595-9.807-5.76-14.337-1.897-3.967-3.862-7.674-5.912-11.34-2.588-4.626-5.333-9.135-8.292-13.5-6.13-9.044-13.065-17.422-20.885-25.105-5.538-5.438-11.493-10.342-17.715-14.9-6.661-4.88-13.822-9.021-21.213-12.736-4.485-2.252-9.207-3.914-13.837-5.814-5.102-2.095-10.31-3.8-15.592-5.22-5.806-1.56-11.681-2.882-17.646-3.868-7.689-1.271-15.417-2.25-23.162-2.574-11.109-.464-22.234-.234-33.29 1.497a152.903 152.903 0 0 0-25.561 6.294 117.597 117.597 0 0 0-23.135 10.79c-4.703 2.848-9.332 5.77-13.603 9.237-3.08 2.499-6.25 4.838-9.047 7.736-1.502 1.556-3.494 2.93-5.063 4.514-3.033 3.06-5.877 6.316-8.649 9.641-5.398 6.476-10.21 13.355-14.592 20.518-3.947 6.447-7.515 13.11-10.586 20.058-2.744 6.205-5.436 12.428-7.422 18.894-2.121 6.91-4.317 13.796-5.27 21.057-1.068 8.126-2.154 16.255-2.202 24.433-.154 26.202-.058 52.405-.058 84.46z"/><path fill="#4775e4" d="M163.811 371.664c0-2.722.058-5.444-.024-8.164-.04-1.324.247-1.925 1.748-1.977 9.94-.344 19.333-2.832 28.131-7.49.8-.423 1.308-.359 1.961.249 5.287 4.901 10.576 9.8 15.925 14.635 1.45 1.31.248 1.587-.61 2.047-9.269 4.968-19.18 7.97-29.536 9.594-5.178.812-10.389 1.237-15.632 1.36-1.481.034-2.069-.29-1.997-1.888.125-2.784.035-5.576.035-8.366zm-9.37-.084c0 2.857-.037 5.716.02 8.571.022 1.157-.196 1.898-1.556 1.615-1.5-.313-1.989.435-2.276 1.807-1.055 5.057-2.23 10.089-3.355 15.132-.199.895-.284 1.726-1.66 1.313-8.14-2.44-16.317-4.742-24.122-8.188-1.857-.821-2.247-1.537-1.174-3.38 1.845-3.168 3.347-6.535 5.11-9.754.682-1.246.448-1.715-.85-2.146-7.41-2.454-14.299-5.923-20.627-10.53-1.493-1.088-1.424-1.635-.128-2.802 5.258-4.73 10.443-9.542 15.598-14.383.938-.878 1.529-.902 2.548-.1 9 7.089 19.333 10.936 30.63 12.32 1.424.176 1.954.657 1.881 2.16-.133 2.782-.039 5.576-.039 8.364zm-72.565-35.674c-10.175 3.141-20.344 6.3-30.526 9.418-12.063 3.694-24.136 7.356-36.21 11.02-.837.254-1.709.397-2.565.592 1.055 5.03 3.048 9.736 5.216 14.343 13.112 27.863 32.876 49.953 58.501 66.855 17.238 11.37 36.075 18.837 56.602 21.272 25.488 3.021 50.792 1.136 75.774-4.668 19.582-4.55 37.305-12.96 52.778-25.959 13.622-11.444 24.57-25.179 34.567-39.763.955-1.393.538-2.052-.768-2.854-11.358-6.98-22.681-14.016-34.011-21.04-8.035-4.982-16.064-9.976-24.1-14.956-.947-.586-1.782-1.47-2.765.21-3.104 5.308-7.562 9.397-12.265 13.26-1.072.882-1.686.809-2.673-.122-5.1-4.806-10.236-9.573-15.455-14.248-1.186-1.062-.952-1.575.06-2.475 12.16-10.83 17.966-24.663 18.12-40.692.272-28.44.083-56.885.132-85.328.002-1.46-.478-1.81-1.871-1.809-38.986.034-77.972.036-116.958-.003-1.587-.002-2.094.406-2.09 2.048.052 28.036-.031 56.071.084 84.104.054 12.879 3.668 24.683 11.76 34.903.65.82.642 1.28-.143 1.994a1709.555 1709.555 0 0 0-16.52 15.2c-.958.892-1.536.983-2.425-.074-2.497-2.974-4.821-6.057-6.904-9.344-2.356-3.719-3.544-7.933-5.345-11.884z"/><path fill="#f40e48" d="M81.875 335.907c-10.175 3.14-20.344 6.3-30.525 9.417-12.064 3.694-24.137 7.357-36.21 11.02-.837.254-1.71.398-2.566.593-1.693-2.636-2.047-5.698-2.697-8.653-1.794-8.17-2.558-16.456-2.975-24.808-.21-4.214-.231-8.417-.234-12.622-.026-51.214-.15-102.427.078-153.639.056-12.542 1.364-25.067 5.641-37.051l69.326 21.065c-.382 4.594-1.067 9.185-1.093 13.78-.13 22.45-.087 44.902-.105 67.353-.002 2.64-.003 2.645-2.641 2.646-6.667.002-13.334.046-20-.035-1.632-.02-2.242.354-2.228 2.124.083 9.728.073 19.457.008 29.186-.011 1.7.544 2.232 2.225 2.214 6.803-.075 13.608.033 20.409-.075 1.812-.029 2.272.485 2.269 2.281-.046 20.683-.053 41.366.054 62.048.024 4.4.634 8.79 1.264 13.156z"/><path fill="#eaeaea" d="M82.571 190.15c0-9.39-.113-18.784.037-28.173.117-7.306.575-14.6 1.962-21.81 1.179-6.126 3.568-11.772 6.565-17.182 4.096-7.394 9.036-14.169 15.441-19.743 4.613-4.016 9.785-7.194 15.22-10.053 5.023-2.642 10.334-4.42 15.742-5.657 6.97-1.593 14.065-2.538 21.305-2.701 9.281-.21 18.376.823 27.297 3.027 10.512 2.597 19.952 7.467 28.404 14.4 6.275 5.146 11.357 11.245 15.802 17.886 3.385 5.057 5.935 10.593 8.266 16.266 2.376 5.778 2.6 11.726 2.756 17.726.177 6.83.04 13.668.04 20.503.002 9.973.002 19.945.002 29.917v74.646c0 8.408-.003 16.816.002 25.224.001 2.758.198 5.502.147 8.278-.127 6.804-1.769 13.27-3.248 19.8-1.124 4.966-2.95 9.726-4.716 14.466-1.269 3.401-3.775 6.244-6.404 8.814-1.544 1.51-2.824 3.327-4.833 4.336-1.227.617-2.214.592-3.317-.416-3.25-2.973-6.615-5.82-9.909-8.746-2.498-2.219-2.517-3.471-.198-5.878 5.146-5.34 8.995-11.466 11.647-18.417 2.073-5.431 2.968-11.055 3.735-16.761.502-3.74.326-7.462.331-11.189.039-25.317.033-50.634-.006-75.951-.003-1.693.353-3.115 1.724-4.13 2.28-1.69 2.612-4.174 2.772-6.7.107-1.695.255-3.441-.024-5.095-.768-4.55-.024-9.065.056-13.592.046-2.516-.134-5.011-.412-7.507-.28-2.52.295-5.002.42-7.505.178-3.61-.36-7.18-.428-10.774-.067-3.531.516-7.027.452-10.57-.093-5.245-2.103-9.317-6.172-12.667-4.083-3.36-8.137-6.743-12.572-9.619-2.345-1.52-5.061-2.202-7.8-2.724-.848-.162-1.915-.158-2.308-1.049-.468-1.058.595-1.588 1.21-2.117 1.982-1.704 1.725-4.105 1.81-6.242.203-5.028.115-10.07.052-15.105-.062-4.885-2.17-6.567-7.014-7.014-3.308-.306-6.605-.013-9.873-.067-2.89-.05-5.901-.072-8.836.002-3.394.087-6.854.03-10.27-.02-2.92-.043-5.9-.323-8.838.093-.403.056-.834.167-1.214.082-3.268-.735-6.6-.138-9.864-.166a473.948 473.948 0 0 0-8.837.002c-3.406.034-6.843.133-10.275-.023-4.643-.211-8.193 1.121-8.216 6.866-.024 6.243-.426 12.5.333 18.738.175 1.437 1.02 2.303 1.907 3.247.485.518 1.453.915 1.166 1.75-.295.853-1.338.907-2.103.99-2.605.284-5.04 1.066-7.357 2.245-4.573 2.33-8.253 5.893-12.27 8.985-2.195 1.69-4.284 3.52-5.66 6.039-2.43 4.447-1.905 9.239-1.615 13.958.156 2.513.26 4.973-.016 7.487-.363 3.313-.35 6.67-.017 9.98.26 2.583.266 5.1-.001 7.684-.308 2.965-.336 5.974.055 8.951.312 2.37.3 4.72-.001 7.094-.396 3.11-.301 6.247-.064 9.36.165 2.176 1.258 3.956 3 5.342 1.363 1.085 2.166 2.391 1.432 4.27-.231.594-.067 1.346-.068 2.026-.002 25.793-.1 51.588.042 77.38.067 12.462 2.73 24.303 9.649 34.958 2.305 3.55 2.011 3.307-.656 5.808-3.29 3.082-6.39 6.381-9.882 9.256-2.123 1.749-3.02 1.78-4.724-.28-5.71-6.902-9.093-14.756-10.017-23.735-.35-3.403-.227-6.779-.334-10.166-.59-18.833-.383-37.671-.417-56.508-.009-3.965-1.967-5.88-6.103-5.923-4.9-.05-9.8-.007-14.699-.015-2.551-.003-3.678-1.117-3.685-3.733-.021-6.873-.022-13.747-.002-20.621.01-3.161.7-3.82 3.811-3.821 4.016-.001 8.03.043 12.044-.024a19.58 19.58 0 0 0 4.223-.511c3.24-.778 4.408-2.51 4.412-6.351.012-10.276.004-20.553.004-30.83z"/><path fill="#eaeaea" d="M81.713 141.229l-69.325-21.065c-.243-1.639.405-3.17.915-4.6 2.027-5.681 4.139-11.341 6.497-16.893 2.413-5.682 5.138-11.222 8.252-16.581 3.627-6.242 7.383-12.388 11.669-18.197 6.63-8.992 14.003-17.285 22.505-24.6 8.113-6.983 16.883-12.926 26.422-17.728 6.036-3.039 12.3-5.548 18.747-7.615 1.55-.497 2.034-.031 2.498 1.24 2.374 6.512 4.782 13.012 7.18 19.514 3.009 8.16 5.965 16.342 9.078 24.463.626 1.634.301 2.38-1.13 3.206-2.766 1.596-5.385 3.443-8.142 5.056-1.248.73-1.482 1.316-.774 2.674 3.022 5.78 5.882 11.646 8.851 17.455.506.992.474 1.42-.658 1.928-22.512 10.096-36.216 27.516-42.39 51.163-.053.197-.13.387-.195.58zM311.682 118.653c.184 1.29-.852 1.147-1.459 1.335-7.076 2.193-14.167 4.343-21.25 6.511-14.951 4.576-29.905 9.134-44.837 13.766-1.367.424-1.787.195-2.247-1.164-6.887-20.398-19.162-36.432-38.292-46.816-1.337-.726-1.69-1.215-.85-2.668 3.849-6.65 7.537-13.39 11.36-20.054.65-1.133.59-1.646-.578-2.318-3.064-1.763-6.008-3.731-9.069-5.5-1.152-.666-1.207-1.288-.753-2.441a6249.247 6249.247 0 0 0 15.208-38.94c.446-1.149.885-1.175 1.907-.764 25.793 10.352 47.154 26.56 64.084 48.583 11.232 14.61 20.126 30.512 26.014 48.03.282.836.528 1.685.762 2.44z"/><path fill="#eaeaea" d="M154.893 7.25c20.225.174 41.601 3.346 62.227 11.015 1.716.639 1.211 1.278.803 2.317-5.047 12.843-10.049 25.704-15.154 38.525-.646 1.624-.532 2.49 1.071 3.372 2.916 1.605 5.672 3.5 8.566 5.147 1.116.637 1.146 1.126.543 2.179-3.748 6.551-7.467 13.12-11.082 19.746-.71 1.303-1.305 1.092-2.379.63-23.316-10.015-46.992-10.177-70.9-2.397-1.772.578-2.5.481-3.324-1.286a348.781 348.781 0 0 0-7.902-15.886c-.876-1.653-.414-2.284.988-3.092 2.768-1.594 5.42-3.388 8.16-5.034 1.02-.613 1.365-1.179.897-2.433-5.533-14.84-10.996-29.708-16.494-44.562-.892-2.409-.932-2.412 1.722-3.09 9.185-2.353 18.454-4.115 27.957-4.688 4.21-.253 8.409-.377 14.3-.463z"/><path fill="#603dbf" d="M316.897 320.335c-.525 12.724-2.685 24.859-6.313 36.743-2.952 9.664-6.854 18.899-12.133 27.54-.894 1.465-1.58 1.575-3.02.677a15479.825 15479.825 0 0 0-58.398-36.238c-1.238-.765-1.497-1.424-.93-2.758 4.128-9.7 6.598-19.831 7.631-30.313.134-1.351.195-2.72.136-4.076-.061-1.403.505-1.745 1.822-1.594 4.386.504 8.782.915 13.173 1.375 8.781.92 17.56 1.858 26.342 2.77 9.66 1.004 19.324 1.966 28.98 2.99 2.734.29 2.728.36 2.71 2.884z"/><path fill="#020202" d="M153.844 111.084c.816-.001 1.63-.007 2.447.001.468.005 1.002-.075 1.025.646.02.638-.378.876-.912.786-1.83-.308-1.736.864-1.698 2.083a65.26 65.26 0 0 1-.005 4.078c-.017.595.362 1.469-.774 1.518-1.162.051-.84-.823-.851-1.432-.029-1.563-.068-3.13.01-4.69.053-1.095-.213-1.687-1.438-1.556-.524.056-1.184.092-1.19-.715-.008-1.023.818-.666 1.348-.707.676-.052 1.359-.012 2.038-.012zm-6.279-.102c.3.043.785.058 1.235.188.437.127.65.448.435.938-.143.326-.263.582-.726.476-.522-.119-1.07-.2-1.604-.182-.484.017-.938.255-1.058.795-.114.514.078.948.552 1.199.539.284 1.098.528 1.647.793 1.126.545 1.913 1.352 1.759 2.694-.163 1.415-1.132 2.114-2.447 2.349-.59.104-1.23.164-1.805.044-.587-.122-1.606.03-1.518-.942.103-1.16 1.002-.473 1.586-.448.935.042 2.06.352 2.352-.93.263-1.154-.784-1.415-1.593-1.75-1.4-.578-2.658-1.333-2.27-3.118.369-1.705 1.739-2.098 3.455-2.106zm16.938 8.439c.129.7-.215.737-.565.78-.74.087-1.148-.262-1.302-.965-.21-.972-.47-1.724-1.806-1.643-1.09.065-1.82.187-1.98 1.43-.107.82-.564 1.478-1.509 1.119-.934-.356-.224-1.046-.084-1.515a154.759 154.759 0 0 1 2.108-6.577c.378-1.096 2.119-1.468 2.484-.52 1.023 2.65 1.827 5.384 2.654 7.89zm10.216-3.891v-.61c0-4.165 0-4.164 4.163-3.837.517.04 1.18-.122 1.132.74-.036.652-.538.678-1.036.671-.34-.004-.679.011-1.018-.002-.863-.035-1.57-.056-1.557 1.216.012 1.37.894 1 1.644 1.122.622.1 1.745-.55 1.724.71-.017 1.046-1.036.618-1.619.621-1.035.007-1.806-.028-1.76 1.45.043 1.412.85 1.277 1.744 1.257.27-.005.544-.018.813.003.499.036 1.217-.215 1.247.616.036 1.024-.814.676-1.343.702-.948.048-1.903-.04-2.847.029-.945.068-1.368-.214-1.304-1.229.073-1.15.017-2.306.017-3.46zm-2.552 4.536c-1.99.637-4.737.109-5.875-1.233-1.265-1.489-1.348-4.289-.174-5.903 1.177-1.62 4.148-2.492 5.9-1.735.387.167.753.353.59.875-.141.447-.431.635-.923.513-.8-.199-1.608-.244-2.415-.023-1.689.462-2.517 1.874-2.189 3.808.297 1.747 1.401 2.544 3.13 2.563.572.006 1.155-.021 1.165-.777.006-.57.295-1.297-.438-1.621-.447-.199-1.246.036-1.066-.816.186-.876.998-.515 1.535-.51.593.01 1.472-.393 1.625.668.077.53.014 1.081.014 1.81-.24.678.635 1.896-.88 2.38zm-10.277-17.194c-12.25 0-24.499.042-36.748-.043-1.985-.013-2.716.394-2.664 2.56.155 6.462.04 12.93.062 19.395.012 3.415-.359 3.064 3.058 3.071 9.799.02 19.599.013 29.399.011 1.122 0 2.225-.116 2.222 1.57a7421.796 7421.796 0 0 0-.006 30.217c.001 1.128-.467 1.601-1.59 1.578-1.769-.036-3.54.043-5.308-.018-1.207-.042-1.711.368-1.692 1.635a367.9 367.9 0 0 1 0 11.23c-.02 1.307.568 1.596 1.73 1.591 7.622-.03 15.244-.03 22.865 0 1.159.004 1.755-.28 1.735-1.59a363.149 363.149 0 0 1 0-11.229c.02-1.268-.486-1.684-1.692-1.636-1.562.062-3.135-.078-4.692.034-1.685.12-2.246-.496-2.234-2.202.063-9.596.07-19.193-.015-28.788-.016-1.894.582-2.442 2.454-2.428 10.07.077 20.143-.002 30.214.06 1.613.01 2.097-.47 2.08-2.08-.079-6.873-.105-13.749.014-20.62.033-1.95-.635-2.365-2.443-2.354-12.25.07-24.5.036-36.75.036z"/><path fill="#eaeaea" d="M316.852 145.997c0 1.154-.133 2.328.03 3.46.308 2.163-1.01 2.734-2.673 2.785-9.795.298-19.453 1.944-29.18 2.904-13.045 1.29-26.073 2.755-39.1 4.225-1.601.18-2.093-.128-2.09-1.8.009-4.76-.332-9.51-1.086-14.215-.199-1.243.12-1.758 1.376-2.14 22.23-6.759 44.45-13.551 66.644-20.425 1.597-.494 1.712.344 1.989 1.326a116.663 116.663 0 0 1 4.09 23.88z"/><path fill="#41bca9" d="M262.021 181.305c-5.44 0-10.878-.044-16.315.028-1.443.02-1.865-.455-1.848-1.87a886.56 886.56 0 0 0 .006-17.336c-.01-1.186.328-1.641 1.575-1.762 7.422-.719 14.837-1.516 22.251-2.318 3.3-.358 6.595-.785 9.892-1.186 2.565-.313 2.69-.213 2.691 2.302.001 6.732-.041 13.463.03 20.193.018 1.517-.438 2.002-1.966 1.98-5.438-.079-10.877-.03-16.316-.031z"/><path fill="#e24493" d="M294.417 181.266c-3.673 0-7.347-.056-11.019.028-1.543.035-1.984-.546-1.971-2.028.057-7.007.058-14.015-.003-21.022-.013-1.402.434-1.786 1.829-1.93 10.657-1.095 21.305-2.288 31.952-3.487 1.285-.144 1.744.333 1.716 1.56-.037 1.7-.013 3.401-.006 5.102.003.723-.034 1.434-1.013 1.406-2.303-.067-4.436 1.213-6.79.796-1.492-.263-1.999.426-1.974 1.955.085 5.237-.017 10.478.072 15.715.027 1.544-.46 1.989-1.976 1.946-3.603-.1-7.21-.032-10.817-.032z"/><path fill="#b13eb5" d="M161.832 200.457c-6.872 0-13.746-.041-20.618.03-1.523.016-2.005-.447-1.97-1.976.094-4.012.084-8.03.005-12.044-.028-1.436.452-1.863 1.873-1.859 13.745.044 27.49.048 41.236-.004 1.527-.005 2.005.449 1.97 1.975-.095 4.013-.085 8.03-.004 12.044.03 1.438-.455 1.871-1.874 1.86-6.871-.06-13.744-.028-20.618-.026z"/><path fill="#ff9327" d="M281.465 231.339c-.002-3.742.045-7.485-.026-11.226-.025-1.418.29-2.083 1.903-2.068 7.415.07 14.831.052 22.245.004 1.26-.009 1.64.425 1.633 1.652-.04 7.756-.044 15.512.005 23.268.007 1.338-.424 1.738-1.762 1.727-7.346-.06-14.694-.068-22.04 0-1.49.013-2.035-.355-1.991-1.928.108-3.807.036-7.62.033-11.43z"/><path fill="#41bca9" d="M243.886 269.102c0-4.077.036-8.155-.022-12.23-.016-1.23.374-1.661 1.632-1.65 5.91.052 11.823.052 17.733.003 1.523-.012 1.762.677 1.713 2.022-.3 8.145-.269 16.295-.01 24.44.04 1.283-.277 1.732-1.517 1.728-5.98-.022-11.959-.038-17.938.011-1.282.011-1.625-.485-1.61-1.685.05-4.213.019-8.426.019-12.639zM264.774 195.575c0 3.944-.032 7.888.02 11.831.015 1.21-.361 1.687-1.626 1.677a1220.5 1220.5 0 0 0-17.745-.004c-1.125.007-1.56-.344-1.555-1.513.035-7.955.042-15.911-.005-23.866-.007-1.31.537-1.592 1.706-1.584 5.847.04 11.695.056 17.541-.006 1.424-.016 1.7.596 1.683 1.839-.052 3.874-.019 7.751-.019 11.626zM265.033 297.844c.002 3.874-.036 7.748.023 11.622.02 1.327-.331 1.786-1.758 1.615a653.376 653.376 0 0 0-17.578-1.893c-1.345-.125-1.88-.443-1.865-1.894.067-7.069.062-14.138.002-21.206-.012-1.42.416-1.87 1.85-1.852a729.6 729.6 0 0 0 17.33.004c1.494-.017 2.052.454 2.02 1.981-.078 3.873-.025 7.748-.024 11.623z"/><path fill="#ff9327" d="M294.335 265.82c-3.74-.001-7.483-.038-11.223.02-1.203.019-1.684-.311-1.67-1.6.059-5.646.051-11.292.006-16.938-.01-1.184.438-1.503 1.557-1.499 7.55.033 15.1.03 22.65-.006 1.118-.006 1.572.322 1.564 1.5a994.13 994.13 0 0 0 .004 16.938c.012 1.271-.443 1.63-1.666 1.61-3.74-.063-7.48-.023-11.222-.024z"/><path fill="#e24493" d="M294.28 266.72c3.67 0 7.341.048 11.01-.025 1.35-.027 1.944.279 1.92 1.788-.08 5.369-.058 10.74-.012 16.109.01 1.216-.366 1.673-1.629 1.664-7.476-.045-14.951-.041-22.428-.008-1.162.005-1.725-.257-1.711-1.576.057-5.437.052-10.875 0-16.313-.01-1.234.382-1.67 1.636-1.65 3.736.065 7.475.024 11.214.024z"/><path fill="#41bca9" d="M280.568 286.684c0 4.96-.052 9.92.032 14.877.025 1.54-.457 2.08-1.988 1.9a421.87 421.87 0 0 0-11.515-1.2c-1.378-.123-1.18-1.033-1.183-1.896-.006-5.367-.005-10.733-.005-16.1 0-4.348.043-8.696-.023-13.043-.018-1.312.374-1.793 1.729-1.766 3.667.075 7.337.09 11.002-.007 1.51-.039 2.01.409 1.984 1.951-.086 5.094-.033 10.19-.033 15.284z"/><path fill="#ff9327" d="M294.507 198.143c3.6-.002 7.203.053 10.801-.03 1.35-.032 1.949.24 1.924 1.758-.083 5.094-.064 10.19-.01 15.285.014 1.285-.336 1.8-1.714 1.791-7.47-.056-14.945-.05-22.417-.01-1.236.007-1.657-.403-1.644-1.644a695.5 695.5 0 0 0-.007-15.49c-.018-1.432.634-1.69 1.859-1.674 3.736.047 7.472.017 11.208.014z"/><path fill="#41bca9" d="M248.222 225.988c5.097-.042 10.193-.066 15.29-.134 1.172-.015 1.53.537 1.527 1.621a8090.81 8090.81 0 0 0-.003 25.295c.001.951-.255 1.605-1.356 1.578-5.159-.121-10.324.266-15.478-.206.21-9.384.166-18.769.02-28.154z"/><path fill="#e24493" d="M307.175 296.782c-.001 2.65-.051 5.302.02 7.95.034 1.29-.49 1.69-1.694 1.56-5.968-.637-11.938-1.249-17.906-1.88-1.55-.165-3.09-.482-4.642-.524-1.34-.037-1.528-.687-1.518-1.804.04-4.417.065-8.835-.009-13.25-.023-1.381.494-1.716 1.782-1.71 7.405.046 14.81.045 22.217-.007 1.302-.009 1.823.344 1.778 1.716-.088 2.646-.026 5.299-.028 7.949z"/><path fill="#41bca9" d="M265.911 254.013c0-4.143.044-8.287-.026-12.428-.023-1.357.298-1.943 1.792-1.904 3.665.094 7.334.075 11 .008 1.4-.026 1.918.45 1.91 1.876-.043 8.354-.042 16.707.002 25.06.008 1.315-.4 1.796-1.748 1.77-3.733-.071-7.47-.07-11.204 0-1.33.025-1.772-.417-1.751-1.75.067-4.21.025-8.422.025-12.632z"/><path fill="#59defd" d="M161.797 183.398c-6.795 0-13.591-.054-20.385.038-1.732.024-2.2-.537-2.152-2.205.11-3.87.077-7.748.01-11.621-.022-1.307.375-1.764 1.728-1.794 5.724-.127 5.723-.169 5.722 5.534 0 3.916 0 3.916 3.84 3.916 8.087 0 16.175-.041 24.262.036 1.635.016 2.158-.495 2.058-2.094-.12-1.964 0-3.94-.04-5.91-.022-1.03.365-1.542 1.427-1.45.133.013.271.003.407 0 5.602-.142 5.602-.142 5.602 5.407 0 2.515-.124 5.037.04 7.542.13 1.992-.363 2.71-2.54 2.657-6.656-.159-13.318-.057-19.979-.056z"/><path fill="#e24493" d="M294.285 182.166c3.672 0 7.345.051 11.016-.026 1.369-.029 1.942.307 1.906 1.8-.091 3.875-.065 7.754-.01 11.63.017 1.219-.364 1.665-1.629 1.657a1981.83 1981.83 0 0 0-22.442-.008c-1.177.005-1.72-.273-1.698-1.584.067-3.942.06-7.888.004-11.832-.018-1.228.37-1.676 1.632-1.654 3.74.066 7.481.024 11.221.024z"/><path fill="#41bca9" d="M265.912 209.453c0-3.196.049-6.393-.025-9.587-.03-1.285.303-1.831 1.694-1.803 3.738.077 7.477.06 11.217.008 1.322-.019 1.796.48 1.788 1.797-.04 6.459-.035 12.918-.005 19.377.005 1.217-.457 1.704-1.684 1.69-3.806-.04-7.615-.057-11.42.01-1.308.023-1.605-.526-1.584-1.703.055-3.262.019-6.526.019-9.79zM254.443 224.98c-2.925 0-5.852-.047-8.777.023-1.256.029-1.84-.25-1.81-1.673.085-3.945.06-7.893.01-11.839-.013-1.13.344-1.56 1.513-1.553 5.988.043 11.975.037 17.962.005 1.206-.006 1.72.42 1.707 1.666-.043 3.878-.048 7.757.005 11.635.018 1.35-.54 1.78-1.833 1.752-2.925-.06-5.85-.02-8.777-.017z"/><path fill="#b13eb5" d="M216.451 200.455c-2.714 0-5.43-.044-8.143.02-1.228.028-1.676-.394-1.66-1.642.054-4.206.058-8.416-.002-12.622-.02-1.302.53-1.603 1.704-1.594a944.8 944.8 0 0 0 16.49-.005c1.461-.015 1.866.588 1.847 1.949a397.51 397.51 0 0 0 .002 12.012c.022 1.407-.472 1.942-1.891 1.904-2.78-.074-5.565-.022-8.347-.022zM106.86 184.635c2.713 0 5.43.051 8.142-.023 1.335-.036 1.963.273 1.931 1.788-.09 4.138-.064 8.28-.01 12.418.015 1.23-.4 1.668-1.644 1.657-5.565-.047-11.128-.038-16.693-.007-1.21.006-1.706-.45-1.695-1.679.037-4.139.047-8.28-.006-12.419-.017-1.356.556-1.777 1.831-1.752 2.714.054 5.43.017 8.144.017z"/><path fill="#59defd" d="M216.698 183.347c-2.785-.002-5.57-.05-8.353.02-1.252.03-1.656-.43-1.639-1.657.055-4.075.059-8.152-.003-12.226-.018-1.274.47-1.628 1.677-1.618 5.5.045 11.003.042 16.504 0 1.324-.009 1.808.515 1.795 1.815-.043 4.007-.065 8.016.011 12.022.027 1.43-.604 1.696-1.842 1.666-2.716-.065-5.433-.02-8.15-.022zM106.881 183.347c-2.785.001-5.571-.048-8.354.024-1.262.032-1.655-.44-1.638-1.661.051-4.007.046-8.016.004-12.023-.014-1.295.46-1.83 1.79-1.82 5.5.04 11.003.043 16.503 0 1.2-.01 1.702.327 1.682 1.61a436.164 436.164 0 0 0-.002 12.226c.015 1.22-.367 1.697-1.632 1.664-2.782-.072-5.569-.022-8.353-.02z"/><path fill="#ff777b" d="M106.939 217.196c-2.72 0-5.442-.048-8.16.021-1.262.032-1.853-.277-1.827-1.688.075-4.08.077-8.161 0-12.24-.026-1.414.557-1.693 1.819-1.68 5.439.052 10.88.052 16.319.004 1.249-.011 1.848.246 1.82 1.674-.083 4.08-.085 8.162.002 12.24.03 1.435-.568 1.694-1.814 1.663-2.719-.07-5.44-.021-8.159-.021zM216.623 201.633c2.72-.001 5.441.045 8.159-.023 1.242-.03 1.863.226 1.837 1.66-.078 4.08-.073 8.161 0 12.24.024 1.388-.524 1.723-1.808 1.709a828.446 828.446 0 0 0-16.524-.026c-1.26.01-1.638-.414-1.62-1.646.06-4.079.072-8.161-.003-12.24-.026-1.392.515-1.733 1.8-1.697 2.717.079 5.438.024 8.159.023z"/><path fill="#b13eb5" d="M127.899 200.455c-2.58 0-5.159-.045-7.737.02-1.209.028-1.69-.348-1.671-1.62.06-4.139.055-8.28.003-12.419-.016-1.3.435-1.828 1.766-1.817 5.225.042 10.451.035 15.675.003 1.2-.009 1.724.421 1.711 1.66-.037 4.14-.044 8.281.005 12.42.015 1.331-.513 1.8-1.814 1.77-2.644-.06-5.292-.017-7.938-.017zM195.655 200.455c-2.646 0-5.294-.043-7.939.018-1.317.03-1.812-.473-1.796-1.788.048-4.071.045-8.144.001-12.216-.013-1.257.358-1.865 1.731-1.852 5.226.047 10.452.044 15.676.002 1.349-.012 1.763.552 1.749 1.835-.05 4.14-.06 8.28.004 12.419.02 1.294-.502 1.628-1.69 1.601-2.577-.06-5.157-.019-7.736-.019z"/><path fill="#ecf863" d="M216.56 166.324c-2.783 0-5.567-.036-8.348.018-1.114.021-1.574-.315-1.558-1.5.054-4.14.046-8.28.004-12.42-.01-1.052.346-1.433 1.408-1.426 5.7.033 11.402.035 17.102-.009 1.056-.008 1.45.323 1.44 1.386a701.932 701.932 0 0 0-.001 12.625c.011 1.123-.507 1.357-1.496 1.342-2.85-.042-5.701-.015-8.552-.016zM106.862 151.01c2.782 0 5.566.063 8.345-.027 1.358-.044 1.739.44 1.715 1.753a348.69 348.69 0 0 0-.003 11.808c.019 1.25-.253 1.826-1.668 1.809a713.844 713.844 0 0 0-16.694-.002c-1.29.014-1.615-.47-1.6-1.663.052-4.003.072-8.01-.01-12.012-.028-1.385.477-1.731 1.771-1.691 2.713.082 5.43.025 8.144.025z"/><path fill="#59defd" d="M195.672 167.885c2.58 0 5.161.05 7.739-.022 1.252-.035 1.652.42 1.635 1.653-.057 4.073-.06 8.147-.001 12.22.019 1.257-.433 1.642-1.658 1.63a801.66 801.66 0 0 0-15.477 0c-1.245.013-1.663-.42-1.647-1.652.054-4.073.057-8.147 0-12.22-.019-1.26.452-1.66 1.67-1.628 2.58.065 5.16.02 7.739.02zM127.89 167.885c2.581 0 5.16.045 7.739-.019 1.208-.03 1.698.348 1.68 1.62a451.076 451.076 0 0 0-.002 12.22c.016 1.222-.383 1.673-1.637 1.661a801.68 801.68 0 0 0-15.478-.002c-1.214.012-1.685-.354-1.667-1.62.06-4.074.056-8.148 0-12.221-.016-1.222.364-1.698 1.627-1.661 2.577.073 5.158.021 7.739.022z"/><path fill="#ff777b" d="M127.976 217.168c-2.582 0-5.164-.044-7.745.02-1.17.028-1.709-.242-1.685-1.568.078-4.143.078-8.288.008-12.431-.023-1.32.516-1.585 1.689-1.575 5.161.045 10.326.044 15.488 0 1.172-.009 1.727.279 1.71 1.582-.062 4.144-.065 8.29 0 12.433.022 1.332-.569 1.583-1.72 1.557-2.58-.058-5.163-.018-7.745-.018zM195.61 217.168c-2.648 0-5.3-.043-7.947.019-1.162.027-1.54-.406-1.526-1.543a502.38 502.38 0 0 0-.004-12.431c-.02-1.288.5-1.61 1.691-1.599 5.163.046 10.327.066 15.488-.01 1.395-.02 1.723.485 1.703 1.774-.064 4.007-.086 8.018.014 12.024.038 1.493-.51 1.842-1.88 1.792-2.51-.09-5.026-.025-7.538-.026z"/><path fill="#ecf863" d="M128.063 134.32c2.58 0 5.162.031 7.742-.015 1.057-.02 1.619.199 1.603 1.441-.062 4.21-.048 8.423-.01 12.633.01 1.073-.408 1.41-1.443 1.402-5.297-.032-10.594-.04-15.892.005-1.193.01-1.493-.474-1.482-1.577.044-4.144.053-8.288-.012-12.43-.02-1.206.44-1.502 1.548-1.478 2.648.058 5.297.02 7.946.02zM195.742 134.32c2.582 0 5.164.046 7.743-.021 1.15-.03 1.53.351 1.513 1.512a483.814 483.814 0 0 0-.01 12.43c.014 1.138-.358 1.554-1.514 1.544-5.298-.042-10.596-.038-15.892-.003-1.067.007-1.419-.396-1.41-1.436.036-4.21.038-8.422-.003-12.633-.012-1.068.376-1.427 1.425-1.408 2.715.05 5.432.017 8.148.016z"/><path fill="#e24493" d="M281.453 308.819c.001-4.209-.017-4.064 4.24-3.533 6.727.839 13.48 1.475 20.224 2.17 3.171.326 6.346.618 9.524.867 1.149.09 1.512.657 1.484 1.724-.043 1.564-.093 3.136.01 4.695.102 1.512-.533 1.879-1.923 1.723-5.732-.642-11.47-1.222-17.205-1.831-4.453-.474-8.9-1.02-13.36-1.418-2.989-.267-2.997-.177-2.994-3.172v-1.225z"/><path fill="#ecf863" d="M195.51 166.325c-2.647 0-5.294-.016-7.94.01-.92.007-1.498-.061-1.47-1.294.092-4.138.087-8.28.035-12.418-.016-1.235.378-1.65 1.625-1.636 5.224.055 10.45.059 15.673-.002 1.29-.015 1.6.47 1.581 1.667-.058 4.003-.078 8.008.009 12.01.03 1.403-.506 1.724-1.78 1.686-2.575-.076-5.156-.023-7.734-.023zM128.047 166.325c-2.647 0-5.294-.037-7.94.018-1.108.022-1.568-.297-1.55-1.491.058-4.14.046-8.279.005-12.419-.01-1.034.308-1.446 1.386-1.438 5.36.037 10.72.027 16.082.009.879-.004 1.397.192 1.393 1.227-.017 4.342-.012 8.685.049 13.027.018 1.221-.755 1.063-1.487 1.064-2.645.009-5.292.004-7.938.003z"/><path fill="#020202" d="M160.727 209.084c-1.162.278-.886 1.255-1.42 2.01-.674-1.375-.448-2.69-.235-3.913.102-.587.882-.377 1.515-.181-.054.746-.906.535-1.182 1.2.666.312 1.192 1.19 1.738-.313.327-.901 3.16-1.38 3.46-.597 1.043 2.715 1.104-.183 1.803-.24.302 1.266.271 2.525-.04 4.012-.629-.408-.407-.942-.579-1.296-.3-.62-.817-.637-.938.002-.157.833-.66.658-1.157.94-2.144 1.215-2.43-.286-2.965-1.624zm10.522 8.152c-.45-.906-.092-1.906-.324-2.837-.04-.11-.092-.218-.11-.331-.007-.044.06-.102.093-.152V203.84c-.028-.115-.071-.23-.08-.346-.003-.046.072-.098.11-.146l.197-1.704c-.116-.856-.764-.796-1.375-.796-4.785 0-9.57.004-14.354-.007-.736-.002-1.352.106-1.48.984.066 5.092.2 10.183-.083 15.274.236 1.113 1.117.986 1.92.987 4.453.004 8.906-.014 13.36.017.866.006 1.597-.138 2.126-.868z"/><path fill="#41bca9" d="M265.909 230.288c-.001-2.308.038-4.616-.019-6.923-.025-1.09.266-1.605 1.473-1.588 3.867.054 7.736.049 11.604.004 1.284-.015 1.62.58 1.613 1.742a864.042 864.042 0 0 0 0 13.64c.01 1.211-.42 1.703-1.662 1.687a519.418 519.418 0 0 0-11.605-.002c-1.06.01-1.438-.387-1.417-1.434.05-2.375.016-4.75.013-7.126z"/><path fill="#59defd" d="M147.318 149.848c-2.11 0-4.22-.042-6.326.016-1.165.032-1.739-.266-1.72-1.585.061-4.149.045-8.3.002-12.45-.013-1.157.439-1.54 1.564-1.53 4.286.04 8.572.051 12.856-.004 1.276-.017 1.637.49 1.622 1.69a478.37 478.37 0 0 0 .003 12.245c.019 1.263-.459 1.674-1.677 1.636-2.105-.067-4.217-.018-6.324-.018zM176.308 149.847c-2.108 0-4.218-.038-6.325.016-1.153.03-1.754-.253-1.733-1.579.06-4.148.047-8.299.006-12.449-.01-1.155.439-1.545 1.565-1.534 4.285.038 8.571.034 12.858 0 1.072-.01 1.632.26 1.617 1.474a678.91 678.91 0 0 0-.008 12.654c.008 1.06-.408 1.45-1.45 1.43-2.175-.044-4.354-.013-6.53-.012z"/><path fill="#ff777b" d="M153.927 201.826c.065 5.092.2 10.183-.084 15.274-4.35.022-8.7.018-13.048.087-1.135.018-1.553-.337-1.537-1.508.054-4.214.033-8.43.014-12.644-.004-.868.164-1.439 1.215-1.407 4.478.137 8.964-.214 13.44.198z"/><path fill="#41bca9" d="M280.308 189.89c0 1.968-.029 3.934.01 5.9.023 1.037-.388 1.455-1.434 1.447a618.134 618.134 0 0 0-11.596.004c-1.088.012-1.398-.444-1.39-1.46.034-4.069.033-8.138-.002-12.207-.01-1.024.32-1.464 1.4-1.452 3.864.04 7.73.034 11.595.003 1.054-.009 1.446.432 1.428 1.459-.037 2.101-.011 4.204-.011 6.307z"/><path fill="#ff777b" d="M170.909 213.916v-10.074c.04-.049.117-.1.114-.146-.01-.117-.054-.232-.085-.348l.197-1.703c3.81-.004 7.619.04 11.426-.037 1.323-.026 1.78.374 1.758 1.723a361.678 361.678 0 0 0-.002 12.244c.019 1.262-.412 1.632-1.644 1.617-3.806-.044-7.614.021-11.423.043-.45-.906-.092-1.905-.325-2.836.037-.05.113-.108.104-.15-.021-.114-.077-.223-.12-.333z"/><path fill="#59defd" d="M176.375 151.056c2.04 0 4.08.056 6.117-.021 1.277-.048 1.835.312 1.81 1.704a320.22 320.22 0 0 0 0 11.823c.025 1.383-.527 1.697-1.802 1.72-5.514.104-5.567.14-5.614-5.195-.012-1.475-.53-1.89-1.91-1.814-1.692.093-3.398-.035-5.093.042-1.269.058-1.677-.471-1.628-1.68.069-1.627.086-3.264-.004-4.89-.076-1.387.526-1.756 1.808-1.71 2.104.077 4.212.022 6.316.02zM147.38 151.056c2.04 0 4.08.055 6.115-.02 1.262-.046 1.904.285 1.824 1.692a43.914 43.914 0 0 0 0 4.89c.08 1.402-.554 1.758-1.82 1.697-1.558-.075-3.13.06-4.685-.042-1.522-.1-2.214.285-2.145 2.003.062 1.58.837 3.842-.413 4.631-1.628 1.028-3.957.284-5.982.323-.834.015-.977-.57-.976-1.244 0-4.213.02-8.425-.011-12.639-.01-1.164.644-1.31 1.571-1.3 2.175.025 4.349.008 6.522.009z"/><path fill="#ecf863" d="M225.842 149.767c-5.894 0-11.788-.015-17.682.013-.993.006-1.487-.232-1.476-1.353.044-4.542.018-9.084.018-14.15l19.344 15.094zM116.868 134.256c0 5.094-.01 9.69.008 14.286.004.84-.286 1.234-1.173 1.232-6.008-.018-12.017-.01-18.666-.01l19.83-15.508zM248.223 225.988c.146 9.385.19 18.77-.021 28.154-4.32.53-4.32.53-4.32-3.775v-21.782c0-2.736.002-2.74 2.721-2.702.54.007 1.08.068 1.62.105z"/><path fill="#41bca9" d="M280.567 308.616c0 3.994-.003 4.046-3.827 3.78-2.975-.206-5.939-.567-8.908-.851-1.319-.126-2.167-.603-1.944-2.163.113-.8.022-1.63.022-2.446.004-3.77.007-3.819 3.667-3.48 2.968.276 5.918.812 8.89.989 1.84.11 2.346.89 2.112 2.542-.076.532-.012 1.085-.012 1.63z"/><path fill="#f8f8f8" d="M151.986 371.422c0 1.291-.115 2.595.025 3.87.23 2.12-.48 3.909-1.771 5.46-2.145 2.575-2.789 5.622-3.19 8.821a22.556 22.556 0 0 1-1.137 4.712c-.795 2.239-2.21 2.779-4.528 2.024-4.954-1.612-9.916-3.196-14.868-4.808-3.149-1.024-3.705-2.548-2.34-5.575 1.153-2.555 3.15-4.79 2.932-7.9-.113-1.592-.674-2.709-2.134-3.39-4.236-1.974-8.471-3.95-12.68-5.979-1.217-.586-2.373-1.31-3.505-2.052-2.07-1.358-2.184-3.005-.344-4.624 3.204-2.822 6.404-5.647 9.404-8.693 1.986-2.016 3.347-2.153 5.742-.58 5.98 3.93 12.41 6.885 19.29 8.825 1.873.528 3.828.776 5.754 1.097 2.024.338 3.33 1.812 3.347 3.898.012 1.63.003 3.262.003 4.894zm2.455.158c0-2.789-.095-5.582.04-8.365.072-1.503-.458-1.984-1.882-2.16-11.297-1.384-21.63-5.231-30.631-12.32-1.019-.802-1.61-.778-2.546.1-5.157 4.842-10.343 9.652-15.6 14.384-1.296 1.166-1.364 1.714.128 2.8 6.33 4.608 13.218 8.077 20.627 10.532 1.3.43 1.533.899.851 2.145-1.764 3.219-3.264 6.586-5.11 9.754-1.074 1.844-.683 2.559 1.174 3.38 7.805 3.446 15.982 5.748 24.122 8.188 1.376.414 1.46-.417 1.66-1.312 1.124-5.044 2.299-10.076 3.355-15.133.286-1.372.774-2.12 2.276-1.807 1.36.284 1.578-.458 1.555-1.615-.056-2.855-.019-5.713-.019-8.57zM166.268 366.658c-.036-1.612.69-2.517 2.279-2.848 3.773-.788 7.578-1.423 11.358-2.151 4.072-.785 7.714-2.57 11.495-4.012 2.13-.812 3.708-.676 5.371.806 3.432 3.059 7.083 5.87 10.09 9.394.855 1.003.61 1.656-.218 2.4-.455.41-.91.762-1.495 1.016-7.741 3.357-15.763 5.717-24.127 6.88-3.748.52-7.49 1.152-11.284 1.212-2.76.044-3.455-.724-3.46-3.512-.002-1.428 0-2.857 0-4.286 0-1.633.029-3.266-.009-4.9zm-2.457 5.006c0 2.79.09 5.583-.034 8.367-.073 1.597.516 1.922 1.997 1.888 5.242-.124 10.454-.549 15.632-1.36 10.355-1.624 20.267-4.627 29.536-9.595.858-.46 2.06-.736.61-2.047-5.35-4.834-10.639-9.733-15.925-14.635-.654-.607-1.16-.672-1.96-.248-8.798 4.657-18.192 7.146-28.133 7.49-1.5.051-1.788.653-1.748 1.977.081 2.719.025 5.442.025 8.163z"/><path fill="#edecec" d="M173.044 117.684c-.238.679.637 1.898-.877 2.382-1.99.637-4.737.108-5.876-1.233-1.264-1.489-1.347-4.29-.172-5.903 1.176-1.62 4.148-2.492 5.898-1.735.388.167.755.353.59.875-.14.447-.43.635-.922.513-.8-.199-1.608-.243-2.414-.023-1.69.463-2.52 1.875-2.19 3.808.296 1.746 1.4 2.544 3.13 2.563.572.006 1.155-.02 1.165-.777.006-.57.295-1.297-.438-1.62-.446-.2-1.247.035-1.065-.817.185-.877.997-.515 1.534-.509.592.008 1.471-.394 1.625.666.077.53.012 1.082.012 1.81zM174.72 115.53v-.61c0-4.165 0-4.164 4.161-3.837.517.04 1.181-.122 1.133.74-.036.652-.538.678-1.036.671-.34-.003-.68.011-1.019-.002-.862-.035-1.568-.055-1.557 1.216.014 1.37.894 1 1.645 1.122.622.1 1.744-.55 1.724.71-.017 1.046-1.037.618-1.62.621-1.034.007-1.805-.028-1.76 1.45.044 1.412.851 1.277 1.745 1.257.271-.005.544-.017.813.003.5.037 1.218-.214 1.247.617.035 1.023-.815.675-1.343.701-.948.049-1.903-.04-2.848.029-.943.068-1.367-.215-1.303-1.228.073-1.15.018-2.307.017-3.46zM161.558 115.363c.119.36.408.828-.162.99-.433.122-.947.096-1.394-.006-.406-.093-.358-.522-.262-.843.24-.813.512-1.614.91-2.849.41 1.218.664 1.96.908 2.708zm2.945 4.057c-.827-2.506-1.631-5.24-2.654-7.891-.366-.948-2.106-.575-2.483.521a154.53 154.53 0 0 0-2.109 6.577c-.14.47-.85 1.16.084 1.515.945.36 1.402-.299 1.508-1.119.163-1.243.89-1.366 1.98-1.431 1.337-.08 1.597.672 1.808 1.644.153.703.562 1.052 1.3.964.352-.042.695-.08.566-.78zM147.565 110.982c.301.043.784.058 1.236.188.436.127.65.448.435.938-.143.326-.264.582-.727.477-.522-.12-1.07-.2-1.603-.183-.485.017-.94.256-1.059.795-.113.514.079.949.553 1.2.537.283 1.097.527 1.646.793 1.126.544 1.914 1.352 1.758 2.693-.162 1.416-1.131 2.115-2.446 2.349-.59.105-1.229.165-1.805.044-.587-.122-1.605.03-1.519-.942.104-1.16 1.004-.473 1.587-.448.935.042 2.06.352 2.353-.929.263-1.155-.785-1.416-1.594-1.75-1.4-.58-2.658-1.334-2.27-3.12.369-1.704 1.739-2.097 3.455-2.105zM153.843 111.084c.816 0 1.632-.007 2.447.001.468.005 1.002-.075 1.025.645.02.64-.378.877-.91.787-1.831-.308-1.738.864-1.7 2.083.043 1.358.038 2.72-.003 4.078-.019.595.36 1.469-.776 1.518-1.162.051-.839-.823-.85-1.432-.03-1.564-.068-3.13.008-4.69.054-1.095-.212-1.688-1.436-1.556-.525.057-1.185.092-1.19-.714-.008-1.024.818-.667 1.348-.708.675-.051 1.357-.012 2.037-.012z"/><path fill="#ec8689" d="M162.291 207.696c.832-.066.738.761.751 1.317.011.52-.014 1.246-.67 1.252-.688.005-.596-.735-.67-1.236.088-.51-.046-1.284.589-1.333zm-1.565 1.388c.535 1.338.821 2.839 2.965 1.624.498-.282 1.001-.107 1.158-.94.12-.64.638-.622.938-.002.171.353-.05.888.58 1.296.31-1.487.34-2.745.039-4.013-.7.059-.76 2.956-1.802.241-.302-.783-3.135-.304-3.461.597-.547 1.504-1.072.625-1.738.313.276-.665 1.128-.454 1.181-1.2-.632-.196-1.413-.405-1.515.181-.213 1.223-.438 2.538.237 3.913.533-.756.257-1.732 1.418-2.01z"/><path fill="#642723" d="M170.938 203.348c.03.116.075.23.084.349.004.045-.073.097-.113.145-.029-.116-.072-.23-.08-.347-.003-.046.07-.098.109-.147zM170.909 213.916c.043.11.098.219.12.334.009.042-.066.099-.105.15-.038-.11-.09-.218-.109-.332-.008-.044.06-.101.094-.152z"/><path fill="#eaeaea" d="M151.985 371.422c0 1.291-.113 2.595.026 3.87.231 2.12-.48 3.909-1.77 5.461-2.144 2.573-2.79 5.621-3.19 8.82-.2 1.595-.6 3.196-1.138 4.712-.794 2.239-2.209 2.779-4.529 2.024-4.953-1.612-9.914-3.197-14.867-4.808-3.148-1.024-3.705-2.549-2.34-5.576 1.153-2.554 3.151-4.79 2.931-7.9-.111-1.591-.672-2.707-2.134-3.389-4.235-1.974-8.47-3.95-12.68-5.978-1.215-.586-2.373-1.31-3.503-2.053-2.07-1.358-2.185-3.005-.345-4.624 3.205-2.822 6.405-5.647 9.405-8.693 1.985-2.017 3.346-2.153 5.74-.58 5.982 3.93 12.411 6.885 19.29 8.825 1.874.528 3.83.776 5.755 1.097 2.025.338 3.332 1.812 3.347 3.898.012 1.63.002 3.262.002 4.894zM166.277 371.557c0-1.634.03-3.267-.008-4.9-.038-1.612.69-2.516 2.278-2.848 3.773-.787 7.577-1.423 11.358-2.15 4.072-.785 7.714-2.57 11.495-4.012 2.13-.813 3.708-.677 5.372.806 3.432 3.058 7.083 5.87 10.088 9.394.856 1.003.611 1.656-.216 2.4-.456.41-.911.762-1.497 1.016-7.74 3.357-15.762 5.717-24.126 6.88-3.748.52-7.49 1.151-11.283 1.212-2.76.044-3.457-.725-3.461-3.512-.003-1.428 0-2.857 0-4.286z"/><path fill="#642723" d="M160.65 112.655c.41 1.219.663 1.96.908 2.708.119.36.408.828-.163.99-.433.122-.947.096-1.393-.006-.407-.093-.359-.522-.263-.843.24-.812.513-1.615.91-2.849z"/><path fill="#020202" d="M161.702 209.03c.088-.511-.046-1.285.59-1.334.83-.065.737.761.75 1.317.012.52-.014 1.246-.67 1.252-.688.005-.596-.735-.67-1.235z"/></svg>