<svg xmlns="http://www.w3.org/2000/svg" width="529" height="103" viewBox="0 0 529 103"><path fill="#fff" d="M27.999 30.202v8.425h36.294v22.555H27.999v8.944h37.073v25.406H0V5.574h64.942v24.628zM99.293 20.481c.26 3.11.908 5.833 2.463 11.147l12.055 40.313c.13.259.26.778.518 1.426.39 1.296.39 1.426 1.038 3.629.388-1.166.518-1.815.648-2.333.13-.259.259-.648.389-1.296.259-.648.388-1.167.518-1.556l12.055-40.183c1.426-4.796 2.204-8.296 2.463-11.147h28.776c-2.592 5.833-3.63 8.295-5.314 12.573l-21.777 55.608c-2.204 5.574-2.851 7.648-3.5 10.889h-28.387c-.648-3.241-1.296-5.315-3.5-10.889L75.96 33.054c-.777-1.815-2.593-5.963-5.444-12.573zM265.862 24.628c0 1.815-.65 3.5-2.075 5.056-2.333 2.203-5.054 2.203-7.777 2.203h-1.166V17.369h3.759c2.203 0 4.018.778 5.314 2.334 1.296 1.425 1.945 3.111 1.945 4.925zm11.796 0c0-5.314-1.945-9.722-5.575-13.48-3.758-3.76-8.166-5.574-13.48-5.574h-15.555v38.109h15.555c5.314 0 9.722-1.945 13.48-5.574 3.63-3.759 5.575-8.296 5.575-13.481zM239.16 5.574h-11.796v17.499L215.179 5.574h-11.796v38.239h11.796V26.314l12.185 17.499.129-.13h11.667zm-51.72 0v23.073c0 2.462-2.074 4.537-4.537 4.537s-4.537-2.075-4.537-4.537V5.574H166.57v23.073c0 4.537 1.684 8.425 4.796 11.536 3.24 3.241 6.999 4.796 11.536 4.796s8.425-1.555 11.536-4.796c3.241-3.111 4.797-6.999 4.797-11.536V5.574zm89.31 56.904V48.22H166.18v14.258zM288.94 99.551c.777-6.093 1.037-11.537 1.037-19.573V40.053c0-8.944-.26-14.388-1.037-19.572h25.795v5.443c0 .778-.13 2.723-.13 3.63 8.167-7.778 16.073-11.018 26.703-11.018 8.943 0 16.073 2.463 20.869 7.259 5.185 5.185 7.389 11.537 7.389 21.777v32.535c0 7.518.388 13.999 1.037 19.444H343.64c.777-6.222 1.037-11.667 1.037-19.573V53.405c0-5.185-.518-7.389-2.074-9.592-1.686-2.333-4.666-3.63-8.556-3.63-7.259 0-13.739 4.537-19.313 13.611v26.184c0 7.388.259 12.832 1.037 19.573zM394.327 17.758c0-6.481-.26-11.666-1.038-17.758h26.444c-.65 5.315-1.037 11.536-1.037 17.758v2.723h4.666c5.704 0 8.685-.13 12.703-.649V41.35c-3.89-.519-7.26-.778-11.925-.778h-5.444v33.183c0 3.63.648 5.445 2.333 6.611 1.425.907 3.5 1.426 5.963 1.426 3.37 0 5.833-.648 9.073-2.333l1.944 19.703c-5.833 1.815-10.888 2.592-17.888 2.592-8.814 0-14.906-1.426-19.054-4.537-4.926-3.759-6.74-8.166-6.74-16.98V40.572H389.4a78.29 78.29 0 0 0-11.278.778V19.703c3.759.518 7 .778 11.537.778h4.667zM485.712 36.942c11.018 0 17.629 8.556 17.629 23.074 0 14.388-6.481 22.813-17.76 22.813-11.276 0-18.016-8.684-18.016-23.073 0-14.258 6.74-22.814 18.147-22.814zm-.26 65.59c25.796 0 42.907-17.111 42.907-42.905 0-25.666-16.592-42.128-42.777-42.128-26.183 0-42.775 16.462-42.775 42.387 0 26.054 16.592 42.646 42.645 42.646z"/></svg>