<svg xmlns="http://www.w3.org/2000/svg" width="81" height="19" viewBox="0 0 81 19"><path d="M2.36 4.824c.39 0 .78.007 1.168-.003.316-.007.48.15.577.436.879 2.585 1.762 5.168 2.645 7.75.01.03.013.067.033.088.166.173.022.597.343.58.23-.012.23-.375.3-.581a843.691 843.691 0 0 0 2.647-7.8c.113-.338.298-.476.642-.472.732.009 1.465 0 2.197.003.555.003.708.202.524.725-.251.717-.525 1.426-.792 2.137l-2.918 7.797c-.151.406-.287.82-.45 1.22-.446 1.09-1.143 1.571-2.234 1.562-.997-.008-1.742-.533-2.135-1.576C3.52 13.004 2.148 9.313.774 5.622c-.223-.601-.082-.795.558-.799H2.36zM14.927 7.878c0-2.073-.002-4.145.002-6.218.001-.705.18-.883.884-.894.515-.008 1.03-.014 1.543.001.624.019.806.2.813.822.012.935.017 1.87.001 2.805-.006.329.116.441.435.435a64.95 64.95 0 0 1 2.058-.002c.67.007.873.206.881.862.007.53.01 1.06 0 1.59-.013.617-.227.837-.858.852a41.53 41.53 0 0 1-2.058 0c-.34-.01-.463.104-.459.457.016 1.558 0 3.116.01 4.675.006 1.056.625 1.677 1.677 1.719.373.014.745-.027 1.119.038.366.063.557.266.562.628.007.67.008 1.34-.006 2.01-.007.336-.193.58-.536.596-1.22.056-2.44.064-3.586-.433-1.56-.676-2.343-1.968-2.421-3.588-.102-2.114-.025-4.236-.025-6.355zM62.455 11.492c-.001-1.949.013-3.897-.01-5.846-.005-.465.167-.606.602-.593.586.018.658.065.685.568.009.16-.082.386.112.462.178.069.292-.14.418-.238 2.284-1.807 5.567-1.36 7.256 1.009.217.305.315.263.499-.015 1.183-1.788 2.932-2.31 4.929-2.003 1.93.298 3.227 1.46 3.82 3.34.15.473.232.97.232 1.473v7.763c0 .22.035.478-.234.548-.315.08-.654.117-.953-.061-.177-.106-.102-.313-.102-.477-.004-2.572-.002-5.144-.004-7.716 0-1.751-1.079-3.2-2.792-3.55-1.721-.352-3.375.224-4.194 1.924a3.33 3.33 0 0 0-.334 1.486c.01 2.603.005 5.207.005 7.81 0 .23.058.515-.242.586-.314.074-.656.125-.95-.068-.173-.112-.096-.317-.096-.48-.005-2.54.003-5.082-.006-7.622-.006-1.709-.949-3.045-2.461-3.528-2.58-.824-4.89.837-4.905 3.543-.012 2.51 0 5.02-.002 7.53 0 .226.07.513-.209.614a1.241 1.241 0 0 1-.914-.019c-.22-.095-.147-.324-.148-.5-.003-1.98-.002-3.96-.002-5.94zM22.904 13.364c0-1.278-.03-2.556.007-3.831.035-1.232.293-2.404 1.17-3.354.906-.981 2.086-1.322 3.357-1.373 1.198-.048 2.399-.014 3.599-.01.528.002.728.201.737.738.009.53.002 1.06 0 1.588 0 .766-.184.953-.967.958-.935.005-1.87-.001-2.805 0-1.196.001-1.808.612-1.81 1.81-.002 2.476 0 4.952-.002 7.429 0 .721-.193.915-.91.92-.452.002-.904 0-1.355 0-.842 0-1.02-.172-1.02-.997-.003-1.293-.001-2.586-.001-3.878zM60.023 11.531c.005 3.025-2.467 5.481-5.534 5.499-2.985.016-5.49-2.502-5.495-5.494-.006-3.002 2.512-5.586 5.655-5.52 2.914.06 5.37 2.523 5.374 5.515zm-12.277-.197c-.086 3.755 2.907 6.853 6.477 6.954 3.81.108 7.05-2.803 7.06-6.745.009-3.839-3.018-6.76-6.737-6.787-3.736-.002-6.717 2.888-6.8 6.578zM34.57 11.58c-.056-2.925 1.844-5.642 4.475-6.501 2.965-.968 6.385.28 7.717 3.414.342.806.298.835-.578.843-.348.004-.53-.129-.68-.43-1.054-2.125-3.085-3.21-5.389-2.762-2 .388-3.34 1.67-3.962 3.571-.728 2.223-.273 4.26 1.434 5.915 2.314 2.246 6.5 1.725 7.913-1.408.196-.435.898-.673 1.33-.46.218.108.14.292.08.446-.815 2.065-2.247 3.433-4.455 3.912-2.795.608-5.48-.564-6.941-3.027-.65-1.095-.972-2.28-.943-3.514zM30.117 16.635c-.001-.957.68-1.65 1.63-1.656.939-.008 1.652.696 1.66 1.64.008.931-.702 1.646-1.641 1.65-.942.004-1.649-.696-1.65-1.634z"/></svg>