<svg xmlns="http://www.w3.org/2000/svg" width="135" height="22" viewBox="0 0 135 22"><g clip-path="url(#clip-88eb5b37-0309-430e-bb06-d634079b73d0)"><path fill="#fff" d="M99.858 1.214h.209c-.167.423-2.988 1.78-4.077 3.031-1.675 1.922-2.8 2.995-2.612 5.992.109 1.743 1.483 4.322 3.083 5.246.491.282 2.05 1.14 3.501 1.203 2.117.094 1.274-.33 1.582-.162V3.874c0-.157-.385-.988-.745-.988-.105 0-.261.193-.261.314v8.729c0 .326-.304.795-1.777 1.777-1.511 1.004-1.976 1.344-2.144 1.307.037-.094.267-.44.367-.522V5.395c0-.899 1.312-1.426 2.456-2.3 1.886-1.442 2.906-1.777 2.927-1.777h.47c1.256 0 2.039 1.516 2.195 1.673.01.01.361.13.471.261h.732c.21 0 .732-.314 1.045-.261-.846.737-3.543 2.457-3.606 2.457h-.419c-.193 0-.49-.298-.836-.47v11.395c.147.02.126 0 .21 0 .511 0 2.414-1.375 2.508-1.516h.157v.365c-.01.016-.779 1.453-.784 1.464-1.63 1.866-3.461 2.787-6.069 2.807-4.564.033-7.801-3.273-8.148-8.4-.346-5.103 3.248-9.296 7.474-9.566.617-.039 1.37.005 1.464 0 0 0 .58-.277.627-.313m29.31 12.29l2.366-1.526-2.381-2.449zm-11.357-6.036h.053l1.62 1.62v7.423l.993.94-1.882 1.83-1.777-1.777V10.08l-.836-.783zm12.806.284c.1 0 3.397 3.613 3.45 3.764l-4.966 3.502v1.411l2.814 1.273s1.478-.197 1.995-.646l.753.188c-.063.093-3.455 2.164-4.046 2.164-.13 0-2.66-.972-3.711-1.673V9.738c0-.354 3.7-1.986 3.711-1.986M117.76 2.554h.052l1.777 1.777v.053l-1.83 1.83-1.829-1.83zm-7.788 0v7.58l2.718-2.666 2.038 2.038v9.618l-2.56 2.51h-.053v-10.82l-.994-.941-1.15.993v5.697l.994.94v.053l-1.83 1.829-1.777-1.777V5.168l2.614-2.561zM124.45 16.69l.94.889-1.88 1.777-1.778-1.777V5.557l2.718-2.666zm-47.146-2.832l2.492-1.832-2.492-2.612zM68 16.47l2.457 1.098h.052v-7.161l-2.51-1.15zm10.82-8.834l3.397 3.764-4.965 3.659v.993c0 .21 2.925 1.544 2.925 1.544s1.45-.99 2.092-.603c-.037.047-3.502 2.3-3.502 2.3l-3.711-1.62v-8.26zm-9.67-4.809c.157 0 .846.267 1.986.837.617.308 1.725.54 1.725 1.097v12.963l-3.45 1.621-3.816-1.83V9.31l3.66-1.62c.13.015 1.306.47 1.306.47V5.545L67.51 4.242c-.495.031-1.082.506-1.678.611l.13-.51s2.75-1.516 3.189-1.516M21.53 16.296l3.45 1.603v-3.237l-3.45-1.729zm30.002.17l2.456 1.097v-7.16l-2.43-1.151zM23.568 7.549c2.54 1.27 3.66 1.425 3.66 1.987v6.69l1.62 1.62-1.517 1.464c-1.108-.904-1.516-1.307-1.516-1.307L23.03 19.4l-3.8-1.744v-4.41l3.712-1.829 2.037.836v-1.828l-3.255-1.132-1.634.196-.076-.268zm20.594.187L48.24 9.46c-.188.235-1.432 1.145-1.882 1.255 0 0-3.33-1.302-3.398-1.307v6.795l2.803 1.392s1.615-.555 2.007-.555c.041 0 .115.015.208 0v.156l-3.188 2.091h-.418l-4.024-1.83V9.566zm-8.624-.292l2.247 2.248v6.9l1.045 1.046-1.725 1.672-1.828-1.725v-6.43c-.032-.02-1.145-1.128-1.36-1.201l-1.254 1.15v5.54l.94.94-1.777 1.726-1.62-1.569V10.79s-.768-.643-1.098-1.045l2.196-2.248 2.143 2.039zm17.144.24l3.71 1.83v8.05l-3.501 1.724-3.763-1.62V9.251zM12.754 16.36c0 .314.558.575.888.575.157 0-.052.12.21 0v-6.011c0-.392-.937-.95-1.098-.993zm0-7.893c1.03-.617 1.672-.94 1.672-1.777 0-1.102-1.672-2.927-1.672-2.927zm1.201-8.31c.627 0 1.009.674 2.09 2.09.268.35 1.517 1.877 1.517 2.614v.575c0 1.489-3.92 2.984-3.92 3.607 0 .423 2.06.224 2.979.836.879.586 1.254 1.821 1.254 2.51v1.776c0 1.063-1.458 1.464-3.24 2.822-.784.597-3.46 2.405-3.659 2.405 0 0-3.069-1.672-4.547-1.672H4.443c-.833 0-2.876.731-3.032.731 0 0 3.087-3.031 6.22-3.031h2.09c.43 0 1.914.605 2.3.73V2.876c0-.13-.167-.366-.418-.366-.58 0-.993 1.057-.993 1.099V11.5c0 .35-1.36 1.405-2.09 1.828-1.093.633-1.799 1.239-2.457 1.569v-.157s.575-.627.575-.993V5.175c0-.105.92-1.254 3.45-2.717 1.468-.848 2.963-2.3 3.867-2.3M5.593 0h.992c.708 0 3.137.68 3.137.68h.418c.162 0 .423-.126.522-.21a.493.493 0 0 1 .21.106l-4.13 2.927c-.005 0-1.254.62-1.254 1.202v7.37L1.41 14.899c.057-.393.575-.75.575-1.307V6.326c0-.563 3.92-2.609 3.92-3.19 0-.574-2.3-1.044-2.3-1.044a20.092 20.092 0 0 0-1.776 0c-.727.026-1.548.485-1.83.47C.889 1.972 3.277 0 5.593 0"/></g></svg>